<?xml version="1.0" encoding="UTF-8" standalone="no"?>
<!DOCTYPE svg PUBLIC "-//W3C//DTD SVG 1.1//EN" "http://www.w3.org/Graphics/SVG/1.1/DTD/svg11.dtd">
<svg version="1.1" xmlns="http://www.w3.org/2000/svg" xmlns:xlink="http://www.w3.org/1999/xlink" preserveAspectRatio="xMidYMid meet" viewBox="0 0 256 256" width="256" height="256"><defs><path d="M2.24 18.29C0.75 19.84 0 21.65 0 23.84C0 42.67 0 53.12 0 55.2C0 58.72 2.03 60.43 2.24 60.96C3.79 62.51 5.71 63.25 8.05 63.25C152 63.25 231.95 63.25 247.95 63.25C251.25 63.25 253.07 61.23 253.6 60.96C255.2 59.47 256 57.55 256 55.2C256 36.37 256 25.92 256 23.84C256 20.59 253.87 18.88 253.6 18.29C252 16.8 250.13 16.05 247.95 16.05C247.95 16.05 247.95 16.05 247.95 16.05C104 16.05 24.05 16.05 8.05 16.05C4.53 16.05 2.83 18.08 2.24 18.29ZM2.24 82.93C0.75 84.53 0 86.4 0 88.59C0 174.72 0 222.61 0 232.16C0 235.41 2.03 237.12 2.24 237.7C3.79 239.2 5.71 239.94 8.05 239.94C152 239.94 231.95 239.94 247.95 239.94C251.25 239.94 253.07 237.92 253.6 237.7C255.2 236.16 256 234.34 256 232.16C256 146.02 256 98.19 256 88.59C256 85.33 253.87 83.52 253.6 82.93C252 81.33 250.13 80.59 247.95 80.59C104 80.59 24.05 80.59 8.05 80.59C4.53 80.59 2.83 82.72 2.24 82.93ZM76.05 139.52C71.25 134.77 71.73 129.17 71.25 128C71.25 121.22 75.57 117.6 76.05 116.48C79.2 113.28 83.09 111.68 87.57 111.68C136.11 111.68 163.04 111.68 168.43 111.68C175.2 111.68 178.77 116 179.95 116.48C184.75 121.22 184.27 126.82 184.75 128C184.75 134.77 180.43 138.4 179.95 139.52C176.8 142.72 172.91 144.32 168.43 144.32C119.89 144.32 92.96 144.32 87.57 144.32C80.8 144.32 77.23 140 76.05 139.52Z" id="a4yky2PTjd"></path></defs><g><g><g><use xlink:href="#a4yky2PTjd" opacity="1" fill="#a9a39a" fill-opacity="1"></use><g><use xlink:href="#a4yky2PTjd" opacity="1" fill-opacity="0" stroke="#000000" stroke-width="1" stroke-opacity="0"></use></g></g></g></g></svg>