<?xml version="1.0" encoding="UTF-8" standalone="no"?>
<!DOCTYPE svg PUBLIC "-//W3C//DTD SVG 1.1//EN" "http://www.w3.org/Graphics/SVG/1.1/DTD/svg11.dtd">
<svg version="1.1" xmlns="http://www.w3.org/2000/svg" xmlns:xlink="http://www.w3.org/1999/xlink" preserveAspectRatio="xMidYMid meet" viewBox="0 0 256 256" width="256" height="256"><defs><path d="M151.09 163.95C127.84 173.71 105.6 172.75 100.59 173.71C88.27 173.71 77.92 171.63 75.41 171.41C57.71 184 39.68 187.89 35.73 189.71C32.27 190.56 28.21 191.31 23.41 192C23.15 192 23.04 192 22.99 192C21.44 192 20.37 190.99 20.05 190.83C18.72 189.71 18.61 188.16 18.45 187.84C18.29 187.41 18.29 187.04 18.29 186.93C18.29 186.4 18.35 186.08 18.35 185.97C18.4 185.71 18.51 185.44 18.67 185.12C18.88 184.69 18.99 184.48 18.99 184.43C18.99 184.43 19.47 183.73 19.52 183.63C19.52 183.63 20 182.99 20.05 182.93C20.05 182.93 20.64 182.29 20.69 182.19C20.69 182.19 21.23 181.65 21.28 181.55C22.03 180.69 24.27 178.35 24.59 177.97C27.15 175.31 27.89 174.19 28.27 173.76C29.44 172.27 31.2 170.03 31.52 169.65C33.55 166.99 34.72 164.69 35.09 164.16C36.59 161.28 37.71 158.51 38.03 157.87C20.27 147.57 12.91 135.09 10.13 132.59C0 117.55 1.01 103.79 0 100.59C0 80.69 12.11 67.52 13.44 63.84C26.88 46.99 46.4 39.89 50.08 37.23C73.28 27.47 95.52 28.43 100.59 27.47C127.84 27.47 146.03 36.27 151.09 37.23C174.29 46.99 184.05 61.23 187.73 63.84C196.69 75.09 201.12 87.36 201.12 100.59C193.07 122.61 188.59 134.83 187.73 137.28C174.29 154.13 154.72 161.28 151.09 163.95ZM217.97 194.4C219.41 197.87 220.64 200.05 220.91 200.69C222.45 203.57 224.16 205.65 224.48 206.19C226.56 208.85 227.41 209.92 227.73 210.35C228.85 211.84 231.04 214.13 231.41 214.56C233.97 217.28 234.4 217.76 234.72 218.13C234.88 218.29 235.25 218.72 235.31 218.77C235.73 219.25 235.84 219.41 235.95 219.47C236.16 219.68 236.43 220.11 236.48 220.21C236.75 220.53 236.91 220.8 237.01 221.01C237.23 221.44 237.33 221.65 237.33 221.71C237.33 221.71 237.6 222.45 237.65 222.56C237.65 222.56 237.71 223.41 237.71 223.47C237.71 223.47 237.6 224.32 237.55 224.43C237.12 226.4 235.89 227.25 235.73 227.57C234.29 228.69 232.91 228.48 232.59 228.59C225.44 227.57 221.49 226.51 220.27 226.29C198.29 220.59 184.53 209.81 180.59 208C167.73 210.29 157.92 210.03 155.41 210.29C116.69 210.29 94.72 193.28 88 191.41C96.27 192 99.31 191.95 100.59 192C123.57 192 140.32 186.19 144.69 185.55C165.87 179.15 178.67 168.96 182.45 167.15C200.27 153.97 207.09 139.89 209.87 136.85C219.41 119.73 218.45 104.21 219.41 100.59C219.41 89.6 216.48 81.01 216.16 78.88C234.56 89.01 242.35 101.76 245.28 104.27C252.43 114.45 256 125.44 256 137.12C249.92 156.37 246.51 167.09 245.87 169.23C235.73 184.16 220.8 191.89 217.97 194.4Z" id="l1yWAQLGjg"></path></defs><g><g><g><use xlink:href="#l1yWAQLGjg" opacity="1" fill="#a9a39a" fill-opacity="1"></use><g><use xlink:href="#l1yWAQLGjg" opacity="1" fill-opacity="0" stroke="#000000" stroke-width="1" stroke-opacity="0"></use></g></g></g></g></svg>