<svg xmlns="http://www.w3.org/2000/svg" xmlns:xlink="http://www.w3.org/1999/xlink" viewBox="0 0 256 256" width="256" height="256"><defs><path d="M187.09 206.77C183.09 206.77 180.85 209.39 180.16 209.71C177.23 212.64 177.55 215.95 177.23 216.64C177.23 220.64 179.84 222.83 180.16 223.52C183.09 226.45 186.4 226.19 187.09 226.45C191.09 226.45 193.33 223.84 194.03 223.52C195.95 221.6 196.91 219.31 196.91 216.64C195.15 212.48 194.19 210.13 194.03 209.71C191.09 206.77 187.79 207.04 187.09 206.77ZM226.45 206.77C222.45 206.77 220.21 209.39 219.52 209.71C216.64 212.64 216.91 215.95 216.64 216.64C216.64 220.64 219.25 222.83 219.52 223.52C222.45 226.45 225.76 226.19 226.45 226.45C230.45 226.45 232.69 223.84 233.39 223.52C235.31 221.6 236.32 219.31 236.32 216.64C234.56 212.48 233.6 210.13 233.39 209.71C230.45 206.77 227.15 207.04 226.45 206.77ZM251.68 241.87C248.8 244.75 245.33 246.13 241.23 246.13C105.33 246.13 29.87 246.13 14.77 246.13C8.64 246.13 5.33 242.29 4.32 241.87C1.44 238.99 0 235.47 0 231.41C0 201.87 0 185.44 0 182.13C0 176 3.89 172.75 4.32 171.68C7.2 168.8 10.67 167.41 14.77 167.41C21.93 167.41 79.14 167.41 86.29 167.41C98.77 179.95 105.71 186.93 107.09 188.32C116 196.91 125.92 196.05 128 196.91C136 196.91 142.99 194.08 148.91 188.32C151 186.23 167.77 169.5 169.87 167.41C212.69 167.41 236.48 167.41 241.23 167.41C247.36 167.41 250.67 171.25 251.68 171.68C254.56 174.56 256 178.08 256 182.13C256 211.68 256 228.11 256 231.41C256 237.55 252.11 240.8 251.68 241.87ZM134.93 174.29C132.16 177.23 128.69 176.96 128 177.23C125.23 177.23 122.93 176.27 121.07 174.29C79.73 132.96 56.75 109.97 52.16 105.39C47.36 100.91 50.24 95.68 50.03 94.61C51.73 90.61 54.77 88.59 59.09 88.59C63.03 88.59 94.52 88.59 98.45 88.59C98.45 47.25 98.45 24.27 98.45 19.68C98.45 15.68 101.07 13.44 101.39 12.75C103.36 10.83 105.65 9.81 108.32 9.81C131.95 9.81 145.07 9.81 147.68 9.81C151.68 9.81 153.92 12.48 154.61 12.75C156.59 14.72 157.55 17.01 157.55 19.68C157.55 26.57 157.55 81.7 157.55 88.59C181.17 88.59 194.29 88.59 196.91 88.59C201.23 88.59 204.27 90.61 206.03 94.61C205.88 95.33 205.15 98.92 203.84 105.39C160.96 148.27 137.99 171.24 134.93 174.29Z" id="c1ff6faXfM"></path><path d="M187.09 206.77C183.09 206.77 180.85 209.39 180.16 209.71C177.23 212.64 177.55 215.95 177.23 216.64C177.23 220.64 179.84 222.83 180.16 223.52C183.09 226.45 186.4 226.19 187.09 226.45C191.09 226.45 193.33 223.84 194.03 223.52C195.95 221.6 196.91 219.31 196.91 216.64C195.15 212.48 194.19 210.13 194.03 209.71C191.09 206.77 187.79 207.04 187.09 206.77ZM226.45 206.77C222.45 206.77 220.21 209.39 219.52 209.71C216.64 212.64 216.91 215.95 216.64 216.64C216.64 220.64 219.25 222.83 219.52 223.52C222.45 226.45 225.76 226.19 226.45 226.45C230.45 226.45 232.69 223.84 233.39 223.52C235.31 221.6 236.32 219.31 236.32 216.64C234.56 212.48 233.6 210.13 233.39 209.71C230.45 206.77 227.15 207.04 226.45 206.77ZM251.68 241.87C248.8 244.75 245.33 246.13 241.23 246.13C105.33 246.13 29.87 246.13 14.77 246.13C8.64 246.13 5.33 242.29 4.32 241.87C1.44 238.99 0 235.47 0 231.41C0 201.87 0 185.44 0 182.13C0 176 3.89 172.75 4.32 171.68C7.2 168.8 10.67 167.41 14.77 167.41C21.93 167.41 79.14 167.41 86.29 167.41C98.77 179.95 105.71 186.93 107.09 188.32C116 196.91 125.92 196.05 128 196.91C136 196.91 142.99 194.08 148.91 188.32C151 186.23 167.77 169.5 169.87 167.41C212.69 167.41 236.48 167.41 241.23 167.41C247.36 167.41 250.67 171.25 251.68 171.68C254.56 174.56 256 178.08 256 182.13C256 211.68 256 228.11 256 231.41C256 237.55 252.11 240.8 251.68 241.87ZM134.93 174.29C132.16 177.23 128.69 176.96 128 177.23C125.23 177.23 122.93 176.27 121.07 174.29C79.73 132.96 56.75 109.97 52.16 105.39C47.36 100.91 50.24 95.68 50.03 94.61C51.73 90.61 54.77 88.59 59.09 88.59C63.03 88.59 94.52 88.59 98.45 88.59C98.45 47.25 98.45 24.27 98.45 19.68C98.45 15.68 101.07 13.44 101.39 12.75C103.36 10.83 105.65 9.81 108.32 9.81C131.95 9.81 145.07 9.81 147.68 9.81C151.68 9.81 153.92 12.48 154.61 12.75C156.59 14.72 157.55 17.01 157.55 19.68C157.55 26.57 157.55 81.7 157.55 88.59C181.17 88.59 194.29 88.59 196.91 88.59C201.23 88.59 204.27 90.61 206.03 94.61C205.88 95.33 205.15 98.92 203.84 105.39C160.96 148.27 137.99 171.24 134.93 174.29Z" id="a1tAh14vYY"></path></defs><g><g><g><use xlink:href="#c1ff6faXfM" opacity="1" fill="#a9a39a" fill-opacity="1"></use><g><use xlink:href="#c1ff6faXfM" opacity="1" fill-opacity="0" stroke="#000000" stroke-width="1" stroke-opacity="0"></use></g></g><g><use xlink:href="#a1tAh14vYY" opacity="1" fill="#000000" fill-opacity="0"></use><g><use xlink:href="#a1tAh14vYY" opacity="1" fill-opacity="0" stroke="#000000" stroke-width="1" stroke-opacity="0"></use></g></g></g></g></svg>