<?xml version="1.0" encoding="UTF-8" standalone="no"?>
<!DOCTYPE svg PUBLIC "-//W3C//DTD SVG 1.1//EN" "http://www.w3.org/Graphics/SVG/1.1/DTD/svg11.dtd">
<svg version="1.1" xmlns="http://www.w3.org/2000/svg" xmlns:xlink="http://www.w3.org/1999/xlink" preserveAspectRatio="xMidYMid meet" viewBox="0 0 256 256" width="256" height="256"><defs><path d="M196.16 162.4C204.11 208.59 208.48 234.19 209.39 239.36C209.55 240.43 209.55 242.08 209.55 242.4C209.55 245.65 208.11 247.31 207.95 247.89C206.29 250.08 203.68 249.87 203.25 250.08C201.28 250.08 199.25 249.49 197.07 248.27C190.16 244.63 134.91 215.58 128 211.95C86.56 233.76 63.52 245.81 58.93 248.27C55.52 250.08 53.39 249.92 52.75 250.08C49.55 250.08 48.43 248.11 47.95 247.89C46.29 245.65 46.45 242.99 46.29 242.4C46.29 241.81 46.4 240.75 46.61 239.36C47.94 231.66 58.52 170.1 59.84 162.4C26.24 129.76 7.57 111.57 3.84 107.95C0 103.79 0.37 101.28 0 100.59C0 96.75 2.88 94.4 8.64 93.49C16.36 92.37 78.14 83.37 85.87 82.24C106.61 40.27 118.13 16.91 120.48 12.27C123.36 5.92 127.25 6.56 128 5.92C131.09 5.92 133.6 8.05 135.52 12.27C138.98 19.26 166.67 75.24 170.13 82.24C216.48 89.01 242.24 92.75 247.36 93.49C253.12 94.4 256 96.75 256 100.59C255.73 101.08 254.4 103.53 252 107.95C218.5 140.62 199.88 158.77 196.16 162.4Z" id="d4VHLxoMmL"></path></defs><g><g><g><use xlink:href="#d4VHLxoMmL" opacity="1" fill="#a9a39a" fill-opacity="1"></use><g><use xlink:href="#d4VHLxoMmL" opacity="1" fill-opacity="0" stroke="#000000" stroke-width="1" stroke-opacity="0"></use></g></g></g></g></svg>