<svg xmlns="http://www.w3.org/2000/svg" xmlns:xlink="http://www.w3.org/1999/xlink" viewBox="0 0 256 256" width="256" height="256"><defs><path d="M94.13 69.41C76.26 79.7 61.65 88.13 61.65 88.18C61.54 88.24 126.46 122.64 126.72 122.64C126.83 122.64 141.55 114.91 159.37 105.41C161.55 104.29 172.38 98.53 191.85 88.24C191.64 88.08 191.53 88.02 191.48 88.02C189.98 87.06 126.78 50.69 126.67 50.69C126.62 50.69 111.95 59.12 94.13 69.41M61.7 140.24C61.7 159.48 61.7 170.16 61.7 172.3C78.19 181.79 87.36 187.07 89.17 188.14C104.27 196.83 116.7 204.03 116.75 204.03C116.8 204.03 116.86 190.59 116.86 171.02C116.86 168.83 116.86 157.79 116.86 137.95C100.37 129.09 91.25 124.13 89.39 123.12C74.29 114.96 61.86 108.29 61.81 108.24C61.76 108.24 61.7 122.64 61.7 140.24M164.43 123.44C148.02 132.31 138.89 137.23 137.07 138.22C137.07 158 137.07 168.94 137.07 171.18C137.07 197.42 137.12 204.09 137.23 204.03C137.34 203.98 149.66 196.89 164.65 188.19C166.46 187.18 175.58 181.9 191.9 172.46C191.9 153.31 191.96 142.7 191.96 140.56C191.96 123.01 191.9 108.61 191.85 108.61C191.85 108.67 179.47 115.28 164.43 123.44" id="a1XeM2onHU"></path><path d="M120.43 0.28C48.21 4.66 -5.93 67.54 0.52 139.66C5.96 201.1 54.98 250.06 116.43 255.56C196.12 262.65 262.58 196.25 255.48 116.51C249.4 47.86 189.29 -3.88 120.43 0.28M159.47 69.41C177.34 79.76 191.96 88.24 191.9 88.29C191.85 88.34 177.13 96.13 159.26 105.63C157.07 106.75 146.24 112.51 126.72 122.85C107.2 112.51 96.32 106.75 94.19 105.57C76.26 96.08 61.6 88.29 61.6 88.24C61.49 88.08 126.62 50.53 126.83 50.58C126.88 50.63 141.6 59.12 159.47 69.41M90.4 123.6L116.86 137.84L116.86 171.02C116.86 190.92 116.86 201.98 116.86 204.19C116.59 204.03 116.48 203.98 116.43 203.98C116.22 203.82 103.79 196.67 88.85 188.09C87.04 187.02 78.03 181.79 61.7 172.4C61.7 170.26 61.7 159.54 61.7 140.24C61.7 120.94 61.7 110.22 61.7 108.08C62.4 108.45 62.77 108.67 62.88 108.72C63.46 109.04 75.89 115.76 90.4 123.6M192.06 140.51C192.03 159.71 192.01 170.38 192.01 172.51C175.85 181.85 166.83 187.07 165.02 188.09C150.19 196.67 137.82 203.82 137.55 203.93C137.55 203.93 137.39 204.03 137.07 204.19C137.07 201.99 137.07 190.97 137.07 171.12C137.07 151.31 137.07 140.31 137.07 138.11C153.55 129.2 162.67 124.29 164.49 123.28C179.58 115.17 191.96 108.51 192.01 108.51C192.06 108.51 192.06 122.91 192.06 140.51" id="eqkwefZh7"></path><path d="M192.01 140.46C192.01 158.11 192.06 165.31 192.06 156.51C192.06 147.71 192.06 133.25 192.06 124.45C192.06 115.65 192.01 122.85 192.01 140.46" id="a3GCZLcE2V"></path></defs><g><g><g><use xlink:href="#a1XeM2onHU" opacity="1" fill="#fbfbfb" fill-opacity="1"></use><g><use xlink:href="#a1XeM2onHU" opacity="1" fill-opacity="0" stroke="#000000" stroke-width="1" stroke-opacity="0"></use></g></g><g><use xlink:href="#eqkwefZh7" opacity="1" fill="#1cacdc" fill-opacity="1"></use><g><use xlink:href="#eqkwefZh7" opacity="1" fill-opacity="0" stroke="#000000" stroke-width="1" stroke-opacity="0"></use></g></g><g><use xlink:href="#a3GCZLcE2V" opacity="1" fill="#6cbce4" fill-opacity="1"></use><g><use xlink:href="#a3GCZLcE2V" opacity="1" fill-opacity="0" stroke="#000000" stroke-width="1" stroke-opacity="0"></use></g></g></g></g></svg>