<?xml version="1.0" encoding="UTF-8" standalone="no"?>
<!DOCTYPE svg PUBLIC "-//W3C//DTD SVG 1.1//EN" "http://www.w3.org/Graphics/SVG/1.1/DTD/svg11.dtd">
<svg version="1.1" xmlns="http://www.w3.org/2000/svg" xmlns:xlink="http://www.w3.org/1999/xlink" preserveAspectRatio="xMidYMid meet" viewBox="0 0 256 256" width="256" height="256"><defs><path d="M192.01 140.46C192.01 158.11 192.06 165.31 192.06 156.51C192.06 147.71 192.06 133.25 192.06 124.45C192.06 115.65 192.01 122.85 192.01 140.46" id="a2pngx1X8L"></path><path d="M128 230.4C184.32 230.4 230.4 184.32 230.4 128C230.4 71.68 184.32 25.6 128 25.6C71.68 25.6 25.6 71.68 25.6 128C25.6 184.32 71.68 230.4 128 230.4M128 0C198.4 0 256 57.6 256 128C256 198.4 198.4 256 128 256C57.6 256 0 198.4 0 128C0 57.6 57.6 0 128 0M64 140.8L64 121.6L115.2 121.6L115.2 64L134.4 64L134.4 140.8L64 140.8Z" id="a4NqfAI8o"></path></defs><g><g><g><use xlink:href="#a2pngx1X8L" opacity="1" fill="#6cbce4" fill-opacity="1"></use><g><use xlink:href="#a2pngx1X8L" opacity="1" fill-opacity="0" stroke="#000000" stroke-width="1" stroke-opacity="0"></use></g></g><g><use xlink:href="#a4NqfAI8o" opacity="1" fill="#a9a39a" fill-opacity="1"></use><g><use xlink:href="#a4NqfAI8o" opacity="1" fill-opacity="0" stroke="#000000" stroke-width="1" stroke-opacity="0"></use></g></g></g></g></svg>