<?xml version="1.0" encoding="UTF-8" standalone="no"?>
<!DOCTYPE svg PUBLIC "-//W3C//DTD SVG 1.1//EN" "http://www.w3.org/Graphics/SVG/1.1/DTD/svg11.dtd">
<svg version="1.1" xmlns="http://www.w3.org/2000/svg" xmlns:xlink="http://www.w3.org/1999/xlink" preserveAspectRatio="xMidYMid meet" viewBox="0 0 256 256" width="256" height="256"><defs><path d="M192.01 140.46C192.01 158.11 192.06 165.31 192.06 156.51C192.06 147.71 192.06 133.25 192.06 124.45C192.06 115.65 192.01 122.85 192.01 140.46" id="a2pngx1X8L"></path><path d="M212.1 67.68L204.8 23.79L159.09 31.09L128 0L96.91 31.09L53.01 23.79L45.71 67.68L5.49 87.79L25.6 128L5.49 168.21L43.89 188.32L51.2 232.21L95.09 226.72L128 256L159.09 224.91L202.98 230.4L210.29 186.51L248.69 166.4L230.4 128L250.5 87.79L212.1 67.68ZM71.31 164.59L71.31 107.89L120.69 135.31L120.69 193.81L71.31 164.59ZM71.31 91.41L128 58.51L184.69 91.41L128 122.51L71.31 91.41ZM137.12 193.81L137.12 133.49L186.5 106.08L186.5 164.59L137.12 193.81Z" id="d1qSKTEmDB"></path></defs><g><g><g><use xlink:href="#a2pngx1X8L" opacity="1" fill="#6cbce4" fill-opacity="1"></use><g><use xlink:href="#a2pngx1X8L" opacity="1" fill-opacity="0" stroke="#000000" stroke-width="1" stroke-opacity="0"></use></g></g><g><use xlink:href="#d1qSKTEmDB" opacity="1" fill="#ff9e3a" fill-opacity="1"></use><g><use xlink:href="#d1qSKTEmDB" opacity="1" fill-opacity="0" stroke="#000000" stroke-width="1" stroke-opacity="0"></use></g></g></g></g></svg>