<?xml version="1.0" encoding="UTF-8" standalone="no"?>
<!DOCTYPE svg PUBLIC "-//W3C//DTD SVG 1.1//EN" "http://www.w3.org/Graphics/SVG/1.1/DTD/svg11.dtd">
<svg version="1.1" xmlns="http://www.w3.org/2000/svg" xmlns:xlink="http://www.w3.org/1999/xlink" preserveAspectRatio="xMidYMid meet" viewBox="0 0 256 256" width="256" height="256"><defs><path d="M192.01 140.46C192.01 158.11 192.06 165.31 192.06 156.51C192.06 147.71 192.06 133.25 192.06 124.45C192.06 115.65 192.01 122.85 192.01 140.46" id="a2pngx1X8L"></path><path d="M203.26 24.43L159.68 30.67L128 0L96.32 30.67L52.75 24.43L45.01 67.79L6.13 88.48L25.55 127.89L6.13 167.52L45.01 188.21L52.75 231.57L96.32 225.33L128 256L159.68 225.33L203.26 231.57L210.99 188.21L249.92 167.52L230.46 127.89L249.92 88.48L210.99 67.79L203.26 24.43ZM70.67 107.2L120.53 133.87L120.53 193.71L70.67 165.01L70.67 107.2ZM70.93 92L128 59.09L185.07 92L128 122.4L70.93 92ZM135.73 133.87L185.6 107.2L185.6 165.01L135.73 193.71L135.73 133.87Z" id="d32Smu6l4I"></path></defs><g><g><g><use xlink:href="#a2pngx1X8L" opacity="1" fill="#6cbce4" fill-opacity="1"></use><g><use xlink:href="#a2pngx1X8L" opacity="1" fill-opacity="0" stroke="#000000" stroke-width="1" stroke-opacity="0"></use></g></g><g><use xlink:href="#d32Smu6l4I" opacity="1" fill="#a9a39a" fill-opacity="1"></use><g><use xlink:href="#d32Smu6l4I" opacity="1" fill-opacity="0" stroke="#000000" stroke-width="1" stroke-opacity="0"></use></g></g></g></g></svg>