<?xml version="1.0" encoding="UTF-8" standalone="no"?>
<!DOCTYPE svg PUBLIC "-//W3C//DTD SVG 1.1//EN" "http://www.w3.org/Graphics/SVG/1.1/DTD/svg11.dtd">
<svg version="1.1" xmlns="http://www.w3.org/2000/svg" xmlns:xlink="http://www.w3.org/1999/xlink" preserveAspectRatio="xMidYMid meet" viewBox="0 0 256 256" width="256" height="256"><defs><path d="M192.01 140.46C192.01 158.11 192.06 165.31 192.06 156.51C192.06 147.71 192.06 133.25 192.06 124.45C192.06 115.65 192.01 122.85 192.01 140.46" id="a2pngx1X8L"></path><path d="M0 152.21L152.21 0L221.39 0L256 34.61L256 103.79L103.79 256L0 152.21ZM180.53 40.91C173.44 47.95 174.13 56.48 173.44 58.19C173.44 68.43 179.79 73.76 180.53 75.47C187.57 82.56 196.05 81.87 197.81 82.56C208.05 82.56 213.39 76.21 215.09 75.47C222.19 68.43 221.44 59.95 222.19 58.19C222.19 51.36 219.79 45.6 215.09 40.91C204.75 36.64 198.93 34.29 197.81 33.81C187.57 33.81 182.24 40.21 180.53 40.91Z" id="b1x4joTNmk"></path></defs><g><g><g><use xlink:href="#a2pngx1X8L" opacity="1" fill="#6cbce4" fill-opacity="1"></use><g><use xlink:href="#a2pngx1X8L" opacity="1" fill-opacity="0" stroke="#000000" stroke-width="1" stroke-opacity="0"></use></g></g><g><use xlink:href="#b1x4joTNmk" opacity="1" fill="#a9a39a" fill-opacity="1"></use><g><use xlink:href="#b1x4joTNmk" opacity="1" fill-opacity="0" stroke="#000000" stroke-width="1" stroke-opacity="0"></use></g></g></g></g></svg>