<?xml version="1.0" encoding="UTF-8" standalone="no"?>
<!DOCTYPE svg PUBLIC "-//W3C//DTD SVG 1.1//EN" "http://www.w3.org/Graphics/SVG/1.1/DTD/svg11.dtd">
<svg version="1.1" xmlns="http://www.w3.org/2000/svg" xmlns:xlink="http://www.w3.org/1999/xlink" preserveAspectRatio="xMidYMid meet" viewBox="0 0 256 256" width="256" height="256"><defs><path d="M192.01 140.46C192.01 158.11 192.06 165.31 192.06 156.51C192.06 147.71 192.06 133.25 192.06 124.45C192.06 115.65 192.01 122.85 192.01 140.46" id="a2pngx1X8L"></path><path d="M224.49 2.34C161.39 42.66 126.35 65.06 119.37 69.54C110.67 61.86 101.6 58.71 99.63 57.49C88.59 53.17 78.56 53.59 76.22 53.17C62.83 53.17 53.23 57.86 50.67 58.39C38.78 63.35 31.95 70.88 29.87 72.26C20.91 81.17 17.12 91.25 15.73 93.33C10.51 105.22 11.04 116.32 10.51 118.88C10.51 130.77 14.08 139.2 14.45 141.44C18.45 151.84 24.43 158.5 25.49 160.43C32.59 168.96 40.38 173.49 41.98 174.93C48.43 178.88 55.36 181.6 62.83 183.09C62.83 218.67 62.83 238.4 62.83 242.35C62.83 248.05 66.4 251.09 66.78 252.05C70.78 256 75.26 255.63 76.22 256C81.92 256 84.91 252.43 85.87 252.05C88.54 249.39 89.87 246.19 89.87 242.35C89.87 206.83 89.87 187.04 89.87 183.09C101.02 180.85 108.59 175.73 110.67 174.93C120.11 168.96 125.5 161.87 127.15 160.43C134.25 151.84 137.13 143.09 138.19 141.17C142.19 130.77 141.77 121.12 142.19 118.88C142.19 111.46 140.59 105.92 140.43 104.48C139.26 99.89 137.71 95.46 135.74 91.36C197.77 51.62 232.23 29.54 239.11 25.17C244.07 22.18 244.6 17.54 245.19 16.69C245.93 13.06 245.35 9.59 243.32 6.29C243.32 6.29 243.32 6.29 243.32 6.29C238.31 2.71 235.48 0.74 234.89 0.37C231.26 -0.49 227.8 0.15 224.49 2.34ZM37.76 118.88C37.76 102.77 47.95 94.24 49.07 91.46C60.32 80.21 73.5 81.33 76.22 80.21C92.32 80.21 100.86 90.45 103.63 91.62C114.89 102.98 113.77 116.16 114.89 118.88C114.89 134.77 104.75 143.3 103.63 146.02C96.11 153.54 86.94 157.33 76.22 157.33C76.22 157.33 76.22 157.33 76.22 157.33C59.95 150.56 50.88 146.77 49.07 146.02C37.76 134.77 38.94 121.6 37.76 118.88Z" id="b11VeXDxTk"></path></defs><g><g><g><use xlink:href="#a2pngx1X8L" opacity="1" fill="#6cbce4" fill-opacity="1"></use><g><use xlink:href="#a2pngx1X8L" opacity="1" fill-opacity="0" stroke="#000000" stroke-width="1" stroke-opacity="0"></use></g></g><g><use xlink:href="#b11VeXDxTk" opacity="1" fill="#a9a39a" fill-opacity="1"></use><g><use xlink:href="#b11VeXDxTk" opacity="1" fill-opacity="0" stroke="#000000" stroke-width="1" stroke-opacity="0"></use></g></g></g></g></svg>