<?xml version="1.0" encoding="UTF-8" standalone="no"?>
<!DOCTYPE svg PUBLIC "-//W3C//DTD SVG 1.1//EN" "http://www.w3.org/Graphics/SVG/1.1/DTD/svg11.dtd">
<svg version="1.1" xmlns="http://www.w3.org/2000/svg" xmlns:xlink="http://www.w3.org/1999/xlink" preserveAspectRatio="xMidYMid meet" viewBox="0 0 256 256" width="256" height="256"><defs><path d="M192.01 140.46C192.01 158.11 192.06 165.31 192.06 156.51C192.06 147.71 192.06 133.25 192.06 124.45C192.06 115.65 192.01 122.85 192.01 140.46" id="a2pngx1X8L"></path><path d="M39.95 87.73C27.95 97.71 18.24 106.83 10.88 115.09C9.79 116.34 1.09 126.28 0 127.52C5.23 135.09 8.16 139.31 8.75 140.11C8.75 140.11 31.41 165.07 33.92 167.84C33.92 167.84 70.24 192.64 74.29 195.41C97.92 208 122.61 206.72 128 208C157.87 208 176.37 196.85 181.71 195.57C205.39 182.99 217.92 170.83 221.97 168.05C233.01 158.08 241.44 148.91 247.25 140.53C248.13 139.29 255.13 129.35 256 128.11C249.39 120.53 245.71 116.32 244.96 115.47C233.87 103.09 218.83 90.77 215.95 88.05C198.03 73.01 179.04 63.36 174.93 60.59C159.68 52.21 144.05 48 128 48C128 48 128 48 128 48C99.73 55.47 84 59.57 80.85 60.43C57.97 72.8 44.05 85.01 39.95 87.73ZM93.97 161.92C87.47 155.47 84.8 148.21 83.79 146.72C79.89 137.97 80.27 129.97 79.89 128.11C79.89 118.03 83.41 111.15 83.79 109.28C87.47 100.53 92.96 95.57 93.97 94.08C100.48 87.57 107.68 84.91 109.17 83.89C118.13 80 126.13 80.37 128 80C137.87 80 144.75 83.47 146.61 83.89C155.36 87.57 160.32 93.07 161.87 94.08C168.32 100.53 171.2 107.79 172.21 109.28C175.89 118.03 175.52 126.24 175.89 128.11C175.89 137.97 172.59 144.85 172.21 146.72C168.32 155.47 162.88 160.43 161.87 161.92C155.36 168.43 148.16 171.25 146.61 172.32C140.8 174.77 134.61 176 128 176C116.69 173.81 110.45 172.59 109.17 172.32C100.48 168.43 95.47 162.99 93.97 161.92ZM128 153.71C117.33 153.71 111.57 146.88 109.76 146.13C102.19 138.56 102.99 129.92 102.19 128.11C102.19 117.44 109.01 111.68 109.76 109.87C117.33 102.29 126.19 103.04 128 102.29C138.67 102.29 144.32 109.12 146.13 109.87C151.09 114.93 153.6 120.96 153.6 128.11C153.6 128.11 153.6 128.11 153.6 128.11C149.12 138.93 146.61 144.91 146.13 146.13C138.67 153.71 129.81 152.96 128 153.71Z" id="b1UcCdNhb"></path></defs><g><g><g><use xlink:href="#a2pngx1X8L" opacity="1" fill="#6cbce4" fill-opacity="1"></use><g><use xlink:href="#a2pngx1X8L" opacity="1" fill-opacity="0" stroke="#000000" stroke-width="1" stroke-opacity="0"></use></g></g><g><use xlink:href="#b1UcCdNhb" opacity="1" fill="#a9a39a" fill-opacity="1"></use><g><use xlink:href="#b1UcCdNhb" opacity="1" fill-opacity="0" stroke="#000000" stroke-width="1" stroke-opacity="0"></use></g></g></g></g></svg>