<svg width="375" height="258" viewBox="0 0 375 258" fill="none" xmlns="http://www.w3.org/2000/svg"><g clip-path="url(#clip0)" fill="#DBCCA7" opacity=".1"><path d="M214.25 85.356s-3.019 3.799-6.712 5.694c2 .557 4.674.49 4.674.49s-.587 2.953-4.087 4.924c2.625.77 4.433.462 4.433.462s-.539 3.549-5.01 4.818c3.894 1.058 6.231 0 6.231 0v7.944h4.183v-8.155s1.269.49 5.451.144c-4.48-2.318-5.307-4.886-5.307-4.886s1.221.462 4.231.173c-3.991-2.53-4.664-5.26-4.664-5.26s1.452-.24 3.596-.645c-3.221-.952-7.019-5.703-7.019-5.703zM234.731 84.279s-3.183 3.799-7.087 5.693c2.106.558 4.933.49 4.933.49s-.615 2.953-4.317 4.925c2.769.77 4.673.462 4.673.462s-.568 3.549-5.289 4.818c4.106 1.058 6.577 0 6.577 0v7.944h4.414v-8.155s1.336.49 5.75.144c-4.731-2.318-5.596-4.886-5.596-4.886s1.288.462 4.471.173c-4.212-2.53-4.923-5.26-4.923-5.26s1.538-.241 3.798-.645c-3.395-.962-7.404-5.703-7.404-5.703zM257.058 88.443s-3.221 3.145-7.173 4.722c2.134.462 4.99.404 4.99.404s-.625 2.443-4.365 4.078c2.807.645 4.73.375 4.73.375s-.567 2.943-5.355 3.992c4.163.875 6.653 0 6.653 0v6.588h4.472v-6.762s1.355.404 5.827.116c-4.779-1.924-5.664-4.05-5.664-4.05s1.298.376 4.519.145c-4.259-2.097-4.99-4.357-4.99-4.357s1.558-.202 3.846-.529c-3.442-.788-7.49-4.722-7.49-4.722zM301.019 85.356s-2.731 3.799-6.067 5.694c1.808.557 4.221.49 4.221.49s-.529 2.953-3.692 4.924c2.375.77 4 .462 4 .462s-.481 3.549-4.529 4.818c3.519 1.058 5.635 0 5.635 0v7.944h3.788v-8.155s1.144.49 4.923.144c-4.048-2.318-4.798-4.886-4.798-4.886s1.096.462 3.827.173c-3.606-2.53-4.221-5.26-4.221-5.26s1.317-.24 3.25-.645c-2.904-.952-6.337-5.703-6.337-5.703zM321.798 86.366s-2.183 3.799-4.846 5.693c1.442.558 3.375.49 3.375.49s-.423 2.953-2.952 4.925c1.894.77 3.202.462 3.202.462s-.385 3.549-3.625 4.818c2.808 1.058 4.5 0 4.5 0v7.944h3.019v-8.155s.914.49 3.933.144c-3.231-2.318-3.827-4.886-3.827-4.886s.875.462 3.058.173c-2.885-2.53-3.375-5.26-3.375-5.26s1.048-.241 2.596-.645c-2.318-.962-5.058-5.703-5.058-5.703zM343.76 86.28s-3.116 3.144-6.933 4.721c2.058.462 4.827.404 4.827.404s-.606 2.443-4.221 4.078c2.711.645 4.577.375 4.577.375s-.558 2.943-5.173 3.992c4.019.875 6.432 0 6.432 0v6.588h4.327v-6.761s1.308.403 5.625.115c-4.625-1.924-5.481-4.05-5.481-4.05s1.26.376 4.375.145c-4.125-2.097-4.817-4.357-4.817-4.357s1.5-.202 3.712-.529c-3.337-.788-7.25-4.722-7.25-4.722zM176.885 81.634L158.038 95.29h8.26v13.003l16.346.558.51-13.561h6.365l-12.634-13.657zm.836 19.129h-4.086v-4.087h4.086v4.087zM89.23 218.357l-13.038 13.907h6.625l1.318 13.474h13.76v-13.474h4.816l-13.48-13.907zm3.79 19.485h-4.164v-4.164h4.163v4.164zM237.904 218.357l-17.606 17.081 9.587-.279 2.788 15.619h12.202v-16.061l8.163-.241-15.134-16.119zm1.942 19.851h-5.115v-5.117h5.115v5.117zM318.788 236.39l5.904.173v11.618h8.827l2.019-11.3 6.933.202-12.731-12.359-10.952 11.666zm9.539-1.01h3.702v3.703h-3.702v-3.703zM144.779 84.279l-12.837 12.455 6.991-.203 2.029 11.397h8.894V96.214l5.952-.173-11.029-11.762zm1.413 14.474h-3.73v-3.731h3.73v3.731zM296.26 11.637a14.97 14.97 0 01-6.02-1.27l-5.913-2.587a8.246 8.246 0 00-7.192.26l-2.106 1.115a14.948 14.948 0 01-14.471-.24l-.75-.433a8.261 8.261 0 00-7.875-.192l-2.625 1.337a14.965 14.965 0 01-13 .307l-4.606-2.077a8.234 8.234 0 00-7.289.23l-2.798 1.482a14.95 14.95 0 01-12.884.548l-6.029-2.558a8.311 8.311 0 00-6.692.096l-4.481 2.058a15.04 15.04 0 01-13.837-.673l-1.154-.673a8.332 8.332 0 00-7.548-.414l-4.663 2.078a14.993 14.993 0 01-12.817-.289l-2.962-1.481a8.254 8.254 0 00-7.817.221l-1.154.664a15.059 15.059 0 01-13.721.606l-4.51-2.068a8.271 8.271 0 00-6.74-.077l-5.933 2.558a14.988 14.988 0 01-12.567-.317l-3.99-1.962a8.262 8.262 0 00-7.02-.135l-5.586 2.482a15.107 15.107 0 01-11.856.153l-7.212-2.99a8.25 8.25 0 00-6.26-.04l-7.865 3.146a15.11 15.11 0 01-11.634-.202l-5.837-2.587a8.288 8.288 0 00-7 .144l-3.221 1.577a14.978 14.978 0 01-14.192-.51C2.365 7.723.788 7.29 0 7.29V.557c2.846 0 5.827 1.395 7.837 2.559a8.267 8.267 0 007.836.278l3.221-1.577a14.966 14.966 0 0112.683-.26l5.817 2.568a8.356 8.356 0 006.423.116l7.866-3.145a14.928 14.928 0 0111.336.077l7.212 2.99a8.325 8.325 0 006.548-.086l5.586-2.481a15.017 15.017 0 0112.722.24l3.99 1.962a8.278 8.278 0 006.933.174l5.932-2.559a15.046 15.046 0 0112.212.145l4.509 2.067a8.3 8.3 0 007.577-.336l1.154-.664a14.99 14.99 0 0114.173-.394l2.962 1.48a8.255 8.255 0 007.077.164l4.663-2.077a15.084 15.084 0 0113.673.75l1.154.673a8.306 8.306 0 007.635.375l4.481-2.058a15.016 15.016 0 0112.134-.173l6.029 2.558a8.311 8.311 0 007.115-.298l2.798-1.48c4.125-2.184 8.943-2.328 13.202-.414l4.606 2.077a8.267 8.267 0 007.173-.163l2.625-1.337a14.993 14.993 0 0114.269.346l.75.433a8.255 8.255 0 007.991.134l2.106-1.115a14.923 14.923 0 0113.038-.481l5.914 2.587a8.244 8.244 0 006.221.173l8.807-3.29a15.037 15.037 0 0112.068.684l3.711 1.885a8.23 8.23 0 007.125.192l5.721-2.539a14.939 14.939 0 0111.356-.346L357 4.347a8.323 8.323 0 006.356-.231l4.759-2.183c1.962-.904 4.279-1.356 6.914-1.356v6.732c-1.654 0-3.029.25-4.096.74l-4.76 2.184a15.135 15.135 0 01-11.519.423l-9.029-3.376a8.278 8.278 0 00-6.269.192l-5.721 2.54a14.974 14.974 0 01-12.914-.337L317.01 7.79a8.297 8.297 0 00-6.664-.375l-8.808 3.289c-1.73.615-3.509.933-5.278.933zM296.26 28.949c-2.049 0-4.087-.423-6.02-1.27l-5.913-2.587a8.246 8.246 0 00-7.192.26l-2.106 1.116a14.948 14.948 0 01-14.471-.24l-.75-.434a8.262 8.262 0 00-7.875-.192l-2.625 1.337a14.965 14.965 0 01-13 .308l-4.606-2.078a8.234 8.234 0 00-7.289.231l-2.798 1.481a14.95 14.95 0 01-12.884.548l-6.029-2.558a8.311 8.311 0 00-6.692.096l-4.481 2.058a15.04 15.04 0 01-13.837-.673l-1.154-.673a8.332 8.332 0 00-7.548-.414l-4.663 2.078a14.993 14.993 0 01-12.817-.289l-2.962-1.48a8.254 8.254 0 00-7.817.22l-1.154.664a15.058 15.058 0 01-13.721.606l-4.51-2.068a8.309 8.309 0 00-6.74-.077l-5.933 2.558a14.987 14.987 0 01-12.567-.317l-3.99-1.962a8.262 8.262 0 00-7.02-.135l-5.586 2.482a15.107 15.107 0 01-11.856.154l-7.212-2.992a8.25 8.25 0 00-6.26-.038l-7.865 3.145a15.11 15.11 0 01-11.634-.202l-5.837-2.587a8.288 8.288 0 00-7 .144l-3.221 1.577a14.978 14.978 0 01-14.192-.51C2.356 25.026.779 24.593-.01 24.593V17.86c2.847 0 5.827 1.394 7.837 2.558a8.267 8.267 0 007.836.279l3.222-1.577a14.966 14.966 0 0112.682-.26l5.818 2.568a8.355 8.355 0 006.423.115l7.865-3.145a14.928 14.928 0 0111.337.077l7.211 2.991a8.325 8.325 0 006.548-.086l5.587-2.482a14.983 14.983 0 0112.72.24l3.991 1.963a8.277 8.277 0 006.933.173l5.933-2.558a15.044 15.044 0 0112.211.144l4.51 2.068a8.3 8.3 0 007.577-.337l1.154-.663a14.99 14.99 0 0114.173-.395l2.961 1.481a8.255 8.255 0 007.077.164l4.664-2.078a15.084 15.084 0 0113.673.75l1.153.674a8.306 8.306 0 007.635.375l4.481-2.058a15.016 15.016 0 0112.134-.173l6.029 2.558a8.28 8.28 0 007.116-.298l2.798-1.481c4.125-2.183 8.942-2.328 13.202-.414l4.605 2.077a8.269 8.269 0 007.174-.163l2.625-1.337a14.993 14.993 0 0114.269.346l.75.433a8.253 8.253 0 007.99.135L274 19.408a14.923 14.923 0 0113.038-.48l5.914 2.587a8.244 8.244 0 006.221.173l8.808-3.29a15.035 15.035 0 0112.067.683l3.712 1.885a8.23 8.23 0 007.125.193l5.721-2.54a14.936 14.936 0 0111.355-.346l9.029 3.376a8.322 8.322 0 006.356-.23l4.76-2.184c1.961-.904 4.279-1.356 6.913-1.356v6.732c-1.654 0-3.029.25-4.096.74l-4.76 2.184a15.134 15.134 0 01-11.519.423l-9.029-3.375a8.278 8.278 0 00-6.269.192l-5.721 2.539a14.974 14.974 0 01-12.914-.337L317 25.092a8.296 8.296 0 00-6.664-.375l-8.807 3.29c-1.721.624-3.5.942-5.269.942zM296.26 46.26c-2.049 0-4.087-.423-6.02-1.269l-5.913-2.587a8.246 8.246 0 00-7.192.26l-2.106 1.115a14.948 14.948 0 01-14.471-.24l-.75-.433a8.262 8.262 0 00-7.875-.192l-2.625 1.336a14.965 14.965 0 01-13 .308l-4.606-2.077a8.234 8.234 0 00-7.289.23l-2.798 1.482a14.95 14.95 0 01-12.884.548l-6.029-2.558a8.311 8.311 0 00-6.692.096l-4.481 2.058a15.04 15.04 0 01-13.837-.673l-1.154-.674a8.332 8.332 0 00-7.548-.413l-4.663 2.077a14.993 14.993 0 01-12.817-.288l-2.962-1.481a8.254 8.254 0 00-7.817.22l-1.154.665a15.059 15.059 0 01-13.721.605l-4.51-2.067a8.27 8.27 0 00-6.74-.077l-5.933 2.558a14.987 14.987 0 01-12.567-.317l-3.99-1.962a8.263 8.263 0 00-7.02-.135l-5.586 2.481a15.106 15.106 0 01-11.856.154l-7.212-2.99a8.25 8.25 0 00-6.26-.04l-7.865 3.146a15.11 15.11 0 01-11.634-.202l-5.837-2.587a8.288 8.288 0 00-7 .144l-3.221 1.577a14.979 14.979 0 01-14.192-.51C2.356 42.336.779 41.904-.01 41.904V35.17c2.847 0 5.827 1.395 7.837 2.559a8.267 8.267 0 007.836.279l3.222-1.578a14.967 14.967 0 0112.682-.26l5.818 2.569a8.356 8.356 0 006.423.115l7.865-3.145a14.928 14.928 0 0111.337.077l7.211 2.991a8.325 8.325 0 006.548-.087l5.587-2.48a14.983 14.983 0 0112.72.24l3.991 1.962a8.277 8.277 0 006.933.173l5.933-2.559a15.043 15.043 0 0112.211.145l4.51 2.067a8.3 8.3 0 007.577-.336l1.154-.664a14.99 14.99 0 0114.173-.394l2.961 1.481a8.255 8.255 0 007.077.163l4.664-2.077a15.084 15.084 0 0113.673.75l1.153.674a8.277 8.277 0 007.635.375l4.481-2.059a15.016 15.016 0 0112.134-.173l6.029 2.559a8.28 8.28 0 007.116-.299l2.798-1.48c4.125-2.184 8.942-2.328 13.202-.414l4.605 2.077a8.269 8.269 0 007.174-.163l2.625-1.337a14.993 14.993 0 0114.269.346l.75.433a8.254 8.254 0 007.99.135L274 36.72a14.923 14.923 0 0113.038-.481l5.914 2.587a8.244 8.244 0 006.221.173l8.808-3.289a15.035 15.035 0 0112.067.683l3.712 1.885a8.23 8.23 0 007.125.192l5.721-2.539a14.936 14.936 0 0111.355-.346l9.029 3.376a8.322 8.322 0 006.356-.231l4.76-2.183c1.961-.904 4.279-1.356 6.913-1.356v6.732c-1.654 0-3.029.25-4.096.74l-4.76 2.184a15.134 15.134 0 01-11.519.423l-9.029-3.376a8.278 8.278 0 00-6.269.193l-5.721 2.538a14.973 14.973 0 01-12.914-.336L317 42.404a8.296 8.296 0 00-6.664-.375l-8.807 3.289c-1.721.625-3.5.943-5.269.943zM296.26 63.572c-2.049 0-4.087-.423-6.02-1.27l-5.913-2.587a8.246 8.246 0 00-7.192.26l-2.106 1.116a14.948 14.948 0 01-14.471-.24l-.75-.433a8.261 8.261 0 00-7.875-.193l-2.625 1.337a14.965 14.965 0 01-13 .308l-4.606-2.078a8.234 8.234 0 00-7.289.231l-2.798 1.481a14.983 14.983 0 01-12.884.549l-6.029-2.559a8.311 8.311 0 00-6.692.096l-4.481 2.059a15.04 15.04 0 01-13.837-.674l-1.154-.673a8.331 8.331 0 00-7.548-.413l-4.663 2.077a14.993 14.993 0 01-12.817-.288l-2.962-1.482a8.253 8.253 0 00-7.817.222l-1.154.663a15.059 15.059 0 01-13.721.606l-4.51-2.068a8.309 8.309 0 00-6.74-.077l-5.933 2.559a14.987 14.987 0 01-12.567-.318l-3.99-1.962a8.262 8.262 0 00-7.02-.134l-5.586 2.481a15.106 15.106 0 01-11.856.154l-7.212-2.991a8.25 8.25 0 00-6.26-.039l-7.865 3.145a15.11 15.11 0 01-11.634-.202l-5.837-2.587a8.288 8.288 0 00-7 .144l-3.221 1.578a14.979 14.979 0 01-14.192-.51C2.356 59.648.779 59.215-.01 59.215v-6.732c2.847 0 5.827 1.395 7.837 2.558a8.267 8.267 0 007.836.28l3.222-1.578a14.966 14.966 0 0112.682-.26l5.818 2.568a8.356 8.356 0 006.423.116l7.865-3.145a14.928 14.928 0 0111.337.077l7.211 2.99a8.326 8.326 0 006.548-.086l5.587-2.481a15.017 15.017 0 0112.72.24l3.991 1.962a8.277 8.277 0 006.933.173l5.933-2.558a15.044 15.044 0 0112.211.144l4.51 2.068a8.3 8.3 0 007.577-.337l1.154-.663a14.99 14.99 0 0114.173-.395l2.961 1.482a8.254 8.254 0 007.077.163l4.664-2.077a15.084 15.084 0 0113.673.75l1.153.673a8.306 8.306 0 007.635.375l4.481-2.058a15.015 15.015 0 0112.134-.173l6.029 2.558a8.314 8.314 0 007.116-.298l2.798-1.481a14.924 14.924 0 0113.202-.414l4.605 2.078a8.269 8.269 0 007.174-.164l2.625-1.337a14.993 14.993 0 0114.269.347l.75.433a8.278 8.278 0 007.99.134L274 54.032a14.923 14.923 0 0113.038-.481l5.914 2.587a8.245 8.245 0 006.221.173l8.808-3.29a15.035 15.035 0 0112.067.684l3.712 1.885a8.23 8.23 0 007.125.192l5.721-2.54a14.936 14.936 0 0111.355-.345l9.029 3.375a8.323 8.323 0 006.356-.23l4.76-2.184c1.961-.904 4.279-1.356 6.913-1.356v6.733c-1.654 0-3.029.25-4.096.74l-4.76 2.183a15.134 15.134 0 01-11.519.423l-9.029-3.375a8.279 8.279 0 00-6.269.192l-5.721 2.54a14.973 14.973 0 01-12.914-.338L317 59.715a8.296 8.296 0 00-6.664-.375l-8.807 3.29c-1.721.625-3.5.942-5.269.942zM296.26 80.884c-2.049 0-4.087-.423-6.02-1.27l-5.913-2.587a8.246 8.246 0 00-7.192.26l-2.106 1.115a14.948 14.948 0 01-14.471-.24l-.75-.433a8.261 8.261 0 00-7.875-.192l-2.625 1.337a14.964 14.964 0 01-13 .307l-4.606-2.077a8.234 8.234 0 00-7.289.23l-2.798 1.482a14.983 14.983 0 01-12.884.548l-6.029-2.558a8.311 8.311 0 00-6.692.096l-4.481 2.058a15.04 15.04 0 01-13.837-.673l-1.154-.673a8.331 8.331 0 00-7.548-.414l-4.663 2.078a14.993 14.993 0 01-12.817-.289l-2.962-1.481a8.253 8.253 0 00-7.817.221l-1.154.664a15.058 15.058 0 01-13.721.606l-4.51-2.068a8.27 8.27 0 00-6.74-.077l-5.933 2.558a14.988 14.988 0 01-12.567-.317l-3.99-1.962a8.262 8.262 0 00-7.02-.135L79.51 79.48a15.107 15.107 0 01-11.856.153l-7.212-2.99a8.25 8.25 0 00-6.26-.04l-7.865 3.146a15.11 15.11 0 01-11.634-.202l-5.837-2.587a8.288 8.288 0 00-7 .144l-3.221 1.577a14.979 14.979 0 01-14.192-.51C2.356 76.96.779 76.528-.01 76.528v-6.732c2.847 0 5.827 1.394 7.837 2.558a8.267 8.267 0 007.836.279l3.222-1.577a14.966 14.966 0 0112.682-.26l5.818 2.568a8.356 8.356 0 006.423.115l7.865-3.145a14.928 14.928 0 0111.337.077l7.211 2.991a8.325 8.325 0 006.548-.086l5.587-2.482a15.017 15.017 0 0112.72.24l3.991 1.963a8.277 8.277 0 006.933.173l5.933-2.558a15.044 15.044 0 0112.211.144l4.51 2.068a8.3 8.3 0 007.577-.337l1.154-.663a14.99 14.99 0 0114.173-.395l2.961 1.481a8.254 8.254 0 007.077.164l4.664-2.078a15.084 15.084 0 0113.673.75l1.153.674a8.306 8.306 0 007.635.375l4.481-2.058a15.015 15.015 0 0112.134-.173l6.029 2.558a8.314 8.314 0 007.116-.298l2.798-1.481c4.125-2.184 8.942-2.328 13.202-.414l4.605 2.077a8.269 8.269 0 007.174-.163l2.625-1.337a14.993 14.993 0 0114.269.346l.75.433a8.253 8.253 0 007.99.135L274 71.343a14.924 14.924 0 0113.038-.48l5.914 2.586a8.245 8.245 0 006.221.174l8.808-3.29a15.035 15.035 0 0112.067.683l3.712 1.885a8.23 8.23 0 007.125.193l5.721-2.54a14.936 14.936 0 0111.355-.346l9.029 3.376a8.322 8.322 0 006.356-.23l4.76-2.184c1.961-.904 4.279-1.356 6.913-1.356v6.732c-1.654 0-3.029.25-4.096.74l-4.76 2.184a15.134 15.134 0 01-11.519.423l-9.029-3.376a8.278 8.278 0 00-6.269.193l-5.721 2.539a14.974 14.974 0 01-12.914-.337L317 77.027a8.296 8.296 0 00-6.664-.375l-8.807 3.29c-1.721.624-3.5.942-5.269.942z"/><path opacity=".6" d="M296.26 98.195c-2.049 0-4.087-.423-6.02-1.27l-5.913-2.586a8.246 8.246 0 00-7.192.26l-2.106 1.115a14.948 14.948 0 01-14.471-.24l-.75-.433a8.261 8.261 0 00-7.875-.192l-2.625 1.336a14.965 14.965 0 01-13 .308l-4.606-2.077a8.234 8.234 0 00-7.289.23l-2.798 1.482a14.983 14.983 0 01-12.884.548l-6.029-2.558a8.311 8.311 0 00-6.692.096l-4.481 2.058a15.04 15.04 0 01-13.837-.673l-1.154-.674a8.332 8.332 0 00-7.548-.413l-4.663 2.077a14.993 14.993 0 01-12.817-.288l-2.962-1.481a8.254 8.254 0 00-7.817.22l-1.154.664a15.058 15.058 0 01-13.721.606l-4.51-2.067a8.271 8.271 0 00-6.74-.077l-5.933 2.558a14.987 14.987 0 01-12.567-.318l-3.99-1.962a8.262 8.262 0 00-7.02-.134L79.51 96.79a15.106 15.106 0 01-11.856.154l-7.212-2.991a8.25 8.25 0 00-6.26-.038l-7.865 3.145a15.11 15.11 0 01-11.634-.203l-5.837-2.587a8.288 8.288 0 00-7 .145l-3.221 1.577a14.978 14.978 0 01-14.192-.51C2.356 94.271.779 93.84-.01 93.84v-6.733c2.847 0 5.827 1.395 7.837 2.559a8.267 8.267 0 007.836.278l3.222-1.577a14.967 14.967 0 0112.682-.26l5.818 2.568a8.355 8.355 0 006.423.116l7.865-3.145a14.928 14.928 0 0111.337.077l7.211 2.99a8.325 8.325 0 006.548-.086l5.587-2.481a14.983 14.983 0 0112.72.24l3.991 1.962a8.277 8.277 0 006.933.174l5.933-2.559a15.044 15.044 0 0112.211.144l4.51 2.068a8.3 8.3 0 007.577-.336l1.154-.664a14.99 14.99 0 0114.173-.394l2.961 1.48a8.255 8.255 0 007.077.164l4.664-2.077a15.084 15.084 0 0113.673.75l1.153.673a8.306 8.306 0 007.635.376l4.481-2.059a15.016 15.016 0 0112.134-.173l6.029 2.558a8.28 8.28 0 007.116-.298l2.798-1.48c4.125-2.184 8.942-2.328 13.202-.414l4.605 2.077a8.27 8.27 0 007.174-.163l2.625-1.337a14.993 14.993 0 0114.269.346l.75.433a8.253 8.253 0 007.99.134L274 88.655a14.923 14.923 0 0113.038-.481l5.914 2.587a8.244 8.244 0 006.221.173l8.808-3.29a15.035 15.035 0 0112.067.684l3.712 1.885a8.262 8.262 0 007.125.192l5.721-2.539a14.936 14.936 0 0111.355-.346l9.029 3.376a8.322 8.322 0 006.356-.231l4.76-2.183c1.961-.904 4.279-1.356 6.913-1.356v6.732c-1.654 0-3.029.25-4.096.74l-4.76 2.184a15.134 15.134 0 01-11.519.423l-9.029-3.376a8.278 8.278 0 00-6.269.192l-5.721 2.54a14.974 14.974 0 01-12.914-.337L317 94.339a8.296 8.296 0 00-6.664-.375l-8.807 3.289c-1.721.625-3.5.942-5.269.942z"/><path d="M296.26 115.507c-2.049 0-4.087-.423-6.02-1.27l-5.913-2.587a8.247 8.247 0 00-7.192.26l-2.106 1.116a14.948 14.948 0 01-14.471-.241l-.75-.433a8.264 8.264 0 00-7.875-.192l-2.625 1.337a14.966 14.966 0 01-13 .308l-4.606-2.078a8.233 8.233 0 00-7.289.231l-2.798 1.481a14.947 14.947 0 01-12.884.548l-6.029-2.558a8.313 8.313 0 00-6.692.096l-4.481 2.058a15.04 15.04 0 01-13.837-.673l-1.154-.673a8.332 8.332 0 00-7.548-.414l-4.663 2.078a14.994 14.994 0 01-12.817-.289l-2.962-1.481a8.258 8.258 0 00-7.817.221l-1.154.664a15.057 15.057 0 01-13.721.606l-4.51-2.068a8.27 8.27 0 00-6.74-.077l-5.933 2.559a14.99 14.99 0 01-12.567-.318l-3.99-1.962a8.262 8.262 0 00-7.02-.135l-5.586 2.482a15.108 15.108 0 01-11.856.154l-7.212-2.991a8.248 8.248 0 00-6.26-.039l-7.865 3.145a15.107 15.107 0 01-11.634-.202l-5.837-2.587a8.287 8.287 0 00-7 .144l-3.221 1.578a14.982 14.982 0 01-14.192-.51C2.356 111.583.779 111.15-.01 111.15v-6.732c2.847 0 5.827 1.394 7.837 2.558a8.268 8.268 0 007.836.279l3.222-1.577a14.968 14.968 0 0112.682-.26l5.818 2.568a8.355 8.355 0 006.423.115l7.865-3.144a14.93 14.93 0 0111.337.076l7.211 2.992a8.33 8.33 0 006.548-.087l5.587-2.481a15.018 15.018 0 0112.72.24l3.991 1.962a8.274 8.274 0 006.933.173l5.933-2.558a15.047 15.047 0 0112.211.144l4.51 2.068a8.297 8.297 0 007.577-.337l1.154-.663a14.99 14.99 0 0114.173-.395l2.961 1.482a8.256 8.256 0 007.077.163l4.664-2.077a15.08 15.08 0 0113.673.75l1.153.673a8.307 8.307 0 007.635.375l4.481-2.058a15.017 15.017 0 0112.134-.173l6.029 2.558a8.279 8.279 0 007.116-.298l2.798-1.481c4.125-2.183 8.942-2.328 13.202-.414l4.605 2.078a8.27 8.27 0 007.174-.164l2.625-1.337a14.994 14.994 0 0114.269.347l.75.432a8.252 8.252 0 007.99.135l2.106-1.116a14.926 14.926 0 0113.038-.481l5.914 2.588a8.246 8.246 0 006.221.173l8.808-3.289a15.034 15.034 0 0112.067.682l3.712 1.885a8.23 8.23 0 007.125.193l5.721-2.539a14.941 14.941 0 0111.355-.347l9.029 3.376a8.318 8.318 0 006.356-.231l4.76-2.183c1.961-.904 4.279-1.356 6.913-1.356v6.732c-1.654 0-3.029.251-4.096.741l-4.76 2.183a15.135 15.135 0 01-11.519.423l-9.029-3.375a8.23 8.23 0 00-6.269.192l-5.721 2.539a14.97 14.97 0 01-12.914-.337L317 111.65a8.3 8.3 0 00-6.664-.375l-8.807 3.289c-1.721.626-3.5.943-5.269.943zM296.26 132.819c-2.049 0-4.087-.424-6.02-1.27l-5.913-2.587a8.247 8.247 0 00-7.192.26l-2.106 1.115a14.947 14.947 0 01-14.471-.24l-.75-.433a8.262 8.262 0 00-7.875-.192l-2.625 1.337a14.966 14.966 0 01-13 .307l-4.606-2.077a8.233 8.233 0 00-7.289.231l-2.798 1.481a14.95 14.95 0 01-12.884.548l-6.029-2.558a8.313 8.313 0 00-6.692.096l-4.481 2.058a15.04 15.04 0 01-13.837-.673l-1.154-.673a8.332 8.332 0 00-7.548-.414l-4.663 2.077a14.99 14.99 0 01-12.817-.288l-2.962-1.481a8.253 8.253 0 00-7.817.221l-1.154.664a15.063 15.063 0 01-13.721.606l-4.51-2.068a8.27 8.27 0 00-6.74-.077l-5.933 2.558a14.99 14.99 0 01-12.567-.317l-3.99-1.962a8.262 8.262 0 00-7.02-.135l-5.586 2.481a15.104 15.104 0 01-11.856.154l-7.212-2.991a8.253 8.253 0 00-6.26-.038l-7.865 3.145a15.111 15.111 0 01-11.634-.202l-5.837-2.587a8.287 8.287 0 00-7 .144l-3.221 1.577a14.977 14.977 0 01-14.192-.51c-2.077-1.211-3.654-1.644-4.443-1.644v-6.732c2.847 0 5.827 1.394 7.837 2.558a8.268 8.268 0 007.836.279l3.222-1.578a14.964 14.964 0 0112.682-.259l5.818 2.568a8.355 8.355 0 006.423.115l7.865-3.145a14.93 14.93 0 0111.337.077l7.211 2.991a8.325 8.325 0 006.548-.086l5.587-2.482a15.018 15.018 0 0112.72.241l3.991 1.962a8.278 8.278 0 006.933.173l5.933-2.558a15.039 15.039 0 0112.211.144l4.51 2.068a8.303 8.303 0 007.577-.337l1.154-.664a14.993 14.993 0 0114.173-.394l2.961 1.481a8.256 8.256 0 007.077.164l4.664-2.078a15.087 15.087 0 0113.673.75l1.153.674a8.307 8.307 0 007.635.375l4.481-2.058a15.017 15.017 0 0112.134-.174l6.029 2.559a8.317 8.317 0 007.116-.298l2.798-1.482c4.125-2.183 8.942-2.327 13.202-.413l4.605 2.077a8.27 8.27 0 007.174-.163l2.625-1.337a14.992 14.992 0 0114.269.346l.75.433a8.255 8.255 0 007.99.135l2.106-1.116a14.926 14.926 0 0113.038-.481l5.914 2.587a8.241 8.241 0 006.221.173l8.808-3.289a15.038 15.038 0 0112.067.683l3.712 1.885a8.26 8.26 0 007.125.192l5.721-2.539a14.936 14.936 0 0111.355-.346l9.029 3.376a8.323 8.323 0 006.356-.231l4.76-2.183c1.961-.904 4.279-1.356 6.913-1.356v6.732c-1.654 0-3.029.25-4.096.741l-4.76 2.183a15.135 15.135 0 01-11.519.423l-9.029-3.376a8.235 8.235 0 00-6.269.193l-5.721 2.539a14.976 14.976 0 01-12.914-.337L317 128.962a8.296 8.296 0 00-6.664-.375l-8.807 3.289c-1.721.625-3.5.943-5.269.943zM296.26 150.13c-2.049 0-4.087-.423-6.02-1.269l-5.913-2.587a8.244 8.244 0 00-7.192.259l-2.106 1.116a14.948 14.948 0 01-14.471-.241l-.75-.432a8.262 8.262 0 00-7.875-.193l-2.625 1.337a14.963 14.963 0 01-13 .308l-4.606-2.077a8.236 8.236 0 00-7.289.23l-2.798 1.481a14.985 14.985 0 01-12.884.549l-6.029-2.559a8.31 8.31 0 00-6.692.097l-4.481 2.058a15.038 15.038 0 01-13.837-.674l-1.154-.673a8.332 8.332 0 00-7.548-.413l-4.663 2.077a14.994 14.994 0 01-12.817-.288l-2.962-1.482a8.255 8.255 0 00-7.817.222l-1.154.663a15.057 15.057 0 01-13.721.606l-4.51-2.068a8.274 8.274 0 00-6.74-.077l-5.933 2.559a14.986 14.986 0 01-12.567-.318l-3.99-1.962a8.266 8.266 0 00-7.02-.134l-5.586 2.481a15.104 15.104 0 01-11.856.154l-7.212-2.991a8.253 8.253 0 00-6.26-.039l-7.865 3.145a15.107 15.107 0 01-11.634-.202l-5.837-2.587a8.287 8.287 0 00-7 .145l-3.221 1.577a14.98 14.98 0 01-14.192-.51c-2.077-1.212-3.654-1.645-4.443-1.645v-6.732c2.847 0 5.827 1.395 7.837 2.558a8.265 8.265 0 007.836.279l3.222-1.577a14.968 14.968 0 0112.682-.26l5.818 2.568a8.355 8.355 0 006.423.116l7.865-3.145a14.926 14.926 0 0111.337.077l7.211 2.991a8.33 8.33 0 006.548-.087l5.587-2.481a14.982 14.982 0 0112.72.24l3.991 1.962a8.274 8.274 0 006.933.173l5.933-2.558a15.047 15.047 0 0112.211.144l4.51 2.068a8.3 8.3 0 007.577-.336l1.154-.664a14.988 14.988 0 0114.173-.394l2.961 1.481a8.256 8.256 0 007.077.163l4.664-2.077a15.08 15.08 0 0113.673.75l1.153.673a8.304 8.304 0 007.635.375l4.481-2.058a15.017 15.017 0 0112.134-.173l6.029 2.558a8.31 8.31 0 007.116-.298l2.798-1.481c4.125-2.183 8.942-2.327 13.202-.413l4.605 2.077a8.266 8.266 0 007.174-.164l2.625-1.336a14.992 14.992 0 0114.269.346l.75.433a8.255 8.255 0 007.99.134L274 140.59a14.92 14.92 0 0113.038-.481l5.914 2.587a8.246 8.246 0 006.221.173l8.808-3.289a15.03 15.03 0 0112.067.683l3.712 1.885a8.233 8.233 0 007.125.192l5.721-2.539a14.936 14.936 0 0111.355-.346l9.029 3.376a8.327 8.327 0 006.356-.231l4.76-2.183c1.961-.905 4.279-1.357 6.913-1.357v6.733c-1.654 0-3.029.25-4.096.74l-4.76 2.183a15.13 15.13 0 01-11.519.424l-9.029-3.376a8.23 8.23 0 00-6.269.192l-5.721 2.539a14.973 14.973 0 01-12.914-.336L317 146.274a8.291 8.291 0 00-6.664-.375l-8.807 3.289c-1.721.625-3.5.942-5.269.942zM296.26 167.442c-2.049 0-4.087-.423-6.02-1.27l-5.913-2.587a8.247 8.247 0 00-7.192.26l-2.106 1.116a14.948 14.948 0 01-14.471-.241l-.75-.433a8.262 8.262 0 00-7.875-.192l-2.625 1.337a14.966 14.966 0 01-13 .308l-4.606-2.078a8.233 8.233 0 00-7.289.231l-2.798 1.481a14.947 14.947 0 01-12.884.548l-6.029-2.558a8.313 8.313 0 00-6.692.096l-4.481 2.058a15.04 15.04 0 01-13.837-.673l-1.154-.673a8.332 8.332 0 00-7.548-.414l-4.663 2.078a14.994 14.994 0 01-12.817-.289l-2.962-1.481a8.253 8.253 0 00-7.817.221l-1.154.664a15.057 15.057 0 01-13.721.606l-4.51-2.068a8.27 8.27 0 00-6.74-.077l-5.933 2.558a14.986 14.986 0 01-12.567-.317l-3.99-1.962a8.262 8.262 0 00-7.02-.135l-5.586 2.482a15.108 15.108 0 01-11.856.154l-7.212-2.991a8.248 8.248 0 00-6.26-.039l-7.865 3.145a15.107 15.107 0 01-11.634-.202l-5.837-2.587a8.287 8.287 0 00-7 .144l-3.221 1.577a14.98 14.98 0 01-14.192-.509c-2.077-1.212-3.654-1.645-4.443-1.645v-6.732c2.847 0 5.827 1.394 7.837 2.558a8.268 8.268 0 007.836.279l3.222-1.577a14.968 14.968 0 0112.682-.26l5.818 2.568a8.355 8.355 0 006.423.115l7.865-3.145a14.935 14.935 0 0111.337.077l7.211 2.991a8.325 8.325 0 006.548-.086l5.587-2.481a14.982 14.982 0 0112.72.24l3.991 1.962a8.278 8.278 0 006.933.173l5.933-2.558a15.043 15.043 0 0112.211.144l4.51 2.068a8.303 8.303 0 007.577-.337l1.154-.663a14.99 14.99 0 0114.173-.395l2.961 1.481a8.253 8.253 0 007.077.164l4.664-2.078a15.084 15.084 0 0113.673.751l1.153.673a8.277 8.277 0 007.635.375l4.481-2.058a15.013 15.013 0 0112.134-.173l6.029 2.558a8.279 8.279 0 007.116-.298l2.798-1.481c4.125-2.183 8.942-2.328 13.202-.414l4.605 2.078a8.27 8.27 0 007.174-.164l2.625-1.337a14.997 14.997 0 0114.269.346l.75.433a8.279 8.279 0 007.99.135l2.106-1.116a14.926 14.926 0 0113.038-.481l5.914 2.587a8.246 8.246 0 006.221.174l8.808-3.29a15.038 15.038 0 0112.067.683l3.712 1.885a8.23 8.23 0 007.125.193l5.721-2.539a14.932 14.932 0 0111.355-.347l9.029 3.376a8.318 8.318 0 006.356-.231l4.76-2.183c1.961-.904 4.279-1.356 6.913-1.356v6.732c-1.654 0-3.029.25-4.096.741l-4.76 2.183a15.135 15.135 0 01-11.519.423l-9.029-3.376a8.235 8.235 0 00-6.269.193l-5.721 2.539a14.976 14.976 0 01-12.914-.337L317 163.585a8.3 8.3 0 00-6.664-.375l-8.807 3.289c-1.721.625-3.5.943-5.269.943zM296.26 184.753c-2.049 0-4.087-.423-6.02-1.269l-5.913-2.587a8.244 8.244 0 00-7.192.26l-2.106 1.115a14.947 14.947 0 01-14.471-.24l-.75-.433a8.259 8.259 0 00-7.875-.192l-2.625 1.336a14.963 14.963 0 01-13 .308l-4.606-2.077a8.233 8.233 0 00-7.289.231l-2.798 1.481a14.95 14.95 0 01-12.884.548l-6.029-2.558a8.309 8.309 0 00-6.692.096l-4.481 2.058a15.04 15.04 0 01-13.837-.673l-1.154-.673a8.332 8.332 0 00-7.548-.414l-4.663 2.077a14.99 14.99 0 01-12.817-.288l-2.962-1.481a8.253 8.253 0 00-7.817.221l-1.154.664a15.06 15.06 0 01-13.721.605l-4.51-2.067a8.27 8.27 0 00-6.74-.077l-5.933 2.558a14.99 14.99 0 01-12.567-.317l-3.99-1.962a8.262 8.262 0 00-7.02-.135l-5.586 2.481a15.104 15.104 0 01-11.856.154l-7.212-2.991a8.248 8.248 0 00-6.26-.038l-7.865 3.145a15.116 15.116 0 01-11.634-.202l-5.837-2.587a8.287 8.287 0 00-7 .144l-3.221 1.577a14.977 14.977 0 01-14.192-.51c-2.077-1.211-3.654-1.644-4.443-1.644v-6.733c2.847 0 5.827 1.395 7.837 2.559a8.268 8.268 0 007.836.279l3.222-1.578a14.964 14.964 0 0112.682-.259l5.818 2.568a8.36 8.36 0 006.423.115l7.865-3.145a14.926 14.926 0 0111.337.077l7.211 2.991a8.32 8.32 0 006.548-.087l5.587-2.481a15.018 15.018 0 0112.72.241l3.991 1.962a8.282 8.282 0 006.933.173l5.933-2.559a15.043 15.043 0 0112.211.145l4.51 2.067a8.3 8.3 0 007.577-.336l1.154-.664a14.99 14.99 0 0114.173-.394l2.961 1.481a8.253 8.253 0 007.077.163l4.664-2.077a15.087 15.087 0 0113.673.75l1.153.673a8.304 8.304 0 007.635.376l4.481-2.059a15.017 15.017 0 0112.134-.173l6.029 2.559a8.279 8.279 0 007.116-.299l2.798-1.481c4.125-2.183 8.942-2.327 13.202-.413l4.605 2.077a8.27 8.27 0 007.174-.163l2.625-1.337a14.992 14.992 0 0114.269.346l.75.433a8.252 8.252 0 007.99.134l2.106-1.115a14.923 14.923 0 0113.038-.481l5.914 2.587a8.241 8.241 0 006.221.173l8.808-3.289a15.038 15.038 0 0112.067.683l3.712 1.885a8.23 8.23 0 007.125.192l5.721-2.539a14.936 14.936 0 0111.355-.346l9.029 3.376a8.323 8.323 0 006.356-.231l4.76-2.183c1.961-.904 4.279-1.356 6.913-1.356v6.732c-1.654 0-3.029.25-4.096.741l-4.76 2.183a15.135 15.135 0 01-11.519.423l-9.029-3.376a8.24 8.24 0 00-6.269.192l-5.721 2.539a14.973 14.973 0 01-12.914-.336L317 180.897a8.296 8.296 0 00-6.664-.375l-8.807 3.289c-1.721.625-3.5.942-5.269.942zM296.26 202.065c-2.049 0-4.087-.423-6.02-1.269l-5.913-2.588a8.247 8.247 0 00-7.192.26l-2.106 1.116a14.948 14.948 0 01-14.471-.241l-.75-.432a8.262 8.262 0 00-7.875-.193l-2.625 1.337a14.966 14.966 0 01-13 .308l-4.606-2.078a8.233 8.233 0 00-7.289.231l-2.798 1.481a14.95 14.95 0 01-12.884.549l-6.029-2.559a8.313 8.313 0 00-6.692.096l-4.481 2.059a15.04 15.04 0 01-13.837-.674l-1.154-.673a8.328 8.328 0 00-7.548-.413l-4.663 2.077a14.99 14.99 0 01-12.817-.289l-2.962-1.481a8.255 8.255 0 00-7.817.222l-1.154.663a15.057 15.057 0 01-13.721.606l-4.51-2.068a8.27 8.27 0 00-6.74-.077l-5.933 2.559a14.99 14.99 0 01-12.567-.318l-3.99-1.962a8.259 8.259 0 00-7.02-.134l-5.586 2.481a15.104 15.104 0 01-11.856.154l-7.212-2.991a8.248 8.248 0 00-6.26-.039l-7.865 3.145a15.107 15.107 0 01-11.634-.202l-5.837-2.587a8.29 8.29 0 00-7 .144l-3.221 1.578a14.98 14.98 0 01-14.192-.51c-2.077-1.212-3.654-1.645-4.443-1.645v-6.732c2.847 0 5.827 1.395 7.837 2.558a8.268 8.268 0 007.836.279l3.222-1.577a14.968 14.968 0 0112.682-.26l5.818 2.568a8.355 8.355 0 006.423.116l7.865-3.145a14.926 14.926 0 0111.337.077l7.211 2.991a8.33 8.33 0 006.548-.087l5.587-2.481a15.018 15.018 0 0112.72.24l3.991 1.962a8.274 8.274 0 006.933.173l5.933-2.558a15.047 15.047 0 0112.211.144l4.51 2.068a8.297 8.297 0 007.577-.337l1.154-.663a14.988 14.988 0 0114.173-.394l2.961 1.481a8.256 8.256 0 007.077.163l4.664-2.077a15.08 15.08 0 0113.673.75l1.153.673a8.307 8.307 0 007.635.375l4.481-2.058a15.017 15.017 0 0112.134-.173l6.029 2.558a8.31 8.31 0 007.116-.298l2.798-1.481c4.125-2.183 8.942-2.327 13.202-.414l4.605 2.078a8.27 8.27 0 007.174-.164l2.625-1.337a14.994 14.994 0 0114.269.347l.75.432a8.252 8.252 0 007.99.135l2.106-1.116a14.923 14.923 0 0113.038-.48l5.914 2.587a8.246 8.246 0 006.221.173l8.808-3.289a15.034 15.034 0 0112.067.682l3.712 1.886a8.233 8.233 0 007.125.192l5.721-2.539a14.936 14.936 0 0111.355-.346l9.029 3.375a8.323 8.323 0 006.356-.23l4.76-2.184c1.961-.904 4.279-1.356 6.913-1.356v6.733c-1.654 0-3.029.25-4.096.74l-4.76 2.183a15.135 15.135 0 01-11.519.424l-9.029-3.376a8.23 8.23 0 00-6.269.192l-5.721 2.539a14.973 14.973 0 01-12.914-.336L317 198.208a8.3 8.3 0 00-6.664-.375l-8.807 3.29c-1.721.625-3.5.942-5.269.942zM296.26 219.377c-2.049 0-4.087-.423-6.02-1.27l-5.913-2.587a8.247 8.247 0 00-7.192.26l-2.106 1.115a14.947 14.947 0 01-14.471-.24l-.75-.433a8.262 8.262 0 00-7.875-.192l-2.625 1.337a14.966 14.966 0 01-13 .307l-4.606-2.077a8.233 8.233 0 00-7.289.231l-2.798 1.481a14.95 14.95 0 01-12.884.548l-6.029-2.558a8.313 8.313 0 00-6.692.096l-4.481 2.058a15.04 15.04 0 01-13.837-.673l-1.154-.673a8.332 8.332 0 00-7.548-.414l-4.663 2.078a14.994 14.994 0 01-12.817-.289l-2.962-1.481a8.253 8.253 0 00-7.817.221l-1.154.664a15.06 15.06 0 01-13.721.606l-4.51-2.068a8.27 8.27 0 00-6.74-.077l-5.933 2.558a14.986 14.986 0 01-12.567-.317l-3.99-1.962a8.262 8.262 0 00-7.02-.135l-5.586 2.482a15.108 15.108 0 01-11.856.153l-7.212-2.991a8.253 8.253 0 00-6.26-.038l-7.865 3.145a15.107 15.107 0 01-11.634-.202l-5.837-2.587a8.287 8.287 0 00-7 .144l-3.221 1.577a14.98 14.98 0 01-14.192-.509C2.356 215.453.779 215.02-.01 215.02v-6.732c2.847 0 5.827 1.394 7.837 2.558a8.268 8.268 0 007.836.279l3.222-1.577a14.964 14.964 0 0112.682-.26l5.818 2.568a8.355 8.355 0 006.423.115l7.865-3.145a14.93 14.93 0 0111.337.077l7.211 2.991a8.325 8.325 0 006.548-.086l5.587-2.482a14.985 14.985 0 0112.72.241l3.991 1.962a8.278 8.278 0 006.933.173l5.933-2.558a15.043 15.043 0 0112.211.144l4.51 2.068a8.303 8.303 0 007.577-.337l1.154-.664a14.993 14.993 0 0114.173-.394l2.961 1.481a8.253 8.253 0 007.077.164l4.664-2.078a15.084 15.084 0 0113.673.751l1.153.673a8.307 8.307 0 007.635.375l4.481-2.058a15.013 15.013 0 0112.134-.173l6.029 2.558a8.317 8.317 0 007.116-.298l2.798-1.481c4.125-2.184 8.942-2.328 13.202-.414l4.605 2.077a8.27 8.27 0 007.174-.163l2.625-1.337a14.992 14.992 0 0114.269.346l.75.433a8.252 8.252 0 007.99.135l2.106-1.116a14.926 14.926 0 0113.038-.481l5.914 2.587a8.241 8.241 0 006.221.173l8.808-3.289a15.038 15.038 0 0112.067.683l3.712 1.885a8.226 8.226 0 007.125.192l5.721-2.539a14.936 14.936 0 0111.355-.346l9.029 3.376a8.323 8.323 0 006.356-.231l4.76-2.183c1.961-.904 4.279-1.356 6.913-1.356v6.732c-1.654 0-3.029.25-4.096.741l-4.76 2.183a15.135 15.135 0 01-11.519.423l-9.029-3.376a8.235 8.235 0 00-6.269.193l-5.721 2.539a14.976 14.976 0 01-12.914-.337L317 215.52a8.3 8.3 0 00-6.664-.375l-8.807 3.289c-1.721.625-3.5.943-5.269.943z"/><path opacity=".6" d="M296.26 236.688c-2.049 0-4.087-.423-6.02-1.269l-5.913-2.587a8.244 8.244 0 00-7.192.259l-2.106 1.116a14.95 14.95 0 01-14.471-.24l-.75-.433a8.262 8.262 0 00-7.875-.193l-2.625 1.337a14.963 14.963 0 01-13 .308l-4.606-2.077a8.236 8.236 0 00-7.289.23l-2.798 1.482a14.954 14.954 0 01-12.884.548l-6.029-2.558a8.305 8.305 0 00-6.692.096l-4.481 2.058a15.04 15.04 0 01-13.837-.673l-1.154-.674a8.335 8.335 0 00-7.548-.413l-4.663 2.077a14.99 14.99 0 01-12.817-.288l-2.962-1.481a8.253 8.253 0 00-7.817.221l-1.154.663a15.057 15.057 0 01-13.721.606l-4.51-2.067a8.27 8.27 0 00-6.74-.077l-5.933 2.558a14.986 14.986 0 01-12.567-.318l-3.99-1.962a8.266 8.266 0 00-7.02-.134l-5.586 2.481a15.104 15.104 0 01-11.856.154l-7.212-2.991a8.248 8.248 0 00-6.26-.038l-7.865 3.144a15.111 15.111 0 01-11.634-.201l-5.837-2.588a8.287 8.287 0 00-7 .145l-3.221 1.577a14.977 14.977 0 01-14.192-.51c-2.077-1.212-3.654-1.644-4.443-1.644v-6.733c2.847 0 5.827 1.395 7.837 2.559a8.265 8.265 0 007.836.278l3.222-1.577a14.964 14.964 0 0112.682-.259l5.818 2.567a8.355 8.355 0 006.423.116l7.865-3.145a14.926 14.926 0 0111.337.077l7.211 2.991a8.325 8.325 0 006.548-.087l5.587-2.481a14.982 14.982 0 0112.72.24l3.991 1.962a8.278 8.278 0 006.933.174l5.933-2.559a15.043 15.043 0 0112.211.145l4.51 2.067a8.3 8.3 0 007.577-.336l1.154-.664a14.99 14.99 0 0114.173-.394l2.961 1.481a8.256 8.256 0 007.077.163l4.664-2.077a15.087 15.087 0 0113.673.75l1.153.673a8.304 8.304 0 007.635.375l4.481-2.058a15.017 15.017 0 0112.134-.173l6.029 2.558a8.279 8.279 0 007.116-.298l2.798-1.481c4.125-2.183 8.942-2.327 13.202-.413l4.605 2.077a8.27 8.27 0 007.174-.163l2.625-1.337a14.992 14.992 0 0114.269.346l.75.433a8.255 8.255 0 007.99.134l2.106-1.115a14.92 14.92 0 0113.038-.481l5.914 2.587a8.241 8.241 0 006.221.173l8.808-3.289a15.03 15.03 0 0112.067.683l3.712 1.885a8.23 8.23 0 007.125.192l5.721-2.539a14.936 14.936 0 0111.355-.346l9.029 3.376a8.327 8.327 0 006.356-.231l4.76-2.183c1.961-.904 4.279-1.356 6.913-1.356v6.732c-1.654 0-3.029.25-4.096.74l-4.76 2.184a15.135 15.135 0 01-11.519.423l-9.029-3.376a8.24 8.24 0 00-6.269.192l-5.721 2.539a14.973 14.973 0 01-12.914-.336L317 232.832a8.291 8.291 0 00-6.664-.375l-8.807 3.289c-1.721.625-3.5.942-5.269.942z"/><path d="M296.26 254c-2.049 0-4.087-.423-6.02-1.27l-5.913-2.587a8.247 8.247 0 00-7.192.26l-2.106 1.116a14.948 14.948 0 01-14.471-.241l-.75-.433a8.264 8.264 0 00-7.875-.192l-2.625 1.337a14.966 14.966 0 01-13 .308l-4.606-2.078a8.233 8.233 0 00-7.289.231l-2.798 1.481a14.981 14.981 0 01-12.884.548l-6.029-2.558a8.313 8.313 0 00-6.692.096l-4.481 2.058a15.04 15.04 0 01-13.837-.673l-1.154-.673a8.332 8.332 0 00-7.548-.414l-4.663 2.078a14.994 14.994 0 01-12.817-.289l-2.962-1.481a8.258 8.258 0 00-7.817.221l-1.154.664a15.057 15.057 0 01-13.721.606l-4.51-2.068a8.27 8.27 0 00-6.74-.077l-5.933 2.559a14.99 14.99 0 01-12.567-.318l-3.99-1.962a8.262 8.262 0 00-7.02-.135l-5.586 2.482a15.108 15.108 0 01-11.856.154l-7.212-2.991a8.248 8.248 0 00-6.26-.039l-7.865 3.145a15.107 15.107 0 01-11.634-.202l-5.837-2.587a8.287 8.287 0 00-7 .144l-3.221 1.578a14.982 14.982 0 01-14.192-.51c-2.077-1.212-3.654-1.645-4.443-1.645v-6.732c2.847 0 5.827 1.394 7.837 2.558a8.268 8.268 0 007.836.279l3.222-1.577a14.968 14.968 0 0112.682-.26l5.818 2.568a8.355 8.355 0 006.423.115l7.865-3.144a14.93 14.93 0 0111.337.076l7.211 2.992a8.33 8.33 0 006.548-.087l5.587-2.481a15.018 15.018 0 0112.72.24l3.991 1.962a8.274 8.274 0 006.933.173l5.933-2.558a15.047 15.047 0 0112.211.144l4.51 2.068a8.297 8.297 0 007.577-.337l1.154-.663a14.99 14.99 0 0114.173-.395l2.961 1.481a8.253 8.253 0 007.077.164l4.664-2.077a15.08 15.08 0 0113.673.75l1.153.673a8.307 8.307 0 007.635.375l4.481-2.058a15.017 15.017 0 0112.134-.173l6.029 2.558a8.314 8.314 0 007.116-.298l2.798-1.481a14.926 14.926 0 0113.202-.414l4.605 2.078a8.27 8.27 0 007.174-.164l2.625-1.337a14.994 14.994 0 0114.269.347l.75.432a8.252 8.252 0 007.99.135l2.106-1.116a14.926 14.926 0 0113.038-.481l5.914 2.588a8.25 8.25 0 006.221.173l8.808-3.289a15.034 15.034 0 0112.067.682l3.712 1.885a8.23 8.23 0 007.125.193l5.721-2.539a14.941 14.941 0 0111.355-.347l9.029 3.376a8.318 8.318 0 006.356-.231l4.76-2.183c1.961-.904 4.279-1.356 6.913-1.356v6.732c-1.654 0-3.029.251-4.096.741l-4.76 2.183a15.135 15.135 0 01-11.519.423l-9.029-3.375a8.23 8.23 0 00-6.269.192l-5.721 2.539a14.97 14.97 0 01-12.914-.337L317 250.143a8.3 8.3 0 00-6.664-.375l-8.807 3.289c-1.721.626-3.5.943-5.269.943zM21.875 233.909a4.81 4.81 0 00-4.808-4.809c-3.528 0-5.73 2.164-5.73 4.819 0 2.654 2.202 4.799 5.73 4.799a4.81 4.81 0 004.808-4.809z"/><path d="M21.23 231.745c2.789 0 5.049-2.153 5.049-4.809s-2.26-4.809-5.048-4.809c-2.788 0-5.048 2.153-5.048 4.809s2.26 4.809 5.048 4.809z"/><path d="M30.885 233.909c0-2.655-2.674-4.809-5.327-4.809a4.81 4.81 0 00-4.808 4.809c0 2.654 2.163 4.53 4.808 4.809 3.01.317 5.327-2.155 5.327-4.809z"/><path d="M20.154 235.871l-.52 8.492 4.366-.548-1.808-8.185-2.038.241zM43.827 237.66a4.53 4.53 0 00-4.529-4.53c-3.327 0-5.404 2.039-5.404 4.549 0 2.51 2.077 4.52 5.404 4.52a4.545 4.545 0 004.529-4.539z"/><path d="M43.221 235.611c2.629 0 4.76-2.028 4.76-4.53 0-2.501-2.131-4.53-4.76-4.53-2.628 0-4.76 2.029-4.76 4.53 0 2.502 2.132 4.53 4.76 4.53z"/><path d="M52.327 237.66c0-2.501-2.52-4.53-5.02-4.53a4.53 4.53 0 00-4.528 4.53c0 2.5 2.038 4.27 4.529 4.53 2.827.298 5.019-2.03 5.019-4.53z"/><path d="M42.202 239.506l-.49 8.012 4.115-.52-1.702-7.713-1.923.221zM137.173 236.506a4.81 4.81 0 00-4.808-4.809c-3.528 0-5.73 2.164-5.73 4.818 0 2.655 2.202 4.799 5.73 4.799a4.81 4.81 0 004.808-4.808z"/><path d="M136.529 234.342c2.788 0 5.048-2.153 5.048-4.809s-2.26-4.809-5.048-4.809c-2.788 0-5.048 2.153-5.048 4.809s2.26 4.809 5.048 4.809z"/><path d="M146.192 236.506c0-2.655-2.673-4.809-5.327-4.809a4.81 4.81 0 00-4.807 4.809c0 2.654 2.163 4.53 4.807 4.808 3 .318 5.327-2.154 5.327-4.808z"/><path d="M135.452 238.468l-.519 8.502 4.365-.558-1.808-8.185-2.038.241zM158.683 240.189a3.247 3.247 0 00-3.25-3.251c-2.385 0-3.875 1.462-3.875 3.261 0 1.798 1.49 3.241 3.875 3.241a3.26 3.26 0 003.25-3.251z"/><path d="M158.25 238.718c1.885 0 3.413-1.456 3.413-3.251s-1.528-3.251-3.413-3.251c-1.885 0-3.414 1.456-3.414 3.251s1.529 3.251 3.414 3.251z"/><path d="M164.779 240.189c0-1.798-1.808-3.251-3.606-3.251a3.247 3.247 0 00-3.25 3.251c0 1.799 1.471 3.068 3.25 3.251 2.038.211 3.606-1.462 3.606-3.251z"/><path d="M157.509 241.516l-.346 5.742 2.952-.375-1.221-5.53-1.385.163zM178.75 238.102a3.247 3.247 0 00-3.25-3.251c-2.385 0-3.875 1.462-3.875 3.261 0 1.798 1.49 3.241 3.875 3.241a3.24 3.24 0 003.25-3.251z"/><path d="M178.317 236.64c1.885 0 3.414-1.455 3.414-3.25 0-1.796-1.529-3.251-3.414-3.251-1.885 0-3.413 1.455-3.413 3.251 0 1.795 1.528 3.25 3.413 3.25z"/><path d="M184.846 238.102c0-1.798-1.808-3.251-3.606-3.251a3.247 3.247 0 00-3.25 3.251c0 1.799 1.472 3.068 3.25 3.251 2.039.221 3.606-1.452 3.606-3.251z"/><path d="M177.586 239.429l-.355 5.752 2.961-.375-1.221-5.54-1.385.163zM265.481 239.728a3.246 3.246 0 00-3.25-3.251c-2.385 0-3.875 1.462-3.875 3.26 0 1.799 1.49 3.241 3.875 3.241a3.246 3.246 0 003.25-3.25z"/><path d="M265.048 238.256c1.885 0 3.413-1.455 3.413-3.251 0-1.795-1.528-3.25-3.413-3.25-1.885 0-3.413 1.455-3.413 3.25 0 1.796 1.528 3.251 3.413 3.251z"/><path d="M271.586 239.728c0-1.799-1.807-3.251-3.605-3.251a3.246 3.246 0 00-3.25 3.251c0 1.798 1.471 3.068 3.25 3.25 2.029.221 3.605-1.452 3.605-3.25z"/><path d="M264.317 241.055l-.356 5.751 2.962-.375-1.221-5.54-1.385.164z"/></g><defs><clipPath id="clip0"><path fill="#fff" d="M0 0h375v254H0z"/></clipPath></defs></svg>