<svg version="1.1" xmlns="http://www.w3.org/2000/svg" xmlns:xlink="http://www.w3.org/1999/xlink" preserveAspectRatio="xMidYMid meet" viewBox="0 0 256 256" width="256" height="256"><circle cx="128" cy="128" r="128" stroke-width="3" fill="#1e2126"/><path d="M68.69 163.2C66.84 163.2 52.04 163.2 50.19 163.2C50.19 144.48 50.19 134.08 50.19 132C50.19 130.61 49.65 129.44 48.64 128.43C47.63 127.41 46.45 126.88 45.07 126.88C44 126.88 35.36 126.88 34.29 126.88C32.91 126.88 31.79 127.41 30.77 128.43C29.81 129.44 29.33 130.61 29.33 132C29.33 134.08 29.33 144.48 29.33 163.2C28.09 163.2 21.87 163.2 10.67 163.2L10.67 85.81C21.87 85.81 28.09 85.81 29.33 85.81C29.33 100.91 29.33 109.33 29.33 110.99C29.65 110.88 30.29 110.72 31.36 110.4C32.43 110.13 33.87 109.97 35.63 109.97C36.8 109.97 46.35 109.97 47.57 109.97C53.87 109.97 58.99 111.57 62.88 114.72C66.72 117.87 68.69 122.83 68.69 129.49C68.69 131.73 68.69 142.99 68.69 163.2ZM140.27 142.61C140.27 148.75 138.56 153.71 135.25 157.49C131.89 161.28 127.31 163.2 121.6 163.2C119.79 163.2 105.07 163.2 103.25 163.2C96.8 163.2 91.68 161.39 87.84 157.87C84 154.29 82.08 149.23 82.08 142.61C82.08 140.43 82.08 129.55 82.08 109.97C83.95 109.97 98.88 109.97 100.75 109.97C100.75 128.69 100.75 139.09 100.75 141.17C100.75 142.51 101.23 143.68 102.24 144.64C103.2 145.65 104.37 146.13 105.71 146.13C106.77 146.13 115.41 146.13 116.48 146.13C117.87 146.13 119.04 145.65 120.05 144.64C121.07 143.68 121.6 142.51 121.6 141.17C121.6 139.09 121.6 128.69 121.6 109.97C122.84 109.97 129.07 109.97 140.27 109.97C140.27 130.28 140.27 141.16 140.27 142.61ZM173.07 163.2L154.4 163.2L154.4 85.81L173.07 85.81L173.07 163.2ZM240.32 157.49C236.96 161.28 232.43 163.2 226.67 163.2C224.85 163.2 210.29 163.2 208.48 163.2C201.97 163.2 196.8 161.39 192.96 157.87C189.12 154.29 187.2 149.23 187.2 142.61C187.2 140.43 187.2 129.55 187.2 109.97C189.07 109.97 204 109.97 205.87 109.97C205.87 128.69 205.87 139.09 205.87 141.17C205.87 142.51 206.35 143.68 207.31 144.64C208.27 145.65 209.44 146.13 210.83 146.13C211.89 146.13 220.64 146.13 221.76 146.13C223.09 146.13 224.27 145.65 225.23 144.64C226.19 143.68 226.67 142.51 226.67 141.17C226.67 139.09 226.67 128.69 226.67 109.97C228.53 109.97 243.47 109.97 245.33 109.97C245.33 129.55 245.33 140.43 245.33 142.61C245.33 148.75 243.68 153.71 240.32 157.49Z" fill-opacity="1" fill="#1ce783" opacity="1"></path></svg>