<svg xmlns="http://www.w3.org/2000/svg" xmlns:xlink="http://www.w3.org/1999/xlink" version="1.1" width="256" height="256" viewBox="0 0 256 256" xml:space="preserve">
	<clipPath id="clipCircle">
    <circle r="128" cx="0" cy="0"/>
  </clipPath>
  <g transform="matrix(1 0 0 1 128 128)" clip-path="url(#clipCircle)">
    <g style="" vector-effect="non-scaling-stroke">
      <g transform="matrix(1 0 0 1 0 0)">
        <path style="stroke: none; stroke-width: 1; stroke-dasharray: none; stroke-linecap: butt; stroke-dashoffset: 0; stroke-linejoin: miter; stroke-miterlimit: 4; fill: rgb(28,32,46); fill-rule: nonzero; opacity: 1;" vector-effect="non-scaling-stroke" transform=" translate(-128, -128)" d="M 256 0 C 256 0 256 0 256 0 C 256 153.6 256 238.93 256 256 C 256 256 256 256 256 256 C 102.4 256 17.07 256 0 256 C 0 256 0 256 0 256 C 0 102.4 0 17.07 0 0 C 0 0 0 0 0 0 C 153.6 0 238.93 0 256 0 Z" stroke-linecap="round" />
      </g>
      <g transform="matrix(1 0 0 1 0 0)">
        <path style="stroke: rgb(0,0,0); stroke-opacity: 0; stroke-width: 1; stroke-dasharray: none; stroke-linecap: butt; stroke-dashoffset: 0; stroke-linejoin: miter; stroke-miterlimit: 4; fill: rgb(0,0,0); fill-opacity: 0; fill-rule: nonzero; opacity: 1;" vector-effect="non-scaling-stroke" transform=" translate(-128, -128)" d="M 256 0 C 256 0 256 0 256 0 C 256 153.6 256 238.93 256 256 C 256 256 256 256 256 256 C 102.4 256 17.07 256 0 256 C 0 256 0 256 0 256 C 0 102.4 0 17.07 0 0 C 0 0 0 0 0 0 C 153.6 0 238.93 0 256 0 Z" stroke-linecap="round" />
      </g>
      <g transform="matrix(1 0 0 1 -22.35 23.82)">
        <path style="stroke: none; stroke-width: 1; stroke-dasharray: none; stroke-linecap: butt; stroke-dashoffset: 0; stroke-linejoin: miter; stroke-miterlimit: 4; fill: rgb(255,255,255); fill-rule: nonzero; opacity: 1;" vector-effect="non-scaling-stroke" transform=" translate(-105.65, -151.82)" d="M 166.39 147.94 C 166.28 148.28 165.37 150.99 165.26 151.33 C 165.26 151.33 169.72 150.97 172.97 151.28 C 172.97 151.28 174.03 151.17 174.15 152.43 C 174.2 153.61 174.06 154.87 174.06 154.87 C 174.06 154.87 173.98 155.64 172.85 155.82 C 171.63 156.02 163.23 156.31 163.23 156.31 C 163.1 156.75 162 160.27 161.86 160.71 C 161.86 160.71 161.37 161.73 162.5 161.44 C 163.56 161.16 172.36 159.58 173.51 159.81 C 174.74 160.1 176.11 161.66 175.71 163.1 C 175.23 164.86 166.46 170.24 161.11 169.85 C 161.11 169.85 158.3 170.03 155.92 166.4 C 153.71 162.95 156.77 156.38 156.77 156.38 C 156.77 156.38 155.38 153.31 156.39 152.3 C 156.39 152.3 157.01 151.78 158.75 151.64 C 158.97 151.22 160.68 147.8 160.9 147.38 C 160.9 147.38 158.45 147.54 156.98 145.82 C 155.62 144.17 155.52 143.43 156.56 142.98 C 157.67 142.46 167.88 140.68 174.9 140.9 C 174.9 140.9 177.36 140.68 179.46 144.74 C 179.43 144.74 180.47 146.39 178.72 146.77 C 178.72 146.77 178.72 146.77 178.72 146.77 C 172.15 147.39 168.04 147.79 166.39 147.94 Z M 146.07 165.99 C 143.14 164.64 138.5 155.55 138.5 155.55 C 138.5 155.55 136.73 152.16 136.4 152.23 C 136.4 152.23 136.02 151.57 135.79 155.28 C 135.55 158.98 135.83 166.17 134.3 167.3 C 132.84 168.43 131.07 167.98 130.15 166.65 C 129.32 165.34 128.97 162.22 129.42 156.76 C 129.96 151.3 131.28 145.48 132.98 143.65 C 134.68 141.85 136.04 143.16 136.56 143.63 C 136.56 143.63 138.83 145.6 142.58 151.37 C 142.64 151.48 143.17 152.33 143.24 152.43 C 143.24 152.43 146.63 157.89 146.99 157.87 C 146.99 157.87 147.27 158.12 147.5 157.94 C 147.86 157.85 147.72 156.09 147.72 156.09 C 147.72 156.09 147.01 150.15 143.92 140.09 C 143.92 140.09 143.45 138.83 143.78 137.65 C 144.09 136.46 145.34 137.02 145.34 137.02 C 145.34 137.02 150.15 139.32 152.46 146.81 C 154.74 154.37 153.19 161.12 152.29 163.15 C 152.29 163.15 152.29 163.15 152.29 163.15 C 150.11 165.95 148.03 166.9 146.07 165.99 Z M 126 146.07 C 126 146.07 106.59 147.33 105.67 148.64 C 105.67 148.64 104.99 149.41 106.05 149.63 C 107.11 149.84 111.5 150.4 113.62 150.51 C 115.88 150.54 123.52 150.6 126.26 153.88 C 126.26 153.88 127.89 155.43 127.82 158.95 C 127.74 162.56 127.08 163.83 125.62 165.14 C 124.09 166.35 110.93 172 102.44 163.33 C 102.44 163.33 98.53 159.16 103.79 156 C 103.79 156 107.58 153.81 117.23 156.38 C 117.23 156.38 120.15 157.4 120.01 158.41 C 119.85 159.49 117.61 160.65 114.35 160.58 C 111.19 160.49 108.88 159.04 109.33 159.27 C 109.75 159.43 105.93 157.51 104.75 158.82 C 103.58 160.01 103.86 160.76 105.01 161.5 C 107.96 163.1 119.35 162.54 122.75 158.93 C 122.75 158.93 124.09 157.46 122.04 156.27 C 119.99 155.14 114.12 154.46 111.83 154.35 C 109.64 154.24 101.48 154.37 100.3 152.3 C 100.3 152.3 99.12 150.9 100.42 146.93 C 101.78 142.77 111.29 141.17 115.39 140.81 C 115.39 140.81 126.68 140.43 128.76 142.64 C 128.74 142.64 129.02 143.16 128.66 143.9 C 128.66 143.9 128.66 143.9 128.66 143.9 C 128.24 145.15 127.35 145.87 126 146.07 Z M 91.5 167.71 C 90.68 166.74 90.39 162.88 90.56 156.83 C 90.72 150.72 90.87 143.14 92.23 141.94 C 93.7 140.72 94.59 141.78 95.16 142.62 C 95.77 143.43 96.5 144.33 96.67 146.25 C 96.81 148.17 97.28 158.23 97.28 158.23 C 97.28 158.23 97.89 167.3 96.6 168.25 C 96.6 168.25 96.6 168.25 96.6 168.25 C 93.75 168.61 92.05 168.43 91.5 167.71 Z M 90.51 135.69 C 89.5 137.38 88.91 137.9 88.13 138.01 C 87 138.13 85.98 136.39 85.8 135.83 C 85.61 135.4 85.07 134.67 85.73 132.96 C 83.46 131.02 83.3 128.4 83.67 126.64 C 84.24 124.61 88.06 116.89 99.68 115.99 C 99.68 115.99 105.37 115.59 106.33 118.5 C 106.35 118.5 106.48 118.5 106.5 118.5 C 106.5 118.5 112.02 118.52 111.9 123.21 C 111.83 127.93 105.77 133.79 99.54 135.8 C 99.54 135.8 99.54 135.8 99.54 135.8 C 95.06 136.36 92.05 136.32 90.51 135.69 Z M 88.01 128.99 C 89.36 127.03 91.81 123.93 95.42 121.59 C 92.63 121.81 90.3 122.96 88.7 125.36 C 88.7 125.36 88.7 125.36 88.7 125.36 C 87.88 127.28 87.65 128.49 88.01 128.99 Z M 92.75 131.38 C 96.88 132.1 104.16 131.83 107.4 125.54 C 107.37 125.54 108.93 121.63 104.75 122.33 C 104.75 122.33 104.75 122.33 104.75 122.33 C 98.54 125.81 94.54 128.82 92.75 131.38 Z M 187.43 168.18 C 184.71 174.48 182.45 180.82 181.15 190.34 C 181.15 190.34 180.87 192.19 179.27 191.54 C 177.69 190.99 175.05 188.47 174.53 184.97 C 173.96 180.37 176.11 172.58 180.47 163.67 C 179.2 161.68 178.32 158.84 179.08 154.8 C 179.08 154.8 180.19 147.31 188.04 140.54 C 188.04 140.54 188.98 139.75 189.52 140 C 190.14 140.25 189.85 142.68 189.36 143.86 C 188.86 145.03 185.35 150.85 185.35 150.85 C 185.35 150.85 183.16 154.78 183.77 157.87 C 187.9 151.8 197.28 139.55 203.11 143.41 C 205.06 144.74 205.96 147.65 205.96 150.79 C 205.94 153.56 205.25 156.49 203.98 158.68 C 203.98 158.68 203.98 158.68 203.98 158.68 C 198.41 166.2 192.9 169.37 187.43 168.18 Z M 199.5 149.32 C 197.38 151.55 193.56 155.77 190.47 161.48 C 193.7 161.14 196.81 159.45 197.75 158.59 C 199.29 157.28 202.85 153.76 202.28 149.07 C 202.28 149.07 202.28 149.07 202.28 149.07 C 202.06 147.46 201.13 147.54 199.5 149.32 Z M 69.62 171.32 C 59.36 174.27 49.67 172.85 44.39 171.57 C 44.27 173.57 44.04 174.43 43.71 174.77 C 43.26 175.2 39.91 177.05 38.07 174.43 C 37.25 173.19 36.82 170.93 36.58 168.93 C 24.7 163.69 19.23 156.16 19.02 155.82 C 18.76 155.57 16.05 152.86 18.76 149.54 C 21.31 146.54 29.63 143.54 37.13 142.32 C 37.39 136.19 38.14 131.56 39.04 129.44 C 40.12 126.98 41.49 129.19 42.67 130.86 C 43.66 132.1 44.25 137.45 44.3 141.71 C 49.2 141.49 52.1 141.83 57.57 142.77 C 64.69 144.02 69.46 147.49 69.03 151.44 C 68.72 155.32 65 156.92 63.58 157.04 C 62.1 157.15 59.79 156.13 59.79 156.13 C 58.21 155.41 59.67 154.78 61.58 153.99 C 63.65 153.02 63.18 152.03 63.18 152.03 C 62.4 149.86 53.16 148.35 43.97 148.35 C 43.92 153.2 44.18 161.25 44.3 165.95 C 50.73 167.12 55.54 166.9 55.54 166.9 C 55.54 166.9 79.03 166.26 79.74 151.91 C 80.47 137.54 56.32 123.75 38.47 119.38 C 20.64 114.91 10.55 118.02 9.68 118.45 C 8.74 118.9 9.61 119.04 9.61 119.04 C 9.61 119.04 10.58 119.17 12.25 119.71 C 14.02 120.26 12.65 121.14 12.65 121.14 C 9.61 122.06 6.19 121.47 5.53 120.14 C 4.87 118.81 5.98 117.62 7.25 115.9 C 8.52 114.1 9.92 114.16 9.92 114.16 C 31.96 106.85 58.82 120.08 58.82 120.08 C 83.98 132.28 88.27 146.59 87.8 152.14 C 87.8 152.14 87.8 152.14 87.8 152.14 C 86.04 161.9 79.98 168.29 69.62 171.32 Z M 20.48 154.26 C 25.17 159.09 30.95 162.11 36.44 163.98 C 37.08 155.66 36.99 152.73 37.06 148.53 C 28.47 149.09 23.52 150.4 21.26 151.39 C 21.26 151.39 21.26 151.39 21.26 151.39 C 20.84 152.92 20.58 153.88 20.48 154.26 Z" stroke-linecap="round" />
      </g>
      <g transform="matrix(1 0 0 1 -22.35 23.82)">
        <path style="stroke: rgb(0,0,0); stroke-opacity: 0; stroke-width: 1; stroke-dasharray: none; stroke-linecap: butt; stroke-dashoffset: 0; stroke-linejoin: miter; stroke-miterlimit: 4; fill: rgb(0,0,0); fill-opacity: 0; fill-rule: nonzero; opacity: 1;" vector-effect="non-scaling-stroke" transform=" translate(-105.65, -151.82)" d="M 166.39 147.94 C 166.28 148.28 165.37 150.99 165.26 151.33 C 165.26 151.33 169.72 150.97 172.97 151.28 C 172.97 151.28 174.03 151.17 174.15 152.43 C 174.2 153.61 174.06 154.87 174.06 154.87 C 174.06 154.87 173.98 155.64 172.85 155.82 C 171.63 156.02 163.23 156.31 163.23 156.31 C 163.1 156.75 162 160.27 161.86 160.71 C 161.86 160.71 161.37 161.73 162.5 161.44 C 163.56 161.16 172.36 159.58 173.51 159.81 C 174.74 160.1 176.11 161.66 175.71 163.1 C 175.23 164.86 166.46 170.24 161.11 169.85 C 161.11 169.85 158.3 170.03 155.92 166.4 C 153.71 162.95 156.77 156.38 156.77 156.38 C 156.77 156.38 155.38 153.31 156.39 152.3 C 156.39 152.3 157.01 151.78 158.75 151.64 C 158.97 151.22 160.68 147.8 160.9 147.38 C 160.9 147.38 158.45 147.54 156.98 145.82 C 155.62 144.17 155.52 143.43 156.56 142.98 C 157.67 142.46 167.88 140.68 174.9 140.9 C 174.9 140.9 177.36 140.68 179.46 144.74 C 179.43 144.74 180.47 146.39 178.72 146.77 C 178.72 146.77 178.72 146.77 178.72 146.77 C 172.15 147.39 168.04 147.79 166.39 147.94 Z M 146.07 165.99 C 143.14 164.64 138.5 155.55 138.5 155.55 C 138.5 155.55 136.73 152.16 136.4 152.23 C 136.4 152.23 136.02 151.57 135.79 155.28 C 135.55 158.98 135.83 166.17 134.3 167.3 C 132.84 168.43 131.07 167.98 130.15 166.65 C 129.32 165.34 128.97 162.22 129.42 156.76 C 129.96 151.3 131.28 145.48 132.98 143.65 C 134.68 141.85 136.04 143.16 136.56 143.63 C 136.56 143.63 138.83 145.6 142.58 151.37 C 142.64 151.48 143.17 152.33 143.24 152.43 C 143.24 152.43 146.63 157.89 146.99 157.87 C 146.99 157.87 147.27 158.12 147.5 157.94 C 147.86 157.85 147.72 156.09 147.72 156.09 C 147.72 156.09 147.01 150.15 143.92 140.09 C 143.92 140.09 143.45 138.83 143.78 137.65 C 144.09 136.46 145.34 137.02 145.34 137.02 C 145.34 137.02 150.15 139.32 152.46 146.81 C 154.74 154.37 153.19 161.12 152.29 163.15 C 152.29 163.15 152.29 163.15 152.29 163.15 C 150.11 165.95 148.03 166.9 146.07 165.99 Z M 126 146.07 C 126 146.07 106.59 147.33 105.67 148.64 C 105.67 148.64 104.99 149.41 106.05 149.63 C 107.11 149.84 111.5 150.4 113.62 150.51 C 115.88 150.54 123.52 150.6 126.26 153.88 C 126.26 153.88 127.89 155.43 127.82 158.95 C 127.74 162.56 127.08 163.83 125.62 165.14 C 124.09 166.35 110.93 172 102.44 163.33 C 102.44 163.33 98.53 159.16 103.79 156 C 103.79 156 107.58 153.81 117.23 156.38 C 117.23 156.38 120.15 157.4 120.01 158.41 C 119.85 159.49 117.61 160.65 114.35 160.58 C 111.19 160.49 108.88 159.04 109.33 159.27 C 109.75 159.43 105.93 157.51 104.75 158.82 C 103.58 160.01 103.86 160.76 105.01 161.5 C 107.96 163.1 119.35 162.54 122.75 158.93 C 122.75 158.93 124.09 157.46 122.04 156.27 C 119.99 155.14 114.12 154.46 111.83 154.35 C 109.64 154.24 101.48 154.37 100.3 152.3 C 100.3 152.3 99.12 150.9 100.42 146.93 C 101.78 142.77 111.29 141.17 115.39 140.81 C 115.39 140.81 126.68 140.43 128.76 142.64 C 128.74 142.64 129.02 143.16 128.66 143.9 C 128.66 143.9 128.66 143.9 128.66 143.9 C 128.24 145.15 127.35 145.87 126 146.07 Z M 91.5 167.71 C 90.68 166.74 90.39 162.88 90.56 156.83 C 90.72 150.72 90.87 143.14 92.23 141.94 C 93.7 140.72 94.59 141.78 95.16 142.62 C 95.77 143.43 96.5 144.33 96.67 146.25 C 96.81 148.17 97.28 158.23 97.28 158.23 C 97.28 158.23 97.89 167.3 96.6 168.25 C 96.6 168.25 96.6 168.25 96.6 168.25 C 93.75 168.61 92.05 168.43 91.5 167.71 Z M 90.51 135.69 C 89.5 137.38 88.91 137.9 88.13 138.01 C 87 138.13 85.98 136.39 85.8 135.83 C 85.61 135.4 85.07 134.67 85.73 132.96 C 83.46 131.02 83.3 128.4 83.67 126.64 C 84.24 124.61 88.06 116.89 99.68 115.99 C 99.68 115.99 105.37 115.59 106.33 118.5 C 106.35 118.5 106.48 118.5 106.5 118.5 C 106.5 118.5 112.02 118.52 111.9 123.21 C 111.83 127.93 105.77 133.79 99.54 135.8 C 99.54 135.8 99.54 135.8 99.54 135.8 C 95.06 136.36 92.05 136.32 90.51 135.69 Z M 88.01 128.99 C 89.36 127.03 91.81 123.93 95.42 121.59 C 92.63 121.81 90.3 122.96 88.7 125.36 C 88.7 125.36 88.7 125.36 88.7 125.36 C 87.88 127.28 87.65 128.49 88.01 128.99 Z M 92.75 131.38 C 96.88 132.1 104.16 131.83 107.4 125.54 C 107.37 125.54 108.93 121.63 104.75 122.33 C 104.75 122.33 104.75 122.33 104.75 122.33 C 98.54 125.81 94.54 128.82 92.75 131.38 Z M 187.43 168.18 C 184.71 174.48 182.45 180.82 181.15 190.34 C 181.15 190.34 180.87 192.19 179.27 191.54 C 177.69 190.99 175.05 188.47 174.53 184.97 C 173.96 180.37 176.11 172.58 180.47 163.67 C 179.2 161.68 178.32 158.84 179.08 154.8 C 179.08 154.8 180.19 147.31 188.04 140.54 C 188.04 140.54 188.98 139.75 189.52 140 C 190.14 140.25 189.85 142.68 189.36 143.86 C 188.86 145.03 185.35 150.85 185.35 150.85 C 185.35 150.85 183.16 154.78 183.77 157.87 C 187.9 151.8 197.28 139.55 203.11 143.41 C 205.06 144.74 205.96 147.65 205.96 150.79 C 205.94 153.56 205.25 156.49 203.98 158.68 C 203.98 158.68 203.98 158.68 203.98 158.68 C 198.41 166.2 192.9 169.37 187.43 168.18 Z M 199.5 149.32 C 197.38 151.55 193.56 155.77 190.47 161.48 C 193.7 161.14 196.81 159.45 197.75 158.59 C 199.29 157.28 202.85 153.76 202.28 149.07 C 202.28 149.07 202.28 149.07 202.28 149.07 C 202.06 147.46 201.13 147.54 199.5 149.32 Z M 69.62 171.32 C 59.36 174.27 49.67 172.85 44.39 171.57 C 44.27 173.57 44.04 174.43 43.71 174.77 C 43.26 175.2 39.91 177.05 38.07 174.43 C 37.25 173.19 36.82 170.93 36.58 168.93 C 24.7 163.69 19.23 156.16 19.02 155.82 C 18.76 155.57 16.05 152.86 18.76 149.54 C 21.31 146.54 29.63 143.54 37.13 142.32 C 37.39 136.19 38.14 131.56 39.04 129.44 C 40.12 126.98 41.49 129.19 42.67 130.86 C 43.66 132.1 44.25 137.45 44.3 141.71 C 49.2 141.49 52.1 141.83 57.57 142.77 C 64.69 144.02 69.46 147.49 69.03 151.44 C 68.72 155.32 65 156.92 63.58 157.04 C 62.1 157.15 59.79 156.13 59.79 156.13 C 58.21 155.41 59.67 154.78 61.58 153.99 C 63.65 153.02 63.18 152.03 63.18 152.03 C 62.4 149.86 53.16 148.35 43.97 148.35 C 43.92 153.2 44.18 161.25 44.3 165.95 C 50.73 167.12 55.54 166.9 55.54 166.9 C 55.54 166.9 79.03 166.26 79.74 151.91 C 80.47 137.54 56.32 123.75 38.47 119.38 C 20.64 114.91 10.55 118.02 9.68 118.45 C 8.74 118.9 9.61 119.04 9.61 119.04 C 9.61 119.04 10.58 119.17 12.25 119.71 C 14.02 120.26 12.65 121.14 12.65 121.14 C 9.61 122.06 6.19 121.47 5.53 120.14 C 4.87 118.81 5.98 117.62 7.25 115.9 C 8.52 114.1 9.92 114.16 9.92 114.16 C 31.96 106.85 58.82 120.08 58.82 120.08 C 83.98 132.28 88.27 146.59 87.8 152.14 C 87.8 152.14 87.8 152.14 87.8 152.14 C 86.04 161.9 79.98 168.29 69.62 171.32 Z M 20.48 154.26 C 25.17 159.09 30.95 162.11 36.44 163.98 C 37.08 155.66 36.99 152.73 37.06 148.53 C 28.47 149.09 23.52 150.4 21.26 151.39 C 21.26 151.39 21.26 151.39 21.26 151.39 C 20.84 152.92 20.58 153.88 20.48 154.26 Z" stroke-linecap="round" />
      </g>
      <g transform="matrix(1 0 0 1 103.94 23)" id="Ub23ukZKPRM7M8wDO2T-x">
        <path style="stroke: none; stroke-width: 1; stroke-dasharray: none; stroke-linecap: butt; stroke-dashoffset: 0; stroke-linejoin: miter; stroke-miterlimit: 4; fill: rgb(255,255,255); fill-rule: nonzero; opacity: 1;" vector-effect="non-scaling-stroke" transform=" translate(-231.94, -151)" d="M 250.67 152.66 C 250.67 153.31 250.12 153.83 249.44 153.83 C 247.96 153.83 236.09 153.83 234.61 153.83 C 234.61 154.58 234.63 155.23 234.63 155.84 C 234.63 160.24 234.44 163.83 234 167.87 C 233.92 168.48 233.41 168.93 232.79 168.93 C 232.47 168.93 229.91 168.93 229.59 168.93 C 229.26 168.93 228.95 168.79 228.74 168.57 C 228.53 168.34 228.41 168.02 228.45 167.71 C 228.9 163.69 229.11 160.15 229.11 155.84 C 229.11 155.21 229.11 154.55 229.09 153.83 C 227.62 153.83 215.89 153.83 214.42 153.83 C 213.74 153.83 213.2 153.31 213.2 152.66 C 213.2 152.36 213.2 149.98 213.2 149.68 C 213.2 149.03 213.74 148.51 214.42 148.51 C 215.87 148.51 227.43 148.51 228.88 148.51 C 228.57 143.65 227.96 138.98 226.97 134.25 C 226.92 133.95 226.99 133.66 227.18 133.43 C 227.37 133.21 227.65 133.07 227.96 133.07 C 228.31 133.07 231.08 133.07 231.43 133.07 C 231.97 133.07 232.42 133.43 232.53 133.95 C 233.5 138.85 234.11 143.61 234.42 148.51 C 235.92 148.51 247.94 148.51 249.44 148.51 C 250.1 148.51 250.67 149.05 250.67 149.68 C 250.67 150.28 250.67 152.36 250.67 152.66 Z" stroke-linecap="round" />
      </g>
      <g transform="matrix(1 0 0 1 103.94 23)">
        <path style="stroke: rgb(0,0,0); stroke-opacity: 0; stroke-width: 1; stroke-dasharray: none; stroke-linecap: butt; stroke-dashoffset: 0; stroke-linejoin: miter; stroke-miterlimit: 4; fill: rgb(0,0,0); fill-opacity: 0; fill-rule: nonzero; opacity: 1;" vector-effect="non-scaling-stroke" transform=" translate(-231.94, -151)" d="M 250.67 152.66 C 250.67 153.31 250.12 153.83 249.44 153.83 C 247.96 153.83 236.09 153.83 234.61 153.83 C 234.61 154.58 234.63 155.23 234.63 155.84 C 234.63 160.24 234.44 163.83 234 167.87 C 233.92 168.48 233.41 168.93 232.79 168.93 C 232.47 168.93 229.91 168.93 229.59 168.93 C 229.26 168.93 228.95 168.79 228.74 168.57 C 228.53 168.34 228.41 168.02 228.45 167.71 C 228.9 163.69 229.11 160.15 229.11 155.84 C 229.11 155.21 229.11 154.55 229.09 153.83 C 227.62 153.83 215.89 153.83 214.42 153.83 C 213.74 153.83 213.2 153.31 213.2 152.66 C 213.2 152.36 213.2 149.98 213.2 149.68 C 213.2 149.03 213.74 148.51 214.42 148.51 C 215.87 148.51 227.43 148.51 228.88 148.51 C 228.57 143.65 227.96 138.98 226.97 134.25 C 226.92 133.95 226.99 133.66 227.18 133.43 C 227.37 133.21 227.65 133.07 227.96 133.07 C 228.31 133.07 231.08 133.07 231.43 133.07 C 231.97 133.07 232.42 133.43 232.53 133.95 C 233.5 138.85 234.11 143.61 234.42 148.51 C 235.92 148.51 247.94 148.51 249.44 148.51 C 250.1 148.51 250.67 149.05 250.67 149.68 C 250.67 150.28 250.67 152.36 250.67 152.66 Z" stroke-linecap="round" />
      </g>
      <g transform="matrix(1 0 0 1 11.41 -32.08)">
        <radialGradient id="SVGID_0" gradientUnits="userSpaceOnUse" gradientTransform="matrix(1 0 0 1 0 0)" cx="251.52" cy="135.31" r="751.44" fx="251.52" fy="135.31">
          <stop offset="0.709%" style="stop-color:rgb(255,255,255);stop-opacity: 1" />
          <stop offset="3.01%" style="stop-color:rgb(203,255,255);stop-opacity: 1" />
          <stop offset="5.701%" style="stop-color:rgb(150,255,255);stop-opacity: 1" />
          <stop offset="8.427999999999999%" style="stop-color:rgb(104,255,255);stop-opacity: 1" />
          <stop offset="11.129999999999999%" style="stop-color:rgb(67,255,255);stop-opacity: 1" />
          <stop offset="13.819999999999999%" style="stop-color:rgb(37,255,255);stop-opacity: 1" />
          <stop offset="16.470000000000002%" style="stop-color:rgb(17,255,255);stop-opacity: 1" />
          <stop offset="19.08%" style="stop-color:rgb(4,255,255);stop-opacity: 1" />
          <stop offset="21.59%" style="stop-color:rgb(0,255,255);stop-opacity: 1" />
          <stop offset="100%" style="stop-color:rgb(0,0,255);stop-opacity: 0" />
        </radialGradient>
        <path style="stroke: none; stroke-width: 1; stroke-dasharray: none; stroke-linecap: butt; stroke-dashoffset: 0; stroke-linejoin: miter; stroke-miterlimit: 4; fill: url(#SVGID_0); fill-rule: nonzero; opacity: 1;" vector-effect="non-scaling-stroke" transform=" translate(-139.41, -95.92)" d="M 193.04 81.6 C 175.8 70.3 155.59 64.32 134.61 64.32 C 99.9 64.32 67.69 80.81 48.47 108.46 C 48.26 108.75 48.21 109.13 48.33 109.47 C 48.45 109.83 48.73 110.08 49.08 110.19 C 49.35 110.28 51.5 110.98 51.77 111.07 C 51.94 111.12 52.1 111.14 52.24 111.14 C 52.74 111.14 53.21 110.89 53.49 110.51 C 62.31 98.1 74.24 87.79 88.01 80.66 C 102.23 73.3 118.34 69.4 134.58 69.4 C 154.22 69.4 173.16 74.95 189.38 85.42 C 205.2 95.64 217.49 109.92 224.92 126.69 C 225.13 127.18 225.65 127.52 226.21 127.52 C 226.54 127.52 229.1 127.52 229.42 127.52 C 229.8 127.52 230.15 127.34 230.34 127.05 C 230.58 126.75 230.62 126.39 230.48 126.05 C 222.82 108.03 209.87 92.66 193.04 81.6 Z M 52.03 110.33 C 52.1 110.35 52.17 110.37 52.24 110.37 C 52.27 110.37 52.29 110.37 52.29 110.37 C 52.29 110.37 52.27 110.37 52.24 110.37 C 52.17 110.37 52.1 110.35 52.03 110.33 Z M 225.77 127.23 C 225.7 127.18 225.62 127.16 225.55 127.12 C 225.62 127.16 225.7 127.21 225.77 127.23 Z" stroke-linecap="round" />
      </g>
      <g transform="matrix(1 0 0 1 11.41 -32.08)">
        <path style="stroke: rgb(0,0,0); stroke-opacity: 0; stroke-width: 1; stroke-dasharray: none; stroke-linecap: butt; stroke-dashoffset: 0; stroke-linejoin: miter; stroke-miterlimit: 4; fill: rgb(0,0,0); fill-opacity: 0; fill-rule: nonzero; opacity: 1;" vector-effect="non-scaling-stroke" transform=" translate(-139.41, -95.92)" d="M 193.04 81.6 C 175.8 70.3 155.59 64.32 134.61 64.32 C 99.9 64.32 67.69 80.81 48.47 108.46 C 48.26 108.75 48.21 109.13 48.33 109.47 C 48.45 109.83 48.73 110.08 49.08 110.19 C 49.35 110.28 51.5 110.98 51.77 111.07 C 51.94 111.12 52.1 111.14 52.24 111.14 C 52.74 111.14 53.21 110.89 53.49 110.51 C 62.31 98.1 74.24 87.79 88.01 80.66 C 102.23 73.3 118.34 69.4 134.58 69.4 C 154.22 69.4 173.16 74.95 189.38 85.42 C 205.2 95.64 217.49 109.92 224.92 126.69 C 225.13 127.18 225.65 127.52 226.21 127.52 C 226.54 127.52 229.1 127.52 229.42 127.52 C 229.8 127.52 230.15 127.34 230.34 127.05 C 230.58 126.75 230.62 126.39 230.48 126.05 C 222.82 108.03 209.87 92.66 193.04 81.6 Z M 52.03 110.33 C 52.1 110.35 52.17 110.37 52.24 110.37 C 52.27 110.37 52.29 110.37 52.29 110.37 C 52.29 110.37 52.27 110.37 52.24 110.37 C 52.17 110.37 52.1 110.35 52.03 110.33 Z M 225.77 127.23 C 225.7 127.18 225.62 127.16 225.55 127.12 C 225.62 127.16 225.7 127.21 225.77 127.23 Z" stroke-linecap="round" />
      </g>
    </g>
  </g>
    <path style="stroke: rgb(231,231,199); stroke-width: 0; stroke-dasharray: none; stroke-linecap: butt; stroke-dashoffset: 0; stroke-linejoin: miter; stroke-miterlimit: 4; fill: none; fill-rule: nonzero; opacity: 1;" vector-effect="non-scaling-stroke" transform="matrix(1 0 0 1 128 128); translate(-128, -128)" d="M 128 0 C 198.656 0 256 57.344 256 128 C 256 198.656 198.656 256 128 256 C 57.343999999999994 256 0 198.656 0 128 C 0 57.343999999999994 57.344 0 128 0 z" stroke-linecap="round" />
</svg>