# Blender 3.4.1
# www.blender.org
mtllib ElongatedDodecahedron.mtl
o Elongated_Dodecahedron
v 0.866025 0.479343 0.866025
v -0.866025 0.479343 0.866025
v -0.866025 0.479343 -0.866025
v 0.866025 -0.479343 -0.866025
v 0.866025 0.479343 -0.866025
v -0.866025 0.958687 0.000000
v 0.000000 0.958687 0.866025
v 0.000000 0.958687 -0.866025
v 0.866025 0.958687 0.000000
v 0.000000 1.438030 0.000000
v -0.866025 -0.479343 -0.866025
v -0.866025 -0.958687 0.000000
v 0.000000 -1.438030 0.000000
v 0.000000 -0.958687 0.866025
v 0.866025 -0.479343 0.866025
v 0.866025 -0.958687 0.000000
v -0.866025 -0.479343 0.866025
v 0.000000 -0.958687 -0.866025
vn -0.4358 0.7874 0.4358
vn -0.4358 0.7874 -0.4358
vn -0.0000 -0.0000 -1.0000
vn -1.0000 -0.0000 -0.0000
vn -0.4358 -0.7874 -0.4358
vn -0.4358 -0.7874 0.4358
vn 0.4358 -0.7874 0.4358
vn 0.4358 -0.7874 -0.4358
vn 0.4358 0.7874 0.4358
vn 0.4358 0.7874 -0.4358
vn 1.0000 -0.0000 -0.0000
vn -0.0000 -0.0000 1.0000
vt 0.000000 0.000000
vt 0.000000 0.000000
vt 0.000000 0.000000
vt 0.000000 0.000000
vt 0.000000 0.000000
vt 0.000000 0.000000
vt 0.000000 0.000000
vt 0.000000 0.000000
vt 0.000000 0.000000
vt 0.000000 0.000000
vt 0.000000 0.000000
vt 0.000000 0.000000
vt 0.000000 0.000000
vt 0.000000 0.000000
vt 0.000000 0.000000
vt 0.000000 0.000000
vt 0.000000 0.000000
vt 0.000000 0.000000
s 0
usemtl DefaultMaterial
f 13/13/1 16/16/1 4/4/1 18/18/1
f 13/13/2 14/14/2 15/15/2 16/16/2
f 7/7/3 1/1/3 15/15/3 14/14/3 17/17/3 2/2/3
f 1/1/4 9/9/4 5/5/4 4/4/4 16/16/4 15/15/4
f 9/9/5 1/1/5 7/7/5 10/10/5
f 5/5/6 9/9/6 10/10/6 8/8/6
f 8/8/7 10/10/7 6/6/7 3/3/7
f 7/7/8 2/2/8 6/6/8 10/10/8
f 13/13/9 18/18/9 11/11/9 12/12/9
f 12/12/10 17/17/10 14/14/10 13/13/10
f 2/2/11 17/17/11 12/12/11 11/11/11 3/3/11 6/6/11
f 3/3/12 11/11/12 18/18/12 4/4/12 5/5/12 8/8/12
