# Blender 5.0.1
# www.blender.org
mtllib Octakaideca Plesiohedron.mtl
o Octakaideca_Plesiohedron
v 0.525000 -1.125000 0.825000
v 0.875000 -0.875000 0.875000
v 0.825000 -0.525000 1.125000
v -0.125000 0.625000 1.375000
v 0.675000 -0.375000 1.275000
v -0.075000 0.975000 1.125000
v 0.075000 1.125000 0.975000
v 0.225000 0.375000 1.425000
v 0.375000 -1.275000 0.675000
v 1.125000 -0.825000 0.525000
v 1.275000 -0.675000 0.375000
v 1.425000 -0.225000 -0.375000
v 1.375000 0.125000 -0.625000
v 1.125000 0.075000 -0.975000
v 0.125000 1.375000 0.625000
v 0.975000 -0.075000 -1.125000
v 0.625000 -0.125000 -1.375000
v 0.375000 0.225000 -1.425000
v -0.375000 0.675000 -1.275000
v -0.525000 0.825000 -1.125000
v -1.125000 0.525000 -0.825000
v -0.875000 0.875000 -0.875000
v -1.275000 0.375000 -0.675000
v -0.825000 1.125000 -0.525000
v -1.425000 -0.375000 -0.225000
v -1.375000 -0.625000 0.125000
v -1.125000 -0.975000 0.075000
v -0.975000 -1.125000 -0.075000
v -0.625000 -1.375000 -0.125000
v -0.375000 -1.425000 0.225000
v -0.225000 1.425000 0.375000
v -0.675000 1.275000 -0.375000
vn -0.5345 -0.2673 0.8018
vn -0.8018 0.2673 0.5345
vn -0.2673 -0.5345 -0.8018
vn 0.5345 -0.2673 0.8018
vn 0.8018 -0.5345 0.2673
vn 0.8018 0.5345 0.2673
vn 0.5345 0.8018 -0.2673
vn 0.4082 0.4082 0.8165
vn -0.5345 0.8018 -0.2673
vn -0.2673 0.5345 -0.8018
vn -0.8018 0.2673 -0.5345
vn -0.8165 -0.4082 -0.4082
vn -0.4082 0.8165 0.4082
vn 0.2673 -0.8018 0.5345
vn 0.2673 -0.8018 -0.5345
vn 0.8165 -0.4082 -0.4082
vn -0.4082 -0.8165 0.4082
vn 0.4082 0.4082 -0.8165
s 0
usemtl Material.003
f 18//1 17//1 16//1 14//1
f 12//2 13//2 14//2 16//2
f 8//3 4//3 6//3 7//3
f 20//4 22//4 21//4 19//4
f 22//5 24//5 23//5 21//5
f 28//6 25//6 26//6 27//6
f 30//7 29//7 28//7 27//7
f 17//8 18//8 19//8 21//8 23//8 25//8 28//8 29//8
f 10//9 9//9 1//9 2//9
f 3//10 2//10 1//10 5//10
f 11//11 10//11 2//11 3//11
f 8//12 7//12 15//12 13//12 12//12 11//12 3//12 5//12
f 10//13 11//13 12//13 16//13 17//13 29//13 30//13 9//13
f 20//14 32//14 24//14 22//14
f 6//15 31//15 15//15 7//15
f 6//16 4//16 26//16 25//16 23//16 24//16 32//16 31//16
f 13//17 15//17 31//17 32//17 20//17 19//17 18//17 14//17
f 9//18 30//18 27//18 26//18 4//18 8//18 5//18 1//18
