<?xml version="1.0" encoding="UTF-8"?>
<svg xmlns="http://www.w3.org/2000/svg" xmlns:xlink="http://www.w3.org/1999/xlink" width="128px" height="128px" viewBox="0 0 128 128" version="1.1">
<defs>
<linearGradient id="linear0" gradientUnits="userSpaceOnUse" x1="24.03" y1="0" x2="24.03" y2="48" gradientTransform="matrix(2.666667,0,0,2.666667,0,0)">
<stop offset="0" style="stop-color:rgb(6.666667%,11.372549%,18.039216%);stop-opacity:1;"/>
<stop offset="0.21248" style="stop-color:rgb(1.960784%,9.411765%,22.352941%);stop-opacity:1;"/>
<stop offset="0.40695" style="stop-color:rgb(3.921569%,10.588235%,28.235294%);stop-opacity:1;"/>
<stop offset="0.5811" style="stop-color:rgb(7.45098%,18.039216%,38.431373%);stop-opacity:1;"/>
<stop offset="0.7376" style="stop-color:rgb(7.843137%,29.411765%,49.411765%);stop-opacity:1;"/>
<stop offset="0.87279" style="stop-color:rgb(7.45098%,39.215686%,59.215686%);stop-opacity:1;"/>
<stop offset="1" style="stop-color:rgb(7.45098%,52.941176%,72.156863%);stop-opacity:1;"/>
</linearGradient>
</defs>
<g id="surface1">
<path style=" stroke:none;fill-rule:nonzero;fill:url(#linear0);" d="M 64 128 C 99.332031 128 128 99.332031 128 64 C 128 28.667969 99.332031 0 64 0 C 30.078125 0 2.320312 26.375 0.132812 59.761719 C 4.265625 66.691406 5.894531 71.011719 2.691406 82.398438 C 10.585938 108.773438 35.039062 128 64 128 Z M 64 128 "/>
<path style=" stroke:none;fill-rule:nonzero;fill:rgb(100%,100%,100%);fill-opacity:1;" d="M 60.71875 48.292969 C 59.148438 50.558594 46.613281 68.773438 45.039062 71.039062 C 42.507812 70.933594 39.972656 71.359375 37.546875 72.375 C 36.480469 72.800781 35.492188 73.332031 34.558594 73.945312 C 31.121094 72.535156 3.601562 61.199219 0.160156 59.785156 C 0.160156 59.785156 -0.640625 72.878906 2.691406 82.640625 C 5.121094 83.625 24.558594 91.652344 26.988281 92.667969 C 28.214844 98.132812 31.972656 102.90625 37.492188 105.199219 C 46.507812 108.988281 56.933594 104.667969 60.691406 95.652344 C 61.652344 93.28125 62.132812 90.800781 62.054688 88.320312 C 64.292969 86.71875 82.214844 73.921875 84.453125 72.320312 C 84.640625 72.320312 84.828125 72.320312 85.011719 72.320312 C 98.425781 72.320312 109.332031 61.386719 109.332031 47.972656 C 109.332031 34.535156 98.425781 23.625 85.011719 23.625 C 71.601562 23.625 60.691406 34.535156 60.691406 47.972656 C 60.691406 48.078125 60.691406 48.1875 60.71875 48.292969 Z M 56.933594 94.078125 C 54.027344 101.066406 46.027344 104.375 39.039062 101.464844 C 35.8125 100.132812 33.386719 97.652344 32 94.746094 C 32.773438 95.066406 39.121094 97.679688 39.894531 98.027344 C 45.039062 100.160156 50.960938 97.707031 53.09375 92.585938 C 55.226562 87.441406 52.800781 81.519531 47.652344 79.386719 C 46.851562 79.039062 40.292969 76.320312 39.464844 76 C 42.640625 74.800781 46.214844 74.746094 49.574219 76.132812 C 52.960938 77.546875 55.574219 80.1875 56.960938 83.574219 C 58.347656 86.960938 58.347656 90.691406 56.933594 94.078125 M 85.011719 64.1875 C 76.078125 64.1875 68.828125 56.90625 68.828125 47.972656 C 68.828125 39.039062 76.078125 31.761719 85.011719 31.761719 C 93.945312 31.761719 101.226562 39.039062 101.226562 47.972656 C 101.226562 56.90625 93.945312 64.1875 85.011719 64.1875 M 85.039062 35.761719 C 91.761719 35.761719 97.199219 41.226562 97.199219 47.945312 C 97.199219 54.667969 91.761719 60.132812 85.039062 60.132812 C 78.320312 60.132812 72.878906 54.667969 72.878906 47.945312 C 72.878906 41.226562 78.320312 35.761719 85.039062 35.761719 Z M 85.039062 35.761719 "/>
</g>
</svg>