<?xml version="1.0" encoding="UTF-8" standalone="no"?>
<!DOCTYPE svg PUBLIC "-//W3C//DTD SVG 1.1//EN" "http://www.w3.org/Graphics/SVG/1.1/DTD/svg11.dtd">
<svg version="1.1" xmlns="http://www.w3.org/2000/svg" xmlns:xlink="http://www.w3.org/1999/xlink" preserveAspectRatio="xMidYMid meet" viewBox="0 0 256 256" width="256" height="256"><defs><path d="M20.48 113.87C11.2 118.56 7.09 125.92 5.6 127.25C1.87 133.07 0 139.52 0 146.67C0 153.98 0 212.52 0 219.84C0 234.88 0 243.25 0 244.96C0 249.6 2.88 252 3.2 252.8C5.33 254.93 7.95 256 11.04 256C30.72 256 41.65 256 43.84 256C48.48 256 50.88 253.12 51.68 252.8C53.81 250.66 54.88 248.05 54.88 244.96C54.88 243.28 54.88 234.91 54.88 219.84C142.62 219.84 191.37 219.84 201.12 219.84C201.12 234.88 201.12 243.25 201.12 244.96C201.12 249.6 204 252 204.32 252.8C206.45 254.93 209.07 256 212.16 256C231.84 256 242.77 256 244.96 256C249.6 256 252 253.12 252.8 252.8C254.93 250.66 256 248.05 256 244.96C256 242.77 256 231.84 256 212.16C256 212.06 256 212.01 256 212C256 172.8 256 151.04 256 146.67C256 135.95 250.99 129.17 250.4 127.25C246.67 121.44 241.71 117.01 235.52 113.87C223.09 86.03 216.16 70.56 214.77 67.47C210.45 57.44 202.72 53.17 201.39 51.57C195.31 47.63 188.64 45.71 181.39 45.71C117.33 45.71 81.71 45.71 74.61 45.71C63.73 45.71 56.64 50.99 54.61 51.57C48.59 55.47 44.11 60.8 41.23 67.47C39.84 70.56 32.93 86.03 20.48 113.87M206.51 71.09L223.63 109.71C108.87 109.71 45.12 109.71 32.37 109.71C42.61 86.51 48.32 73.65 49.49 71.09C52.8 63.68 58.61 60.43 59.63 59.25C64.21 56.32 69.17 54.83 74.61 54.83C138.67 54.83 174.29 54.83 181.39 54.83C189.55 54.83 194.88 58.83 196.37 59.25C200.91 62.19 204.27 66.13 206.51 71.09M210.29 244.96L210.29 219.84C232.25 219.84 244.44 219.84 246.88 219.84C246.88 234.88 246.88 243.25 246.88 244.96C246.88 245.81 246.4 246.18 246.35 246.34C246.03 246.66 245.6 246.82 245.12 246.82C225.33 246.82 214.35 246.82 212.16 246.82C211.47 246.82 210.99 246.34 210.88 246.34C210.45 245.97 210.29 245.54 210.29 244.96M9.12 244.96L9.12 219.84C31.07 219.84 43.27 219.84 45.71 219.84C45.71 234.88 45.71 243.25 45.71 244.96C45.71 245.81 45.28 246.18 45.23 246.34C44.85 246.66 44.43 246.82 43.84 246.82C24.16 246.82 13.23 246.82 11.04 246.82C10.13 246.82 9.81 246.34 9.65 246.34C9.33 245.97 9.12 245.54 9.12 244.96M9.12 210.66C9.12 172.26 9.12 150.93 9.12 146.67C9.12 139.15 12.48 134.24 12.85 132.85C16.53 126.51 21.87 123.89 22.88 122.88C27.04 120.48 31.63 119.25 36.59 119.25C146.29 119.25 207.25 119.25 219.41 119.25C230.77 119.25 236.85 126.45 238.83 127.25C244.16 132.59 246.88 139.04 246.88 146.67C246.88 150.93 246.88 172.26 246.88 210.66L9.12 210.66M56.11 149.97C56.11 149.97 54.56 148.43 54.4 148.27C52.69 146.56 48.59 146.72 47.95 146.56C43.25 146.56 40.69 149.6 39.89 149.97C36.59 153.39 36.91 157.28 36.59 158.08C36.59 162.77 39.57 165.33 39.89 166.13C43.25 169.49 47.15 169.12 47.95 169.49C52.69 169.49 55.25 166.45 56.11 166.13C59.52 162.77 59.15 158.88 59.52 158.08C59.52 154.93 58.35 152.21 56.11 149.97M198.19 152.37C196.64 154.99 196.8 157.44 196.64 158.03C196.64 162.77 199.63 165.33 200 166.13C203.31 169.49 207.25 169.12 208.05 169.49C212.75 169.49 215.31 166.45 216.11 166.13C219.41 162.77 219.09 158.88 219.41 158.08C219.41 153.39 216.43 150.77 216.11 149.97C213.87 147.68 211.15 146.56 207.95 146.56C204.59 147.52 202.67 148.05 202.29 148.16C199.68 149.76 198.56 151.95 198.19 152.37Z" id="e7iG3bi9hZ"></path></defs><g><g><g><use xlink:href="#e7iG3bi9hZ" opacity="1" fill="#00d95f" fill-opacity="1"></use><g><use xlink:href="#e7iG3bi9hZ" opacity="1" fill-opacity="0" stroke="#000000" stroke-width="1" stroke-opacity="0"></use></g></g></g></g></svg>