<?xml version="1.0" encoding="UTF-8" standalone="no"?>
<!DOCTYPE svg PUBLIC "-//W3C//DTD SVG 1.1//EN" "http://www.w3.org/Graphics/SVG/1.1/DTD/svg11.dtd">
<svg version="1.1" xmlns="http://www.w3.org/2000/svg" xmlns:xlink="http://www.w3.org/1999/xlink" preserveAspectRatio="xMidYMid meet" viewBox="0 0 256 256" width="256" height="256"><defs><path d="M214.77 187.41C220.43 187.41 223.52 183.79 224.53 183.36C227.2 180.64 228.59 177.44 228.59 173.81C228.59 97.01 228.59 54.35 228.59 45.81C228.59 40.11 224.91 37.01 224.53 36.05C221.81 33.33 218.56 32 214.77 32C110.67 32 52.8 32 41.23 32C35.57 32 32.48 35.68 31.47 36.05C28.8 38.77 27.41 42.03 27.41 45.81C27.41 122.61 27.41 165.28 27.41 173.81C27.41 179.31 31.09 182.4 31.47 183.36C34.19 186.08 37.44 187.41 41.23 187.41C52.8 187.41 110.65 187.41 214.77 187.41M219.41 45.81C219.41 122.61 219.41 165.28 219.41 173.81C219.41 175.52 218.19 176.59 218.03 176.91C217.12 177.81 216.05 178.29 214.77 178.29C110.67 178.29 52.8 178.29 41.23 178.29C40.32 178.29 39.84 178.08 39.68 178.08C39.04 177.87 38.56 177.49 38.45 177.44C37.87 176.96 37.55 176.48 37.44 176.37C37.01 175.84 36.85 175.31 36.8 175.15C36.64 174.72 36.59 174.29 36.59 173.81C36.59 97.01 36.59 54.35 36.59 45.81C36.59 43.89 37.81 42.83 37.97 42.51C38.88 41.6 39.95 41.12 41.23 41.12C145.33 41.12 203.2 41.12 214.77 41.12C216.69 41.12 217.71 42.4 218.03 42.51C218.99 43.47 219.41 44.53 219.41 45.81M0 219.41C0 221.23 1.23 222.29 1.39 222.61C2.29 223.52 3.36 224 4.64 224C152.69 224 234.93 224 251.36 224C253.23 224 254.29 222.77 254.61 222.61C256 221.23 255.84 219.73 256 219.41C256 217.6 254.77 216.53 254.61 216.21C253.71 215.31 252.64 214.88 251.36 214.88C226.69 214.88 29.31 214.88 4.64 214.88C2.67 215.68 1.6 216.16 1.39 216.21C0 217.6 0.16 219.09 0 219.41Z" id="c2KZTazXL"></path></defs><g><g><g><use xlink:href="#c2KZTazXL" opacity="1" fill="#00d95f" fill-opacity="1"></use><g><use xlink:href="#c2KZTazXL" opacity="1" fill-opacity="0" stroke="#000000" stroke-width="1" stroke-opacity="0"></use></g></g></g></g></svg>