<?xml version="1.0" encoding="UTF-8" standalone="no"?>
<!DOCTYPE svg PUBLIC "-//W3C//DTD SVG 1.1//EN" "http://www.w3.org/Graphics/SVG/1.1/DTD/svg11.dtd">
<svg version="1.1" xmlns="http://www.w3.org/2000/svg" xmlns:xlink="http://www.w3.org/1999/xlink" preserveAspectRatio="xMidYMid meet" viewBox="0 0 256 256" width="256" height="256"><defs><path d="M203.52 113.92C162.56 89.6 94.08 87.04 55.04 99.2C48.64 101.12 42.24 97.33 40.32 91.52C38.4 85.12 42.24 78.77 48 76.8C93.44 63.41 168.32 65.92 215.68 94.08C221.44 97.33 223.36 104.96 220.16 110.72C216.96 115.2 209.28 117.17 203.52 113.92M202.24 149.81C199.04 154.24 193.28 156.16 188.8 152.96C154.24 131.89 101.76 125.44 61.44 138.24C56.32 139.52 50.56 136.96 49.28 131.89C48 126.77 50.56 121.01 55.68 119.68C102.4 105.6 160 112.69 199.68 136.96C203.52 138.88 205.44 145.33 202.24 149.81M186.88 184.96C184.32 188.8 179.84 190.08 176 187.52C145.92 169.01 108.16 165.12 63.36 175.36C58.88 176.64 55.04 173.44 53.76 169.65C52.48 165.12 55.68 161.28 59.52 160.05C108.16 149.12 150.4 153.6 183.68 174.13C188.16 176 188.8 181.12 186.88 184.96M128 256C198.67 256 256 198.72 256 128C256 57.33 198.67 0 128 0C57.33 0 0 57.33 0 128C0 198.72 57.33 256 128 256Z" id="a3VqTh7bwt"></path></defs><g><g><g><use xlink:href="#a3VqTh7bwt" opacity="1" fill="#00d95f" fill-opacity="1"></use><g><use xlink:href="#a3VqTh7bwt" opacity="1" fill-opacity="0" stroke="#000000" stroke-width="1" stroke-opacity="0"></use></g></g></g></g></svg>