<svg xmlns="http://www.w3.org/2000/svg" xmlns:xlink="http://www.w3.org/1999/xlink" viewBox="0 0 48 48" width="48" height="48"><path fill="#00d95f" d="M0 7.75C0 6.8 0.62 6.27 0.69 6.11C1.15 5.65 1.7 5.42 2.33 5.42L18.58 5.42L18.58 6.97C8.83 6.97 3.42 6.97 2.33 6.97C2.02 6.97 1.84 7.18 1.78 7.2C1.63 7.36 1.55 7.53 1.55 7.73C1.55 23.54 1.55 32.32 1.55 34.08C1.55 34.37 1.76 34.55 1.78 34.6C1.94 34.76 2.12 34.84 2.33 34.84L18.58 34.84L18.58 36.39C8.83 36.39 3.42 36.39 2.33 36.39C1.38 36.39 0.85 35.78 0.69 35.71C0.23 35.26 0 34.72 0 34.08L0 7.75M11.07 42.35C11.07 42.35 10.97 42.24 10.96 42.23C10.84 42.11 10.85 41.85 10.84 41.81C10.84 41.5 11.05 41.32 11.07 41.27C11.23 41.11 11.41 41.03 11.63 41.03L18.58 41.03L18.58 42.58C14.41 42.58 12.09 42.58 11.63 42.58C11.41 42.58 11.23 42.5 11.07 42.35M45.86 5.42C46.75 5.42 47.22 5.98 47.37 6.05C47.79 6.46 48 6.97 48 7.56C48 27.29 48 38.25 48 40.44C48 41.33 47.44 41.8 47.37 41.95C46.96 42.37 46.45 42.58 45.86 42.58C33.56 42.58 26.73 42.58 25.36 42.58C24.48 42.58 24 42.02 23.85 41.95C23.43 41.54 23.23 41.03 23.23 40.44C23.23 20.71 23.23 9.75 23.23 7.56C23.23 6.67 23.79 6.2 23.85 6.05C24.27 5.63 24.77 5.42 25.36 5.42L45.86 5.42M46.45 40.44C46.45 20.71 46.45 9.75 46.45 7.56C46.45 7.31 46.3 7.18 46.28 7.14C46.16 7.03 46.03 6.97 45.86 6.97C33.56 6.97 26.73 6.97 25.36 6.97C25.12 6.97 24.99 7.12 24.95 7.14C24.83 7.26 24.77 7.39 24.77 7.56C24.77 27.29 24.77 38.25 24.77 40.44C24.77 40.69 24.93 40.82 24.95 40.86C25.06 40.97 25.2 41.03 25.36 41.03C37.66 41.03 44.5 41.03 45.86 41.03C46.11 41.03 46.24 40.88 46.28 40.86C46.39 40.74 46.45 40.61 46.45 40.44M30.69 25.27C30.69 25.27 31.61 24.34 31.71 24.24C32.74 23.21 35.22 23.32 35.61 23.21C38.49 23.21 40.05 25.06 40.54 25.27C42.59 27.32 42.39 29.7 42.59 30.19C42.59 33.07 40.75 34.63 40.54 35.12C38.49 37.17 36.11 36.97 35.61 37.17C32.74 37.17 31.18 35.33 30.69 35.12C28.63 33.07 28.84 30.69 28.63 30.19C28.63 28.28 29.32 26.63 30.69 25.27M31.75 34.05C31.75 34.05 32.47 34.77 32.55 34.85C33.35 35.65 35.31 35.57 35.61 35.65C37.87 35.65 39.09 34.21 39.47 34.05C41.07 32.45 40.91 30.58 41.07 30.19C41.07 27.93 39.63 26.72 39.47 26.33C37.87 24.74 36 24.9 35.61 24.74C33.35 24.74 32.14 26.18 31.75 26.33C30.16 27.93 30.32 29.81 30.16 30.19C30.16 31.7 30.69 32.99 31.75 34.05M36.91 16.68C36.57 17.02 35.74 16.99 35.61 17.02C34.65 17.02 34.14 16.41 33.98 16.34C33.3 15.67 33.37 14.87 33.3 14.71C33.3 14.07 33.58 13.66 33.61 13.54C33.92 13.01 34.36 12.79 34.45 12.71C34.97 12.4 35.5 12.43 35.61 12.4C36.57 12.4 37.08 13.01 37.25 13.08C37.92 13.75 37.86 14.55 37.92 14.71C37.92 15.35 37.7 15.89 37.25 16.34C37.04 16.55 36.93 16.66 36.91 16.68Z"/></svg>