<?xml version="1.0" encoding="UTF-8" standalone="no"?>
<!DOCTYPE svg PUBLIC "-//W3C//DTD SVG 1.1//EN" "http://www.w3.org/Graphics/SVG/1.1/DTD/svg11.dtd">
<svg version="1.1" xmlns="http://www.w3.org/2000/svg" xmlns:xlink="http://www.w3.org/1999/xlink" preserveAspectRatio="xMidYMid meet" viewBox="0 0 256 256" width="256" height="256"><defs><path d="M135.41 212.85C135.41 212.85 134.03 211.47 133.87 211.36C132.37 209.81 128.64 209.97 128.11 209.81C123.79 209.81 121.55 212.53 120.85 212.85C117.92 215.84 118.24 219.41 117.92 220.16C117.92 224.48 120.53 226.67 120.85 227.41C123.79 230.29 127.36 230.03 128.11 230.29C132.37 230.29 134.67 227.68 135.41 227.41C138.4 224.48 138.08 220.91 138.4 220.16C138.4 217.28 137.39 214.83 135.41 212.85M51.31 0C44.96 0 41.49 4.11 40.37 4.53C37.33 7.57 35.84 11.2 35.84 15.47C35.84 150.61 35.84 225.71 35.84 240.75C35.84 246.88 39.95 250.4 40.37 251.47C43.41 254.51 47.04 256 51.31 256C143.36 256 194.51 256 204.69 256C211.2 256 214.61 251.89 215.68 251.47C218.67 248.43 220.16 244.85 220.16 240.75C220.16 105.55 220.16 30.45 220.16 15.47C220.16 9.12 216.16 5.65 215.68 4.53C212.69 1.49 209.07 0 204.69 0C194.47 0 143.34 0 51.31 0M47.63 11.79C48.64 10.77 49.87 10.24 51.31 10.24C143.36 10.24 194.51 10.24 204.69 10.24C206.83 10.24 208 11.63 208.37 11.79C209.39 12.8 209.92 14.03 209.92 15.47C209.92 150.61 209.92 225.71 209.92 240.75C209.92 242.67 208.53 243.84 208.37 244.21C207.36 245.23 206.13 245.76 204.69 245.76C112.64 245.76 61.49 245.76 51.31 245.76C49.17 245.76 48 244.37 47.63 244.21C46.61 243.2 46.08 242.03 46.08 240.75C46.08 105.55 46.08 30.45 46.08 15.47C46.08 13.33 47.47 12.16 47.63 11.79Z" id="a2fCGvaLaz"></path></defs><g><g><g><use xlink:href="#a2fCGvaLaz" opacity="1" fill="#00d95f" fill-opacity="1"></use><g><use xlink:href="#a2fCGvaLaz" opacity="1" fill-opacity="0" stroke="#000000" stroke-width="1" stroke-opacity="0"></use></g></g></g></g></svg>