<?xml version="1.0" encoding="UTF-8" standalone="no"?>
<!DOCTYPE svg PUBLIC "-//W3C//DTD SVG 1.1//EN" "http://www.w3.org/Graphics/SVG/1.1/DTD/svg11.dtd">
<svg version="1.1" xmlns="http://www.w3.org/2000/svg" xmlns:xlink="http://www.w3.org/1999/xlink" preserveAspectRatio="xMidYMid meet" viewBox="0 0 256 256" width="256" height="256"><defs><path d="M117.17 72.32C117.17 72.32 119.2 74.4 119.41 74.61C121.65 76.91 127.15 76.64 128 76.91C134.35 76.91 137.81 72.8 138.88 72.32C143.47 67.79 142.99 62.51 143.47 61.44C143.47 55.09 139.36 51.63 138.88 50.56C134.35 45.97 129.07 46.45 128 45.97C121.65 45.97 118.29 50.08 117.17 50.56C112.75 55.09 113.17 60.37 112.75 61.44C112.75 65.65 114.19 69.28 117.17 72.32M49.97 0C47.2 0 45.07 1.01 44.53 1.12C41.87 2.29 40.43 3.84 40 4.16C38.13 6.03 37.28 8.27 36.96 8.69C36.21 10.51 35.84 12.32 35.84 14.13C35.84 150.77 35.84 226.67 35.84 241.87C35.84 247.73 39.57 250.88 40 251.84C42.77 254.61 46.08 256 49.97 256C143.63 256 195.63 256 206.03 256C211.89 256 215.04 252.27 216 251.84C218.77 249.07 220.16 245.76 220.16 241.87C220.16 105.23 220.16 29.33 220.16 14.13C220.16 8.27 216.43 5.12 216 4.16C213.23 1.39 209.92 0 206.03 0C195.62 0 143.61 0 49.97 0M46.08 241.87C46.08 105.23 46.08 29.33 46.08 14.13C46.08 12.53 47.09 11.68 47.2 11.36C48 10.61 48.91 10.24 49.97 10.24C143.63 10.24 195.63 10.24 206.03 10.24C206.99 10.24 207.68 10.77 207.89 10.83C208.8 11.36 209.23 12.11 209.33 12.27C209.71 12.85 209.92 13.49 209.92 14.13C209.92 150.77 209.92 226.67 209.92 241.87C209.92 243.47 208.91 244.32 208.8 244.64C208 245.39 207.09 245.76 206.03 245.76C112.37 245.76 60.37 245.76 49.97 245.76C48.37 245.76 47.52 244.75 47.2 244.64C46.45 243.84 46.08 242.93 46.08 241.87M164.27 127.68C164.27 127.68 157.49 120.91 156.75 120.16C149.28 112.64 130.93 113.39 128.11 112.64C106.88 112.64 95.47 126.19 91.84 127.68C76.8 142.72 78.29 160.21 76.8 163.84C76.8 184.96 90.35 196.37 91.84 200C106.88 215.04 124.48 213.55 128.11 215.04C149.28 215.04 160.64 201.49 164.27 200C179.2 184.96 177.71 167.47 179.2 163.84C179.2 149.76 174.24 137.71 164.27 127.68M128 204C111.41 204 102.45 193.39 99.63 192.21C87.84 180.43 89.01 166.67 87.84 163.84C87.84 147.25 98.45 138.29 99.63 135.47C111.41 123.68 125.17 124.85 128 123.68C144.59 123.68 153.55 134.29 156.37 135.47C168.16 147.25 166.99 161.01 168.16 163.84C168.16 174.88 164.21 184.37 156.37 192.21C152.85 195.73 150.88 197.71 150.45 198.08C144.59 204 130.24 203.41 128 204Z" id="bFEE66d2u"></path></defs><g><g><g><use xlink:href="#bFEE66d2u" opacity="1" fill="#00d95f" fill-opacity="1"></use><g><use xlink:href="#bFEE66d2u" opacity="1" fill-opacity="0" stroke="#000000" stroke-width="1" stroke-opacity="0"></use></g></g></g></g></svg>