<?xml version="1.0" encoding="UTF-8" standalone="no"?>
<!DOCTYPE svg PUBLIC "-//W3C//DTD SVG 1.1//EN" "http://www.w3.org/Graphics/SVG/1.1/DTD/svg11.dtd">
<svg version="1.1" xmlns="http://www.w3.org/2000/svg" xmlns:xlink="http://www.w3.org/1999/xlink" preserveAspectRatio="xMidYMid meet" viewBox="0 0 256 256" width="256" height="256"><defs><path d="M20.37 0C14.24 0 10.72 4.11 9.65 4.53C6.61 7.57 5.12 11.2 5.12 15.47C5.12 150.61 5.12 225.71 5.12 240.75C5.12 246.88 9.23 250.4 9.65 251.47C12.69 254.51 16.27 256 20.37 256C149.55 256 221.28 256 235.63 256C241.76 256 245.28 251.89 246.35 251.47C249.39 248.43 250.88 244.85 250.88 240.75C250.88 105.55 250.88 30.45 250.88 15.47C250.88 9.12 246.77 5.65 246.35 4.53C243.31 1.49 239.73 0 235.63 0C221.28 0 149.53 0 20.37 0M15.36 240.75C15.36 105.55 15.36 30.45 15.36 15.47C15.36 13.33 16.75 12.16 16.91 11.79C17.92 10.77 19.09 10.24 20.37 10.24C149.55 10.24 221.28 10.24 235.63 10.24C237.55 10.24 238.72 11.63 239.09 11.79C240.11 12.8 240.64 14.03 240.64 15.47C240.64 150.61 240.64 225.71 240.64 240.75C240.64 242.67 239.25 243.84 239.09 244.21C238.08 245.23 236.91 245.76 235.63 245.76C106.45 245.76 34.72 245.76 20.37 245.76C18.45 245.76 17.28 244.37 16.91 244.21C15.89 243.2 15.36 242.03 15.36 240.75M128.11 209.81C123.79 209.81 121.55 212.53 120.85 212.85C117.92 215.84 118.24 219.41 117.92 220.16C117.92 224.48 120.53 226.67 120.85 227.41C123.79 230.29 127.36 230.03 128.11 230.29C132.37 230.29 134.67 227.68 135.41 227.41C138.4 224.48 138.08 220.91 138.4 220.16C138.4 217.28 137.39 214.83 135.41 212.85C134.51 211.95 133.97 211.47 133.87 211.36C132.37 209.81 128.64 209.97 128.11 209.81Z" id="c1i8Lat9y7"></path></defs><g><g><g><use xlink:href="#c1i8Lat9y7" opacity="1" fill="#00d95f" fill-opacity="1"></use><g><use xlink:href="#c1i8Lat9y7" opacity="1" fill-opacity="0" stroke="#000000" stroke-width="1" stroke-opacity="0"></use></g></g></g></g></svg>