<?xml version="1.0" encoding="UTF-8" standalone="no"?>
<!DOCTYPE svg PUBLIC "-//W3C//DTD SVG 1.1//EN" "http://www.w3.org/Graphics/SVG/1.1/DTD/svg11.dtd">
<svg version="1.1" xmlns="http://www.w3.org/2000/svg" xmlns:xlink="http://www.w3.org/1999/xlink" preserveAspectRatio="xMidYMid meet" viewBox="0 0 256 256" width="256" height="256"><defs><path d="M73.92 231.36C71.89 231.36 70.77 232.69 70.4 232.85C68.91 234.34 69.07 235.94 68.91 236.32C68.91 238.24 70.24 239.41 70.4 239.73C71.41 240.74 72.59 241.22 73.92 241.22C138.93 241.22 174.99 241.22 182.24 241.22C183.47 241.22 184.43 240.64 184.64 240.58C185.81 240 186.29 238.98 186.45 238.82C187.09 237.65 187.04 236.64 187.09 236.37C187.09 234.34 185.81 233.22 185.65 232.85C184.75 231.89 183.57 231.36 182.24 231.36C175.02 231.36 138.91 231.36 73.92 231.36M14.83 14.77C8.75 14.77 5.44 18.72 4.37 19.15C1.44 22.08 0 25.49 0 29.44C0 124 0 176.48 0 186.98C0 193.06 3.95 196.42 4.37 197.49C7.31 200.37 10.77 201.86 14.83 201.86C150.61 201.86 226.08 201.86 241.17 201.86C247.25 201.86 250.56 197.97 251.63 197.54C254.56 194.66 256 191.2 256 187.14C256 92.64 256 40.11 256 29.6C256 23.52 252.05 20.21 251.63 19.15C248.69 16.21 245.23 14.77 241.17 14.77C226.08 14.77 150.63 14.77 14.83 14.77M11.31 26.08C12.32 25.12 13.49 24.64 14.83 24.64C150.61 24.64 226.08 24.64 241.17 24.64C243.2 24.64 244.32 25.97 244.69 26.08C245.65 27.09 246.13 28.21 246.13 29.44C246.13 124 246.13 176.48 246.13 186.98C246.13 189.01 244.8 190.18 244.69 190.5C243.68 191.52 242.51 192 241.17 192C105.39 192 29.92 192 14.83 192C12.8 192 11.68 190.66 11.31 190.5C10.35 189.54 9.87 188.37 9.87 186.98C9.87 92.48 9.87 39.95 9.87 29.44C9.87 27.57 11.2 26.45 11.31 26.08Z" id="h22WuIQFg"></path></defs><g><g><g><use xlink:href="#h22WuIQFg" opacity="1" fill="#00d95f" fill-opacity="1"></use><g><use xlink:href="#h22WuIQFg" opacity="1" fill-opacity="0" stroke="#000000" stroke-width="1" stroke-opacity="0"></use></g></g></g></g></svg>