<svg xmlns="http://www.w3.org/2000/svg" xmlns:xlink="http://www.w3.org/1999/xlink" version="1.1" width="48" height="48" viewBox="0 0 48 48" xml:space="preserve">
<g transform="matrix(1 0 0 1 24 24)" id="k8KGqjYqO0Qmw4Z4b-DOe"  >
<path style="fill: #ffffff" transform=" translate(-24, -21.19)" d="M 35.2722 4.79555 C 32.33943 4.65155 28.842909999999996 6.019550000000001 25.936539999999997 9.979310000000002 L 24.004559999999998 12.595310000000001 L 22.070179999999997 9.979310000000002 C 19.161409999999997 6.0195500000000015 15.662489999999998 4.651550000000002 12.729719999999997 4.795550000000001 C 9.746549999999997 4.9635500000000015 7.092419999999997 6.667550000000001 5.746039999999997 9.37931 C 4.421249999999997 12.06731 4.226859999999997 16.05107 6.895629999999997 20.94707 C 9.473199999999997 25.67483 14.712099999999996 31.19483 24.004559999999998 36.81059 C 33.29222 31.194829999999996 38.52872 25.67483 41.10629 20.947069999999997 C 43.77266 16.051309999999997 43.57826 12.067309999999997 42.25108 9.379309999999997 C 40.90469 6.667309999999997 38.25296 4.963549999999997 35.2722 4.795549999999997 z M 45.32041 23.25096 C 42.078050000000005 29.20272 35.71835 35.53872 25.211750000000002 41.65848 L 24.00456 42.378479999999996 L 22.794970000000003 41.65848 C 12.285720000000003 35.53872 5.926030000000004 29.20272 2.6791100000000014 23.250959999999996 C -0.5848499999999985 17.251199999999997 -0.7048499999999986 11.587199999999996 1.4455200000000015 7.243439999999996 C 3.5743000000000014 2.9476799999999965 7.798010000000001 0.2596799999999959 12.487560000000002 0.0196799999999957 C 16.44968 -0.1963200000000043 20.57043 1.3636799999999958 24.002390000000002 4.843439999999996 C 27.43195 1.3634399999999958 31.552470000000003 -0.1963200000000045 35.512420000000006 0.0196799999999957 C 40.201730000000005 0.2596799999999957 44.42568000000001 2.9476799999999956 46.554460000000006 7.243439999999996 C 48.704840000000004 11.587199999999996 48.58484000000001 17.251199999999997 45.320870000000006 23.250959999999996 z" stroke-linecap="round" />
</g>
</svg>