<svg xmlns="http://www.w3.org/2000/svg" xmlns:xlink="http://www.w3.org/1999/xlink" version="1.1" width="256" height="256" viewBox="0 0 256 256"><g transform="matrix(1 0 0 1 128 128)" id="huNOHGJ2yGG1lBHZoP7l_"><path style="fill:#1d9bf0;opacity:1" transform="translate(-100, -81.26)" d="M 179.52443 40.45741 C 179.64628 42.22041 179.64628 43.983790000000006 179.64628 45.76305000000001 C 179.64628 99.98198000000001 138.37067 162.51279 62.89649999999999 162.51279 L 62.89649999999999 162.48017 C 40.60124999999999 162.51279 18.768989999999988 156.12635999999998 -1.4210854715202004e-14 144.08500999999998 C 3.2419099999999856 144.47501999999997 6.500119999999986 144.66998999999998 9.766499999999986 144.67799 C 28.243109999999987 144.6943 46.19142999999999 138.49492999999998 60.727249999999984 127.07901 C 43.168779999999984 126.74602 27.771799999999985 115.29771 22.392859999999985 98.58425 C 28.543709999999983 99.77058 34.88124999999999 99.52687999999999 40.91803999999998 97.87727 C 21.775219999999983 94.00981 8.003179999999986 77.19063 8.003179999999986 57.657979999999995 L 8.003179999999986 57.137969999999996 C 13.706979999999987 60.31493999999999 20.093409999999984 62.078059999999994 26.625999999999987 62.27296 C 8.596419999999988 50.2235 3.0388099999999874 26.238059999999997 13.926519999999988 7.485309999999998 C 34.75931999999999 33.12004 65.49667999999998 48.70401 98.49273999999998 50.35346 C 95.18576999999998 36.102109999999996 99.70352999999999 21.16811 110.36361999999998 11.149769999999997 C 126.89019999999998 -4.3853500000000025 152.88235999999998 -3.5892000000000035 168.41767 12.929039999999997 C 177.60708 11.117159999999997 186.41475 7.745249999999997 194.4749 2.9677699999999962 C 191.41188 12.466109999999997 185.00103 20.534369999999996 176.43716999999998 25.661139999999996 C 184.57028999999997 24.702199999999998 192.51671 22.524769999999997 200.00000999999997 19.201779999999996 C 194.49107999999998 27.456769999999995 187.55238999999997 34.647619999999996 179.52479999999997 40.45699 z"/></g></svg>