<svg xmlns="http://www.w3.org/2000/svg" xmlns:xlink="http://www.w3.org/1999/xlink" version="1.1" width="48" height="48" viewBox="0 0 48 48" xml:space="preserve">
<g transform="matrix(1 0 0 1 24 24)" id="KEk9i0WXmLIZJLQ4IrB9G"  >
<path style="fill: #ffffff" transform=" translate(-24, -23.06)" d="M 0 18.73165 C 0 8.382359999999998 8.39184 0 18.7434 0 L 28.9662 0 C 39.4794 0 47.999880000000005 8.52289 47.999880000000005 19.03609 C 47.999880000000005 25.966810000000002 44.23716 32.33558 38.17512000000001 35.68394 L 19.317000000000007 46.12683 L 19.317000000000007 37.486819999999994 L 19.16016000000001 37.486819999999994 C 8.646960000000009 37.72093999999999 7.105427357601002e-15 29.268249999999995 7.105427357601002e-15 18.731649999999995 z M 18.7434 4.68288 C 10.976760000000002 4.68288 4.682880000000001 10.98144 4.682880000000001 18.73165 C 4.682880000000001 26.62238 11.16876 32.96774 19.0548 32.80382 L 19.87668 32.78042 L 24 32.78042 L 24 38.16578 L 35.91108 31.586299999999998 C 40.47924 29.057539999999996 43.317119999999996 24.25754 43.317119999999996 19.036089999999998 C 43.317119999999996 11.098559999999999 36.892199999999995 4.682879999999997 28.966319999999996 4.682879999999997 z" stroke-linecap="round" />
</g>
</svg>