<svg xmlns="http://www.w3.org/2000/svg" xmlns:xlink="http://www.w3.org/1999/xlink" version="1.1" width="48" height="48" viewBox="0 0 48 48" xml:space="preserve">
<g transform="matrix(1 0 0 1 24 24)" id="K2Ow1PfAZEJQUjjeSDOCx"  >
<path style="fill: #ffffff" transform=" translate(-24, -16.33)" d="M 8.91456 0 L 17.82912 8.32717 L 15.08556 11.263810000000001 L 10.925999999999998 7.3818100000000015 L 10.925999999999998 24.378140000000002 C 10.925999999999998 26.590700000000002 12.728159999999999 28.4009 14.948759999999998 28.4009 L 26.01144 28.4009 L 26.01144 32.42366 L 14.94876 32.42366 C 10.50564 32.42366 6.9031199999999995 28.8233 6.9031199999999995 24.37802 L 6.9031199999999995 7.381689999999999 L 2.7435599999999996 11.263689999999999 L -4.440892098500626e-16 8.327049999999998 z M 33.05124 4.2642 L 21.98856 4.2642 L 21.98856 0.24143999999999988 L 33.05124 0.24143999999999988 C 37.49436 0.24143999999999988 41.09688 3.8417999999999997 41.09688 8.28708 L 41.09688 25.28341 L 45.25644 21.40141 L 48 24.33805 L 39.08544 32.66522 L 30.170879999999997 24.338049999999996 L 32.91444 21.401409999999995 L 37.074 25.283409999999996 L 37.074 8.287079999999996 C 37.074 6.074519999999996 35.27184 4.264319999999996 33.05124 4.264319999999996 z" stroke-linecap="round" />
</g>
</svg>