<?xml version="1.0" encoding="UTF-8" standalone="no"?>
<!DOCTYPE svg PUBLIC "-//W3C//DTD SVG 1.1//EN" "http://www.w3.org/Graphics/SVG/1.1/DTD/svg11.dtd">
<svg version="1.1" xmlns="http://www.w3.org/2000/svg" xmlns:xlink="http://www.w3.org/1999/xlink" preserveAspectRatio="xMidYMid meet" viewBox="0 0 256 256" width="256" height="256"><defs><path d="M114.59 0.65C113.36 0.7 112.19 0.86 112.08 0.97C111.92 1.13 111.07 1.24 110.11 1.24C109.15 1.24 108.3 1.34 108.24 1.5C108.14 1.61 107.44 1.72 106.7 1.72C105.9 1.72 105.31 1.82 105.31 1.98C105.31 2.14 104.72 2.25 104.03 2.25C103.34 2.25 102.7 2.36 102.59 2.52C102.54 2.62 102 2.73 101.47 2.73C100.88 2.73 100.46 2.89 100.46 3C100.46 3.16 99.87 3.26 99.18 3.26C98.49 3.26 97.9 3.37 97.9 3.53C97.9 3.64 97.42 3.8 96.89 3.8C96.3 3.8 95.87 3.9 95.87 4.01C95.87 4.17 95.5 4.28 95.13 4.28C94.7 4.28 94.27 4.38 94.17 4.54C94.11 4.7 93.63 4.81 93.15 4.81C92.67 4.81 92.3 4.92 92.3 5.02C92.3 5.18 91.87 5.29 91.39 5.29C90.91 5.29 90.49 5.4 90.49 5.56C90.49 5.66 90.11 5.82 89.69 5.88C88.51 6.09 86.06 6.78 84.73 7.32C84.46 7.48 83.82 7.69 83.34 7.85C82.27 8.22 81.31 8.6 80.73 8.92C80.51 9.02 80.14 9.13 79.93 9.13C79.71 9.13 79.5 9.24 79.5 9.4C79.5 9.5 79.23 9.66 78.91 9.66C78.54 9.66 78.22 9.77 78.11 9.88C78.01 10.04 77.74 10.14 77.47 10.14C77.21 10.14 76.99 10.25 76.99 10.41C76.99 10.57 76.73 10.68 76.46 10.68C76.19 10.68 75.93 10.78 75.93 10.94C75.93 11.05 75.71 11.16 75.45 11.16C75.18 11.16 74.91 11.26 74.91 11.42C74.91 11.58 74.65 11.69 74.27 11.69C73.95 11.69 73.63 11.8 73.63 11.96C73.63 12.06 73.53 12.17 73.31 12.17C72.83 12.17 71.61 12.81 71.61 13.02C71.61 13.13 71.39 13.24 71.13 13.24C70.81 13.24 70.59 13.34 70.59 13.45C70.59 13.61 70.38 13.72 70.06 13.72C69.79 13.72 69.58 13.82 69.58 13.98C69.58 14.14 69.37 14.25 69.05 14.25C68.78 14.25 68.57 14.36 68.57 14.46C68.57 14.62 68.3 14.73 68.04 14.73C67.77 14.73 67.56 14.84 67.56 15C67.56 15.16 67.34 15.26 67.08 15.26C66.81 15.26 66.44 15.48 66.28 15.74C66.06 16.06 65.69 16.28 65.42 16.28C65.21 16.28 65 16.38 65 16.6C65 16.76 64.89 16.81 64.84 16.7C64.62 16.54 62.6 17.56 62.49 17.88C62.44 17.98 62.28 18.04 62.12 18.04C62.01 18.04 61.37 18.41 60.78 18.84C60.14 19.26 59.56 19.58 59.45 19.58C59.34 19.58 59.08 19.8 58.86 20.12C58.65 20.38 58.33 20.6 58.12 20.6C57.85 20.6 57.53 20.86 57.32 21.13C57.1 21.4 56.78 21.61 56.57 21.61C56.36 21.61 55.98 21.88 55.82 22.14C55.61 22.41 55.24 22.68 55.02 22.68C54.81 22.68 54.49 22.89 54.28 23.16C54.06 23.42 53.8 23.69 53.64 23.69C53.48 23.69 52.94 24.01 52.52 24.44C52.09 24.86 51.61 25.18 51.45 25.18C51.29 25.18 50.81 25.56 50.44 25.98C50.06 26.41 49.64 26.73 49.58 26.73C49.37 26.73 48.94 27.05 48.04 27.95C47.66 28.27 47.29 28.54 47.18 28.54C47.02 28.54 46.17 29.29 45.21 30.19C44.3 31.1 43.4 31.85 43.29 31.85C43.18 31.85 41.9 33.02 40.46 34.51C37.26 37.71 37.69 37.29 34.49 40.49C33 41.93 31.83 43.21 31.83 43.31C31.83 43.42 31.08 44.27 30.17 45.23C29.27 46.19 28.52 47.05 28.52 47.21C28.52 47.31 28.25 47.69 27.93 48.06C27.08 48.97 26.71 49.39 26.71 49.61C26.71 49.66 26.39 50.09 25.96 50.46C25.53 50.83 25.21 51.31 25.21 51.47C25.21 51.63 24.84 52.11 24.41 52.54C23.99 52.97 23.67 53.45 23.67 53.61C23.67 53.77 23.45 54.09 23.13 54.3C22.87 54.51 22.65 54.83 22.65 55.05C22.65 55.26 22.39 55.63 22.12 55.79C21.85 56.01 21.64 56.38 21.64 56.59C21.64 56.81 21.37 57.13 21.11 57.34C20.84 57.55 20.57 57.87 20.57 58.14C20.57 58.35 20.36 58.67 20.09 58.88C19.83 59.1 19.56 59.36 19.56 59.47C19.56 59.58 19.24 60.16 18.81 60.8C18.39 61.39 18.07 62.03 18.07 62.14C18.07 62.3 17.96 62.46 17.85 62.51C17.53 62.62 16.52 64.64 16.68 64.86C16.79 64.91 16.73 65.02 16.57 65.02C16.41 65.02 16.25 65.18 16.25 65.44C16.25 65.71 16.04 66.08 15.77 66.3C15.45 66.46 15.24 66.83 15.24 67.1C15.24 67.36 15.13 67.52 14.97 67.52C14.87 67.52 14.71 67.79 14.71 68.06C14.71 68.32 14.6 68.59 14.49 68.59C14.33 68.59 14.23 68.8 14.23 69.07C14.23 69.34 14.12 69.6 13.96 69.6C13.8 69.6 13.69 69.82 13.69 70.08C13.69 70.4 13.59 70.62 13.43 70.62C13.32 70.62 13.21 70.83 13.21 71.1C13.21 71.42 13.11 71.63 13 71.63C12.79 71.63 12.2 72.86 12.2 73.34C12.2 73.55 12.04 73.66 11.93 73.66C11.77 73.66 11.67 73.98 11.67 74.3C11.67 74.67 11.56 74.94 11.4 74.94C11.29 74.94 11.13 75.2 11.13 75.47C11.13 75.74 11.03 75.95 10.92 75.95C10.76 75.95 10.65 76.22 10.65 76.48C10.65 76.75 10.55 76.96 10.39 76.96C10.23 76.96 10.12 77.23 10.12 77.5C10.12 77.76 10.01 78.03 9.85 78.14C9.75 78.24 9.64 78.56 9.64 78.94C9.64 79.26 9.53 79.52 9.37 79.52C9.21 79.52 9.11 79.74 9.11 79.95C9.11 80.16 9 80.54 8.89 80.75C8.57 81.34 8.2 82.3 7.83 83.36C7.67 83.84 7.45 84.48 7.35 84.75C6.76 86.08 6.07 88.53 5.85 89.65C5.8 90.13 5.64 90.51 5.53 90.51C5.37 90.51 5.27 90.93 5.27 91.41C5.27 91.89 5.16 92.32 5.06 92.32C4.84 92.32 4.79 92.59 4.36 94.93C4.31 95.41 4.1 95.84 3.99 95.84C3.88 95.84 3.78 96.32 3.78 96.91C3.78 97.44 3.67 97.92 3.51 97.92C3.35 97.92 3.24 98.51 3.24 99.2C3.24 99.89 3.14 100.48 2.98 100.48C2.87 100.48 2.76 100.91 2.76 101.44C2.76 102.03 2.6 102.56 2.5 102.61C2.34 102.72 2.23 103.36 2.23 104.05C2.23 104.75 2.12 105.28 1.96 105.28C1.86 105.28 1.7 105.92 1.7 106.72C1.7 107.47 1.59 108.16 1.48 108.21C1.32 108.32 1.22 109.17 1.22 110.13C1.22 111.15 1.06 111.95 0.9 112.16C0.42 112.64 0.42 143.41 0.9 143.89C1.06 144.05 1.22 144.85 1.22 145.92C1.22 146.82 1.32 147.68 1.48 147.78C1.59 147.89 1.7 148.58 1.7 149.33C1.7 150.08 1.86 150.71 1.96 150.71C2.12 150.71 2.23 151.3 2.23 151.99C2.23 152.69 2.34 153.33 2.5 153.38C2.6 153.49 2.76 154.02 2.76 154.55C2.76 155.09 2.87 155.57 2.98 155.57C3.14 155.57 3.24 156.15 3.24 156.85C3.24 157.54 3.35 158.13 3.51 158.13C3.67 158.13 3.78 158.55 3.78 159.14C3.78 159.67 3.88 160.15 3.99 160.15C4.15 160.15 4.26 160.47 4.26 160.9C4.26 161.33 4.36 161.7 4.52 161.81C4.68 161.91 4.79 162.34 4.79 162.82C4.79 163.35 4.9 163.73 5.06 163.73C5.16 163.73 5.27 164.1 5.27 164.63C5.27 165.11 5.37 165.49 5.53 165.49C5.64 165.49 5.8 165.86 5.85 166.34C6.17 168.15 7.93 173.38 8.89 175.25C9 175.51 9.11 175.89 9.11 176.1C9.11 176.31 9.21 176.47 9.37 176.47C9.53 176.47 9.64 176.74 9.64 177.11C9.64 177.43 9.75 177.81 9.85 177.86C10.01 177.97 10.12 178.29 10.12 178.55C10.12 178.82 10.23 179.03 10.39 179.03C10.55 179.03 10.65 179.25 10.65 179.57C10.65 179.83 10.76 180.05 10.92 180.05C11.03 180.05 11.13 180.26 11.13 180.58C11.13 180.85 11.29 181.06 11.4 181.06C11.56 181.06 11.67 181.38 11.67 181.7C11.67 182.07 11.77 182.34 11.93 182.34C12.04 182.34 12.2 182.5 12.2 182.71C12.2 183.14 13.21 185.22 13.53 185.38C13.64 185.43 13.69 185.64 13.69 185.96C13.69 186.23 13.8 186.44 13.96 186.44C14.12 186.44 14.23 186.66 14.23 186.92C14.23 187.24 14.33 187.46 14.49 187.46C14.6 187.46 14.71 187.67 14.71 187.94C14.71 188.26 14.87 188.47 14.97 188.47C15.13 188.47 15.24 188.68 15.24 188.9C15.24 189.16 15.45 189.54 15.77 189.75C16.04 189.96 16.25 190.34 16.25 190.55C16.25 190.82 16.41 191.03 16.57 191.03C16.73 191.03 16.79 191.08 16.68 191.19C16.52 191.35 17.53 193.38 17.85 193.54C17.96 193.59 18.07 193.75 18.07 193.86C18.07 194.02 18.39 194.6 18.81 195.24C19.24 195.83 19.56 196.42 19.56 196.58C19.56 196.68 19.83 196.95 20.09 197.16C20.36 197.32 20.57 197.7 20.57 197.91C20.57 198.12 20.84 198.5 21.11 198.66C21.37 198.87 21.64 199.24 21.64 199.46C21.64 199.67 21.85 199.99 22.12 200.2C22.39 200.42 22.65 200.74 22.65 200.95C22.65 201.16 22.87 201.54 23.13 201.75C23.45 201.91 23.67 202.23 23.67 202.39C23.67 202.55 23.99 203.03 24.41 203.46C24.84 203.94 25.21 204.42 25.21 204.58C25.21 204.74 25.53 205.16 25.96 205.54C26.39 205.96 26.71 206.34 26.71 206.44C26.71 206.6 27.08 207.03 27.93 207.99C28.25 208.31 28.52 208.68 28.52 208.84C28.52 209 29.21 209.8 30.01 210.66C30.87 211.51 31.56 212.31 31.56 212.41C31.56 212.52 32.84 213.91 34.33 215.4C37.74 218.76 37.21 218.28 40.57 221.64C42.12 223.19 43.45 224.41 43.56 224.41C43.72 224.41 44.52 225.11 45.37 225.96C46.22 226.81 47.02 227.51 47.13 227.51C47.29 227.51 47.82 227.88 48.3 228.41C48.84 228.89 49.37 229.27 49.48 229.27C49.64 229.27 50.06 229.64 50.44 230.07C50.81 230.49 51.29 230.81 51.45 230.81C51.61 230.81 52.09 231.19 52.52 231.56C52.94 231.99 53.48 232.36 53.64 232.36C53.8 232.36 54.06 232.57 54.28 232.84C54.49 233.16 54.81 233.37 55.02 233.37C55.24 233.37 55.61 233.59 55.82 233.85C55.98 234.17 56.36 234.39 56.57 234.39C56.78 234.39 57.1 234.6 57.32 234.92C57.53 235.19 57.85 235.4 58.12 235.4C58.33 235.4 58.65 235.61 58.86 235.93C59.08 236.2 59.34 236.41 59.45 236.41C59.56 236.41 60.14 236.79 60.78 237.21C61.37 237.64 62.01 237.96 62.12 237.96C62.28 237.96 62.44 238.07 62.49 238.17C62.6 238.44 65.1 239.72 65.53 239.72C65.74 239.72 66.06 239.99 66.28 240.25C66.44 240.52 66.81 240.79 67.08 240.79C67.34 240.79 67.56 240.89 67.56 241C67.56 241.16 67.77 241.27 68.04 241.27C68.3 241.27 68.57 241.37 68.57 241.53C68.57 241.69 68.78 241.8 69.05 241.8C69.37 241.8 69.58 241.91 69.58 242.07C69.58 242.17 69.79 242.28 70.06 242.28C70.38 242.28 70.59 242.39 70.59 242.55C70.59 242.71 70.81 242.81 71.13 242.81C71.39 242.81 71.61 242.87 71.61 242.97C71.61 243.24 72.83 243.82 73.31 243.82C73.53 243.82 73.63 243.93 73.63 244.09C73.63 244.2 73.95 244.36 74.27 244.36C74.65 244.36 74.91 244.46 74.91 244.57C74.91 244.73 75.18 244.84 75.45 244.84C75.71 244.84 75.93 244.94 75.93 245.1C75.93 245.26 76.19 245.37 76.46 245.37C76.73 245.37 76.99 245.48 76.99 245.58C76.99 245.74 77.21 245.85 77.47 245.85C77.74 245.85 78.01 245.96 78.11 246.12C78.22 246.28 78.54 246.38 78.91 246.38C79.23 246.38 79.5 246.49 79.5 246.65C79.5 246.76 79.71 246.86 79.93 246.86C80.14 246.86 80.51 246.97 80.73 247.13C81.15 247.29 81.58 247.5 83.23 248.2C84.73 248.78 89.31 250.22 89.85 250.22C90.22 250.22 90.49 250.33 90.49 250.44C90.49 250.6 90.91 250.7 91.39 250.7C91.87 250.7 92.3 250.81 92.3 250.97C92.3 251.13 92.67 251.24 93.15 251.24C93.63 251.24 94.11 251.34 94.17 251.5C94.27 251.61 94.7 251.72 95.13 251.72C95.5 251.72 95.87 251.82 95.87 251.98C95.87 252.14 96.3 252.25 96.89 252.25C97.42 252.25 97.9 252.36 97.9 252.52C97.9 252.62 98.49 252.73 99.18 252.73C99.87 252.73 100.46 252.89 100.46 253C100.46 253.16 100.88 253.26 101.47 253.26C102 253.26 102.54 253.37 102.59 253.53C102.7 253.64 103.34 253.8 104.03 253.8C104.72 253.8 105.31 253.9 105.31 254.01C105.31 254.17 105.9 254.28 106.7 254.28C107.44 254.28 108.14 254.38 108.24 254.54C108.3 254.7 109.15 254.81 110.11 254.81C111.12 254.81 111.92 254.92 112.14 255.13C112.4 255.34 115.92 255.45 127.98 255.45C140.08 255.45 143.6 255.34 143.87 255.13C144.03 254.92 144.83 254.81 145.89 254.81C146.85 254.81 147.65 254.7 147.76 254.54C147.87 254.38 148.56 254.28 149.31 254.28C150.05 254.28 150.69 254.17 150.69 254.01C150.69 253.9 151.33 253.8 152.08 253.8C152.88 253.8 153.52 253.64 153.52 253.53C153.52 253.37 153.95 253.26 154.53 253.26C155.07 253.26 155.55 253.16 155.55 253C155.55 252.89 156.13 252.73 156.83 252.73C157.63 252.73 158.05 252.68 157.95 252.52C157.89 252.36 158.27 252.25 158.96 252.25C159.6 252.25 160.13 252.14 160.13 251.98C160.13 251.82 160.45 251.72 160.88 251.72C161.31 251.72 161.73 251.61 161.79 251.5C161.89 251.34 162.37 251.24 162.85 251.24C163.33 251.24 163.7 251.13 163.7 250.97C163.7 250.81 164.13 250.7 164.61 250.7C165.09 250.7 165.52 250.6 165.52 250.44C165.52 250.33 165.78 250.22 166.1 250.22C167.06 250.22 173.36 248.09 175.22 247.13C175.49 246.97 175.86 246.86 176.08 246.86C176.29 246.86 176.45 246.76 176.45 246.65C176.45 246.49 176.72 246.38 177.09 246.38C177.41 246.38 177.78 246.28 177.89 246.12C177.94 245.96 178.26 245.85 178.53 245.85C178.8 245.85 179.01 245.74 179.01 245.58C179.01 245.48 179.22 245.37 179.54 245.37C179.81 245.37 180.02 245.26 180.02 245.1C180.02 244.94 180.24 244.84 180.56 244.84C180.82 244.84 181.04 244.73 181.04 244.57C181.04 244.46 181.36 244.36 181.68 244.36C182.05 244.36 182.32 244.2 182.32 244.09C182.32 243.93 182.48 243.82 182.69 243.82C183.12 243.82 185.25 242.76 185.36 242.49C185.41 242.39 185.68 242.28 185.94 242.28C186.21 242.28 186.42 242.17 186.42 242.07C186.42 241.91 186.64 241.8 186.9 241.8C187.22 241.8 187.44 241.69 187.44 241.53C187.44 241.37 187.65 241.27 187.92 241.27C188.24 241.27 188.45 241.16 188.45 241C188.45 240.89 188.66 240.79 188.93 240.79C189.14 240.79 189.52 240.52 189.73 240.25C189.94 239.99 190.26 239.72 190.48 239.72C190.85 239.72 193.41 238.44 193.52 238.17C193.57 238.07 193.73 237.96 193.84 237.96C194 237.96 194.58 237.64 195.22 237.21C195.81 236.79 196.45 236.41 196.55 236.41C196.66 236.41 196.93 236.2 197.14 235.93C197.3 235.61 197.67 235.4 197.89 235.4C198.1 235.4 198.47 235.19 198.63 234.92C198.85 234.6 199.22 234.39 199.43 234.39C199.65 234.39 199.97 234.17 200.18 233.85C200.39 233.59 200.71 233.37 200.87 233.37C201.09 233.37 201.57 233 201.99 232.63C202.47 232.2 202.95 231.83 203.11 231.83C203.27 231.83 203.54 231.61 203.75 231.35C203.97 231.03 204.29 230.81 204.5 230.81C204.66 230.81 205.14 230.49 205.57 230.07C205.94 229.64 206.37 229.27 206.47 229.27C206.63 229.27 207.11 228.89 207.65 228.41C208.18 227.88 208.71 227.51 208.82 227.51C208.98 227.51 209.78 226.81 210.63 225.96C211.49 225.11 212.29 224.41 212.45 224.41C212.55 224.41 213.89 223.19 215.43 221.64C218.74 218.28 218.26 218.76 221.62 215.45C223.17 213.91 224.45 212.57 224.45 212.41C224.45 212.31 225.03 211.56 225.83 210.76C226.58 210.02 227.22 209.27 227.22 209.16C227.22 209.06 227.7 208.42 228.23 207.83C228.82 207.19 229.24 206.6 229.24 206.5C229.24 206.39 229.62 205.96 230.04 205.54C230.47 205.16 230.79 204.68 230.79 204.47C230.79 204.31 231 203.99 231.32 203.78C231.59 203.56 231.8 203.3 231.8 203.14C231.8 202.98 232.18 202.5 232.6 202.02C233.03 201.59 233.35 201.06 233.35 200.9C233.35 200.74 233.56 200.42 233.88 200.2C234.15 199.99 234.36 199.67 234.36 199.46C234.36 199.24 234.58 198.87 234.9 198.66C235.16 198.5 235.38 198.12 235.38 197.91C235.38 197.7 235.64 197.32 235.91 197.16C236.18 196.95 236.39 196.68 236.39 196.58C236.39 196.42 236.76 195.83 237.19 195.24C237.62 194.6 237.94 194.02 237.94 193.86C237.94 193.75 238.04 193.59 238.15 193.54C238.42 193.38 239.75 190.87 239.75 190.44C239.75 190.28 239.96 189.96 240.23 189.75C240.5 189.54 240.76 189.16 240.76 188.9C240.76 188.68 240.87 188.47 240.98 188.47C241.14 188.47 241.24 188.26 241.24 187.94C241.24 187.67 241.35 187.46 241.51 187.46C241.67 187.46 241.78 187.24 241.78 186.92C241.78 186.66 241.88 186.44 242.04 186.44C242.15 186.44 242.26 186.23 242.26 185.96C242.26 185.64 242.36 185.43 242.47 185.38C242.74 185.22 243.8 183.14 243.8 182.71C243.8 182.5 243.91 182.34 244.07 182.34C244.23 182.34 244.34 182.07 244.34 181.7C244.34 181.38 244.44 181.06 244.55 181.06C244.71 181.06 244.82 180.85 244.82 180.58C244.82 180.26 244.92 180.05 245.08 180.05C245.24 180.05 245.35 179.83 245.35 179.57C245.35 179.25 245.46 179.03 245.62 179.03C245.72 179.03 245.83 178.82 245.83 178.55C245.83 178.29 245.99 177.97 246.1 177.86C246.26 177.81 246.36 177.43 246.36 177.11C246.36 176.74 246.47 176.47 246.63 176.47C246.74 176.47 246.9 176.31 246.9 176.1C246.9 175.89 246.95 175.51 247.11 175.25C248.07 173.38 250.2 167.09 250.2 166.13C250.2 165.81 250.31 165.49 250.42 165.49C250.58 165.49 250.68 165.11 250.68 164.63C250.68 164.1 250.79 163.73 250.95 163.73C251.11 163.73 251.22 163.35 251.22 162.82C251.22 162.34 251.32 161.91 251.48 161.81C251.59 161.7 251.7 161.33 251.7 160.9C251.7 160.47 251.86 160.15 251.96 160.15C252.12 160.15 252.23 159.62 252.23 158.98C252.23 158.29 252.34 157.91 252.5 157.97C252.66 158.07 252.76 157.65 252.76 156.85C252.76 156.15 252.87 155.57 252.98 155.57C253.14 155.57 253.24 155.09 253.24 154.55C253.24 153.97 253.35 153.54 253.51 153.54C253.67 153.54 253.78 152.9 253.78 152.1C253.78 151.35 253.88 150.71 253.99 150.71C254.15 150.71 254.26 150.08 254.26 149.33C254.26 148.58 254.36 147.89 254.52 147.78C254.68 147.68 254.79 146.82 254.79 145.92C254.79 144.85 254.9 144.05 255.11 143.89C255.59 143.41 255.59 112.64 255.11 112.16C254.9 111.95 254.79 111.15 254.79 110.13C254.79 109.17 254.68 108.32 254.52 108.21C254.36 108.16 254.26 107.47 254.26 106.72C254.26 105.92 254.15 105.28 253.99 105.28C253.88 105.28 253.78 104.75 253.78 104.05C253.78 103.36 253.67 102.72 253.51 102.61C253.35 102.56 253.24 102.03 253.24 101.44C253.24 100.91 253.14 100.48 252.98 100.48C252.87 100.48 252.76 99.89 252.76 99.2C252.76 98.51 252.6 97.92 252.5 97.92C252.34 97.92 252.23 97.44 252.23 96.91C252.23 96.32 252.12 95.84 251.96 95.84C251.86 95.84 251.7 95.52 251.7 95.09C251.7 94.72 251.59 94.29 251.48 94.19C251.32 94.13 251.22 93.65 251.22 93.17C251.22 92.69 251.11 92.32 250.95 92.32C250.79 92.32 250.68 91.89 250.68 91.41C250.68 90.93 250.58 90.51 250.42 90.51C250.31 90.51 250.2 90.24 250.2 89.87C250.2 89.33 248.82 84.75 248.18 83.26C247.48 81.6 247.32 81.18 247.11 80.75C246.95 80.54 246.9 80.16 246.9 79.95C246.9 79.74 246.74 79.52 246.63 79.52C246.47 79.52 246.36 79.26 246.36 78.94C246.36 78.56 246.26 78.24 246.1 78.14C245.99 78.03 245.83 77.76 245.83 77.5C245.83 77.23 245.72 76.96 245.62 76.96C245.46 76.96 245.35 76.75 245.35 76.48C245.35 76.22 245.24 75.95 245.08 75.95C244.92 75.95 244.82 75.74 244.82 75.47C244.82 75.2 244.71 74.94 244.55 74.94C244.44 74.94 244.34 74.67 244.34 74.3C244.34 73.98 244.23 73.66 244.07 73.66C243.91 73.66 243.8 73.55 243.8 73.34C243.8 72.86 243.22 71.63 243 71.63C242.9 71.63 242.79 71.42 242.79 71.1C242.79 70.83 242.68 70.62 242.52 70.62C242.42 70.62 242.26 70.4 242.26 70.08C242.26 69.82 242.15 69.6 242.04 69.6C241.88 69.6 241.78 69.34 241.78 69.07C241.78 68.8 241.67 68.59 241.51 68.59C241.35 68.59 241.24 68.32 241.24 68.06C241.24 67.79 241.14 67.52 240.98 67.52C240.87 67.52 240.76 67.36 240.76 67.1C240.76 66.83 240.5 66.46 240.23 66.3C239.96 66.08 239.75 65.76 239.75 65.55C239.75 65.23 238.52 62.78 238.2 62.46C238.15 62.4 237.88 62.03 237.72 61.6C237.51 61.23 237.14 60.7 236.87 60.43C236.6 60.16 236.39 59.79 236.39 59.58C236.39 59.42 236.18 59.1 235.91 58.88C235.64 58.67 235.38 58.35 235.38 58.14C235.38 57.87 235.16 57.55 234.9 57.34C234.58 57.13 234.36 56.81 234.36 56.59C234.36 56.38 234.15 56.01 233.88 55.79C233.56 55.63 233.35 55.26 233.35 55.05C233.35 54.83 233.14 54.51 232.82 54.3C232.55 54.09 232.34 53.77 232.34 53.61C232.34 53.45 231.96 52.97 231.54 52.54C231.16 52.11 230.79 51.63 230.79 51.47C230.79 51.31 230.47 50.83 230.04 50.46C229.62 50.09 229.24 49.66 229.24 49.5C229.24 49.39 228.87 48.86 228.39 48.33C227.86 47.85 227.48 47.31 227.48 47.15C227.48 47.05 226.79 46.25 225.94 45.39C225.09 44.54 224.45 43.74 224.45 43.58C224.45 43.47 223.17 42.14 221.62 40.59C218.26 37.23 218.74 37.77 215.38 34.35C213.89 32.86 212.5 31.58 212.39 31.58C212.29 31.58 211.49 30.89 210.63 30.03C209.78 29.23 208.98 28.54 208.82 28.54C208.71 28.54 208.29 28.27 207.97 27.95C207.06 27.05 206.58 26.73 206.42 26.73C206.31 26.73 205.94 26.41 205.57 25.98C205.14 25.56 204.71 25.18 204.55 25.18C204.39 25.18 203.91 24.86 203.49 24.44C203.01 24.01 202.53 23.69 202.37 23.69C202.21 23.69 201.94 23.42 201.73 23.16C201.51 22.89 201.19 22.68 200.93 22.68C200.71 22.68 200.39 22.41 200.18 22.14C199.97 21.88 199.65 21.61 199.43 21.61C199.22 21.61 198.85 21.4 198.63 21.13C198.47 20.86 198.1 20.6 197.89 20.6C197.67 20.6 197.3 20.38 197.14 20.12C196.93 19.8 196.61 19.58 196.39 19.58C196.23 19.58 195.86 19.37 195.59 19.1C195.33 18.89 194.74 18.52 194.37 18.3C194 18.09 193.62 17.88 193.57 17.82C193.2 17.45 191.33 16.54 191.17 16.7C191.06 16.81 191.01 16.76 191.01 16.6C191.01 16.38 190.8 16.28 190.53 16.28C190.32 16.28 189.94 16.06 189.73 15.74C189.52 15.48 189.14 15.26 188.93 15.26C188.66 15.26 188.45 15.16 188.45 15C188.45 14.84 188.24 14.73 187.92 14.73C187.65 14.73 187.44 14.62 187.44 14.46C187.44 14.36 187.22 14.25 186.9 14.25C186.64 14.25 186.42 14.14 186.42 13.98C186.42 13.82 186.21 13.72 185.94 13.72C185.68 13.72 185.41 13.66 185.36 13.56C185.25 13.24 183.12 12.17 182.69 12.17C182.48 12.17 182.32 12.06 182.32 11.96C182.32 11.8 182.05 11.69 181.68 11.69C181.36 11.69 181.04 11.58 181.04 11.42C181.04 11.26 180.82 11.16 180.56 11.16C180.24 11.16 180.02 11.05 180.02 10.94C180.02 10.78 179.81 10.68 179.54 10.68C179.22 10.68 179.01 10.57 179.01 10.41C179.01 10.25 178.8 10.14 178.53 10.14C178.26 10.14 177.94 10.04 177.89 9.88C177.78 9.77 177.41 9.66 177.09 9.66C176.72 9.66 176.45 9.5 176.45 9.4C176.45 9.24 176.29 9.13 176.08 9.13C175.86 9.13 175.49 9.02 175.22 8.92C173.36 7.96 168.13 6.2 166.32 5.88C165.89 5.82 165.52 5.66 165.52 5.56C165.52 5.4 165.09 5.29 164.61 5.29C164.13 5.29 163.7 5.18 163.7 5.02C163.7 4.92 163.33 4.81 162.85 4.81C162.37 4.81 161.89 4.7 161.79 4.54C161.73 4.38 161.31 4.28 160.88 4.28C160.45 4.28 160.13 4.17 160.13 4.01C160.13 3.9 159.65 3.8 159.12 3.8C158.53 3.8 158.11 3.64 158.11 3.53C158.11 3.37 157.52 3.26 156.83 3.26C156.13 3.26 155.55 3.16 155.55 3C155.55 2.89 155.07 2.73 154.53 2.73C154 2.73 153.47 2.62 153.36 2.52C153.31 2.36 152.67 2.25 151.97 2.25C151.28 2.25 150.69 2.14 150.69 1.98C150.69 1.82 150.05 1.72 149.31 1.72C148.56 1.72 147.87 1.61 147.76 1.5C147.65 1.34 146.85 1.24 145.89 1.24C144.88 1.24 144.03 1.08 143.87 0.92C143.55 0.6 120.24 0.38 114.59 0.65M107.12 71.63C108.08 73.44 108.03 73.55 106.64 73.92C93.95 77.23 84.57 82.19 75.34 90.35C74.17 91.41 74.81 91.15 80.09 88.64C88.51 84.59 92.83 82.88 99.55 80.96C120.19 75.04 148.45 76.43 166.37 84.27C166.8 84.43 167.7 84.8 168.34 85.12C169.04 85.44 169.62 85.66 169.68 85.66C169.89 85.66 172.24 86.78 176.93 89.01C182.32 91.57 182.32 91.63 178.8 88.69C172.08 83.04 164.82 78.83 157.84 76.59C157.2 76.38 156.45 76.11 156.19 76C155.49 75.68 154.37 75.31 152.99 74.94C152.35 74.78 151.55 74.56 151.23 74.46C150.85 74.35 150.05 74.08 149.41 73.92C148.77 73.71 148.24 73.55 148.19 73.5C148.13 73.5 148.45 72.7 148.93 71.74C148.99 71.63 149.25 71.04 149.73 70.03C150.75 70.14 151.33 70.19 151.44 70.19C160.08 71.04 170.9 74.99 180.29 80.7C185.09 83.58 185.94 84.38 187.6 87.26C188.98 89.65 192.77 97.17 192.77 97.49C192.77 97.6 193.09 98.35 193.52 99.25C197.73 108.53 202.95 126.72 204.77 138.34C205.25 141.28 205.57 143.3 205.78 144.74C205.94 145.54 206.15 147.25 206.31 148.42C206.42 149.6 206.69 151.57 206.79 152.74C207.38 157.49 207.81 164.05 207.59 164.47C205.41 168.58 190.85 178.55 183.33 181.17C182.74 181.38 181.52 181.8 180.66 182.12C179.81 182.39 178.74 182.76 178.32 182.87C177.84 183.03 177.09 183.19 176.66 183.35C171.7 184.74 164.88 185.91 161.79 185.91C161.73 185.91 161.36 185.91 160.67 185.91C159.01 183.67 158.11 182.44 157.89 182.18C156.4 180.15 155.17 178.39 155.17 178.23C155.17 178.07 156.77 177.27 158.75 176.47C167.12 173.06 173.84 168.79 180.82 162.34C184.5 158.98 186 156.9 183.17 159.03C177.78 163.19 166.9 168.47 159.01 170.87C141.09 176.21 120.14 176.53 100.46 171.78C92.46 169.86 82.17 165.22 74.7 160.15C73.95 159.67 72.89 158.98 72.3 158.66C72.19 158.61 71.87 158.39 71.23 158.02C71.55 158.39 71.71 158.61 71.71 158.66C77.1 165.22 88.94 173.27 98.65 177.01C99.87 177.49 100.94 177.91 101.04 178.02C101.2 178.13 99.98 179.99 98.38 182.12C98.22 182.39 97.21 183.67 95.5 185.96C94.11 185.91 93.31 185.86 93.21 185.8C87.45 185.43 78.17 183.35 74.06 181.59C73.74 181.48 72.83 181.11 71.98 180.79C68.46 179.41 60.73 175.25 58.7 173.59C58.44 173.38 57.48 172.63 56.57 171.94C54.54 170.45 48.73 164.9 48.52 164.26C48.46 163.99 48.57 161.65 48.78 159.09C49.16 154.71 49.26 153.43 49.96 147.89C50.33 144.69 51.5 137.33 51.98 135.14C52.14 134.5 52.41 133.06 52.62 131.94C52.89 130.82 53.16 129.54 53.26 129.01C53.64 127.2 54.06 125.54 54.28 124.64C54.44 124.1 54.65 123.25 54.76 122.72C54.97 121.81 55.29 120.8 55.77 118.93C55.93 118.56 56.2 117.49 56.41 116.64C57.05 114.29 60.09 105.44 60.89 103.47C61.32 102.45 61.69 101.6 61.69 101.44C61.69 101.33 62.01 100.53 62.38 99.63C62.81 98.77 63.34 97.55 63.61 96.91C64.41 94.99 67.66 88.69 68.94 86.51C70.11 84.43 70.17 84.38 73.47 82.19C76.57 80.16 83.55 76.38 86.17 75.36C86.81 75.1 87.66 74.72 88.09 74.56C91.82 72.8 102.91 70.03 105.52 70.19C106.32 70.24 106.48 70.35 107.12 71.63M101.31 121.22C93.42 123.46 89.42 133.97 93.37 142.18C98.11 152.1 110.75 152.15 115.44 142.24C120.72 131.09 112.03 118.19 101.31 121.22M148.4 121.28C138.69 123.89 135.71 138.4 143.23 146.02C150 152.95 160.03 149.86 163.65 139.73C164.18 138.24 164.24 132.42 163.7 130.93C161.09 123.2 155.12 119.46 148.4 121.28" id="b2sfGNRc7"></path></defs><g><g><g><use xlink:href="#b2sfGNRc7" opacity="1" fill="#8c9cfc" fill-opacity="1"></use><g><use xlink:href="#b2sfGNRc7" opacity="1" fill-opacity="0" stroke="#000000" stroke-width="1" stroke-opacity="0"></use></g></g></g></g></svg>